<?xml version="1.0" encoding="utf-8"?>
<!-- Generator: Adobe Illustrator 19.0.0, SVG Export Plug-In . SVG Version: 6.00 Build 0)  -->
<svg version="1.1" id="Layer_1" xmlns="http://www.w3.org/2000/svg" xmlns:xlink="http://www.w3.org/1999/xlink" x="0px" y="0px"
	 viewBox="0 0 500 500" style="enable-background:new 0 0 500 500;" xml:space="preserve">
<style type="text/css">
	.st0{fill:#FC4C02;}
	.st1{fill:#54585A;}
</style>
<g id="XMLID_1_">
	<path id="XMLID_24_" class="st0" d="M132.6,272.8c0,4.7,0,12-8.7,12c-5.3,0-7.5-2.9-8.7-7.7c-4.7,5.6-10.4,8.5-17.4,8.5
		c-17.2,0-30.2-14.6-30.2-35.2c0-20,13.5-35.4,30.2-35.4c6.7,0,13.3,2.6,17.4,8.4c0.5-4.4,4.3-7.6,8.7-7.6c8.7,0,8.7,7.2,8.7,12
		V272.8L132.6,272.8z M100.3,268.8c9.5,0,14.1-9.7,14.1-18.4s-4.4-18.7-14.1-18.7c-10,0-14.5,9.9-14.5,18.7
		C85.8,259.1,90.3,268.8,100.3,268.8z M137.8,225.9c0-6.1,3.8-10.2,9.2-10.2c5.1,0,8,2.8,9.2,7.6c3.4-5.6,10.5-8.4,17.4-8.4
		c19.7,0,29.5,18.4,29.5,36.2c0,17.2-11.7,34.4-30.1,34.4c-5.7,0-12-2.1-16.7-6.4v22.3c0,6.1-3.8,10.2-9.2,10.2
		c-5.3,0-9.2-4.1-9.2-10.2L137.8,225.9L137.8,225.9z M170.5,268.8c9.5,0,14.3-9.9,14.3-18.4c0-8.7-4.7-18.7-14.3-18.7
		c-9.8,0-14.3,9.2-14.3,18C156.1,258.7,160.4,268.8,170.5,268.8z M226.7,198.3c0,5.7-4.6,10.5-10.3,10.5c-5.4,0-10.3-4.9-10.3-10.5
		c0-5.2,4.8-10,10.3-10C221.9,188.3,226.7,192.9,226.7,198.3z M207.3,225.9c0-6.1,3.8-10.2,9.2-10.2s9.2,4.1,9.2,10.2v48.7
		c0,6.1-3.8,10.2-9.2,10.2s-9.2-4.1-9.2-10.2V225.9z"/>
	<path id="XMLID_31_" class="st1" d="M295,278.7c0,22-14.3,33-35.1,33c-7.5,0-28.9-3.7-28.9-13.8c0-3.4,3.8-8,7.4-8
		c5.9,0,12.3,5.7,22.8,5.7c8.9,0,15.5-5.2,15.5-14.4v-4.3h-0.3c-3.8,5.6-10,8.7-18.4,8.7c-19.2,0-28.2-16.9-28.2-35.1
		c0-18.4,11.7-35.6,30.1-35.6c6.2,0,13.3,2.8,16.7,8.4c1.1-4.8,4.1-7.6,9.2-7.6c5.3,0,9.2,4.1,9.2,10.2L295,278.7L295,278.7z
		 M262.4,231.7c-9.5,0-14.3,9.9-14.3,18.4c0,9.8,4.7,18.7,14.3,18.7c9.8,0,14.3-9.2,14.3-18C276.8,241.8,272.5,231.7,262.4,231.7
		L262.4,231.7z M317,256.4c1.3,9,8.7,13.2,17.2,13.2c9.4,0,15.9-7.4,20.7-7.4c3.9,0,7.5,3.9,7.5,7.9c0,7.9-16.2,15.5-29.9,15.5
		c-20.5,0-34.3-15-34.3-35.1c0-18.5,13.5-35.4,32.8-35.4c19.8,0,32.9,18,32.9,33.3c0,5.4-2.4,8.2-8,8.2H317V256.4L317,256.4z
		 M345.7,244.1c-1-8-6.1-14-14.6-14c-8.2,0-13.6,6.2-14.5,14H345.7z M385.6,256.6c1.3,9,8.7,13.2,17.2,13.2c9.4,0,15.9-7.4,20.7-7.4
		c3.9,0,7.5,3.9,7.5,7.9c0,7.9-16.2,15.5-29.9,15.5c-20.5,0-34.3-15-34.3-35.1c0-18.5,13.5-35.4,32.8-35.4c19.8,0,32.9,18,32.9,33.3
		c0,5.4-2.4,8.2-8,8.2L385.6,256.6L385.6,256.6z M414.3,244.4c-1-8-6.1-14-14.6-14c-8.2,0-13.6,6.2-14.4,14H414.3L414.3,244.4z"/>
</g>
</svg>
