<?xml version="1.0" encoding="utf-8"?>
<!-- Generator: Adobe Illustrator 19.0.0, SVG Export Plug-In . SVG Version: 6.00 Build 0)  -->
<svg version="1.1" id="Layer_1" xmlns="http://www.w3.org/2000/svg" xmlns:xlink="http://www.w3.org/1999/xlink" x="0px" y="0px"
	 viewBox="0 0 500 500" style="enable-background:new 0 0 500 500;" xml:space="preserve">
<style type="text/css">
	.st0{fill:#00ACD2;}
	.st1{fill:#C8E9EB;}
	.st2{fill:#662D91;}
</style>
<g id="XMLID_1_">
	<path id="XMLID_3_" class="st0" d="M355.1,103.3c-43.9-37.9-141-56.7-213.8-2.3C73,146.9,69.6,230.5,69.6,230.5
		c11.6,45.8,57.8,89.7,146.7,68.3C205.8,237.3,226.4,81.6,355.1,103.3z"/>
	<path id="XMLID_4_" class="st1" d="M309.3,252.1c-48,39.9-194.2,100.7-239.7-21.6c-10.9,57,19.3,151.7,102.8,187.6
		c73.8,36.2,150.7-5.7,150.7-5.7C356.9,379.4,372.3,318.4,309.3,252.1"/>
	<path id="XMLID_5_" class="st2" d="M222.6,196.2c58.5,21.7,183.7,115.6,100.5,216.1c54.8-19.1,119-92,108.2-182.2
		c-5.5-82-76.3-126.8-76.3-126.8C309.6,90.5,248.5,108.6,222.6,196.2"/>
</g>
</svg>
