<svg xmlns="http://www.w3.org/2000/svg" viewBox="0 0 99.34 22.64"><defs><style>.cls-1{fill:#e12130;}</style></defs><title>cognos_logo</title><g id="Layer_2" data-name="Layer 2"><g id="Layer_1-2" data-name="Layer 1"><path class="cls-1" d="M65.51,7.71c.6-2.77,3.73-5.3,6.38-5.9,1.2-.12,2.65-.36,3.61.12Z"/><path class="cls-1" d="M91.76,1.69,95,6H88.26c-.48,0-.72.36-.84.84a1.09,1.09,0,0,0,.72,1.33L93.8,11h-10A4.92,4.92,0,0,1,82.36,6a5.44,5.44,0,0,1,3.74-4,6.92,6.92,0,0,1,1.68-.36Z"/><polygon class="cls-1" points="64.78 1.93 64.78 8.19 61.05 10.36 60.09 9.99 60.09 1.93 64.78 1.93"/><polygon class="cls-1" points="48.05 1.93 52.38 1.93 58.76 10.48 58.52 10.96 53.22 10.84 52.38 9.75 52.38 10.96 48.05 10.96 48.05 1.93"/><polygon class="cls-1" points="64.78 10.96 61.53 10.96 64.78 9.03 64.78 10.96"/><path class="cls-1" d="M27,11.68c0,2.05-.48,5.54-3.85,5.42h.12c-3.37.12-3.85-3.37-3.85-5.42h-4.7a13.29,13.29,0,0,0,1.57,6.26H10.84c-.73,0-1.57-.12-2.41-.12-3.13-.36-3.25-6.14-3.25-6.14H0a12,12,0,0,0,2.77,8.07C4.7,22,7.35,22.52,10.24,22.64h6.38V18.3a10.42,10.42,0,0,0,1.68,1.57,8.17,8.17,0,0,0,8.43.6c3.25-1.56,4.7-4.94,4.82-8.31.6,5.66,2.89,9.27,11,8.79a39.44,39.44,0,0,0,4.93-2.89V11.68H43V17H41.9a7.51,7.51,0,0,1-3.37-.36c-2-.85-2.16-3.13-2.28-4.94Z"/><polygon class="cls-1" points="52.38 15.29 48.05 17.82 48.05 11.68 52.38 11.68 52.38 15.29"/><polygon class="cls-1" points="55.39 14.45 58.88 12.4 59.48 12.64 59.48 20.95 55.39 14.45"/><polygon class="cls-1" points="60.45 12.64 64.78 15.29 64.78 20.95 60.45 20.95 60.45 12.64"/><path class="cls-1" d="M74.54,21.19a7.91,7.91,0,0,1-9-5.42Z"/><polygon class="cls-1" points="52.38 20.95 48.17 20.95 48.17 18.66 52.38 16.26 52.38 20.95"/><polygon class="cls-1" points="55.03 13.85 53.83 11.68 58.64 11.68 55.03 13.85"/><path class="cls-1" d="M9.87,0A12.13,12.13,0,0,0,5.3,1.08C1.57,3,.24,7,0,11H5.18a22.29,22.29,0,0,1,.48-3C6,6.38,7.35,4.58,8.79,4.58h7.83A12.36,12.36,0,0,0,14.69,11h4.7c.12-2.05.6-5.3,3.85-5.3h-.12c3.25,0,3.73,3.25,3.85,5.3h9.28a9.66,9.66,0,0,1,.48-3.25,3,3,0,0,1,2.53-2h7.22L43.59,1.93c-3.61,0-7.83-.24-10.24,3a10.52,10.52,0,0,0-1.8,5.66A17.81,17.81,0,0,0,31,7.1a8.34,8.34,0,0,0-6.63-5.41,8.49,8.49,0,0,0-7.7,2.89c-1.21-1.45-2.29-3-3.49-4.58Z"/><path class="cls-1" d="M64.78,14.21,61.17,12v-.36h8.55c0,2.05.48,5.54,3.73,5.42,3.37.12,3.74-3.37,3.74-5.42H82a14.73,14.73,0,0,1-.84,4.58v.12H90a1.68,1.68,0,0,0,1-.85,1.12,1.12,0,0,0-.72-1.44c-1.68-.72-3.61-1.69-5.3-2.41h9.64a6.76,6.76,0,0,1,1.56,4.7C95,21.19,91,21,91,21H81V16.5l-.12.36A8.56,8.56,0,0,1,75.86,21L65.14,14.57C65,14.09,65,13.49,64.9,13Z"/><path class="cls-1" d="M77.19,11c0-2.05-.61-5.3-3.74-5.3S69.72,8.91,69.72,11H65.26a6.28,6.28,0,0,1,.13-2.29L76.58,2.29C81.76,4.33,82,10,82,11Z"/><path class="cls-1" d="M99.34,4.21a2.17,2.17,0,0,1-4.33,0,2.17,2.17,0,0,1,4.33,0m-3.85,0a1.69,1.69,0,1,0,3.37,0,1.69,1.69,0,1,0-3.37,0M97.18,4c.24,0,.36-.12.36-.24s-.12-.36-.49-.36h-.36V4Zm.48,1.33-.24-.36a.91.91,0,0,1-.24-.48.47.47,0,0,0-.37-.12h-.12v1h-.48V3H97.3c.48,0,.72.24.72.6a.78.78,0,0,1-.6.73c.24,0,.24.12.48.48l.24.48Z"/></g></g></svg>