<?xml version="1.0" standalone="no"?>
<!DOCTYPE svg PUBLIC "-//W3C//DTD SVG 20010904//EN"
 "http://www.w3.org/TR/2001/REC-SVG-20010904/DTD/svg10.dtd">
<svg version="1.0" xmlns="http://www.w3.org/2000/svg"
 width="222.000000pt" height="227.000000pt" viewBox="0 0 222.000000 227.000000"
 preserveAspectRatio="xMidYMid meet">
<metadata>
Created by potrace 1.15, written by Peter Selinger 2001-2017
</metadata>
<g transform="translate(0.000000,227.000000) scale(0.100000,-0.100000)"
fill="#000000" stroke="none">
<path d="M903 2131 c-70 -32 -83 -84 -30 -125 l32 -26 -71 0 c-100 0 -105 -8
-89 -141 l8 -67 -59 -17 c-65 -18 -149 -67 -158 -91 -11 -30 -6 -42 54 -109
33 -37 60 -71 60 -75 0 -4 -18 -46 -40 -93 -22 -47 -40 -94 -40 -106 0 -34 40
-53 96 -46 l49 7 1 -104 c0 -83 5 -115 24 -163 44 -113 162 -207 301 -240 82
-19 131 -19 227 1 144 29 254 112 310 232 25 52 27 68 27 173 l-1 116 42 -1
c77 -2 91 36 53 145 l-21 61 56 57 c33 33 56 65 56 78 0 26 -39 59 -132 115
-38 23 -73 51 -78 62 -4 12 -11 52 -15 90 -8 80 -20 112 -44 119 -10 2 -54 -7
-99 -21 l-81 -25 -56 49 c-114 99 -126 107 -158 107 -22 0 -38 -8 -57 -31
l-26 -32 -29 60 c-32 68 -43 72 -112 41z m323 -142 c62 -53 84 -77 84 -95 0
-13 2 -24 4 -24 2 0 29 15 60 34 52 31 130 55 142 43 7 -6 34 -138 34 -165 0
-14 -8 -26 -22 -32 l-23 -9 23 -7 c51 -15 159 -73 196 -106 l39 -34 -54 -52
c-39 -37 -62 -52 -83 -52 l-28 0 31 -35 c31 -36 54 -101 49 -138 -2 -17 -11
-23 -41 -25 -24 -2 -38 1 -41 10 -41 149 -88 254 -142 317 -23 27 -50 45 -85
56 -49 17 -53 16 -106 -4 -71 -27 -141 -27 -205 1 -50 21 -52 21 -102 4 -28
-10 -60 -24 -72 -31 -30 -19 -131 -223 -145 -294 -11 -53 -16 -62 -42 -71 -17
-5 -43 -10 -58 -10 -46 0 -38 41 30 153 54 88 65 117 33 85 -8 -8 -27 6 -75
58 -71 76 -73 89 -16 123 28 17 124 50 194 66 28 7 29 8 8 16 -24 9 -32 37
-36 124 l-2 50 38 3 c60 5 142 -16 186 -49 35 -24 41 -26 41 -12 0 10 -4 24
-9 32 -14 22 68 141 97 141 8 0 52 -32 98 -71z m170 -394 c92 -54 174 -251
174 -416 0 -111 -14 -175 -50 -232 -23 -36 -43 -53 -105 -83 -67 -33 -88 -38
-165 -42 -100 -5 -164 11 -241 59 -122 77 -200 255 -187 423 8 97 37 186 63
196 13 5 39 23 59 41 l36 31 65 -16 c117 -29 196 -20 252 30 21 18 42 33 47
34 5 0 29 -11 52 -25z"/>
<path d="M919 1331 c-37 -37 -38 -79 -3 -120 43 -52 123 -40 149 21 39 95 -74
171 -146 99z"/>
<path d="M1289 1331 c-38 -39 -40 -88 -3 -125 58 -58 154 -20 154 61 -1 86
-91 124 -151 64z"/>
<path d="M936 1124 c-9 -24 39 -100 82 -129 59 -40 130 -58 187 -45 59 13 114
41 141 72 34 38 57 85 51 102 -9 23 -34 20 -42 -5 -9 -28 -63 -87 -94 -103
-97 -49 -223 -10 -271 85 -21 41 -44 50 -54 23z"/>
<path d="M1300 435 c0 -94 4 -165 9 -165 39 0 41 8 41 171 l0 159 -25 0 -25 0
0 -165z"/>
<path d="M1950 540 c0 -23 -4 -30 -20 -30 -15 0 -20 -7 -20 -25 0 -18 5 -25
20 -25 18 0 20 -7 20 -60 0 -90 26 -130 83 -130 52 1 60 46 9 52 -26 3 -27 6
-30 71 l-3 67 31 0 c25 0 30 4 30 25 0 22 -4 25 -35 25 -32 0 -35 2 -35 30 0
25 -4 30 -25 30 -21 0 -25 -5 -25 -30z"/>
<path d="M655 520 c-3 -5 -29 -10 -56 -10 -89 0 -129 -38 -129 -120 0 -56 39
-97 104 -109 26 -5 55 -16 63 -24 23 -22 9 -62 -26 -77 -32 -13 -54 -6 -85 29
-22 25 -56 28 -56 5 0 -50 78 -100 138 -89 77 14 118 101 73 156 -18 23 -18
24 1 49 15 21 18 39 15 104 -3 58 -8 81 -20 87 -10 6 -18 5 -22 -1z"/>
<path d="M925 520 c-3 -6 -33 -10 -66 -10 -54 0 -64 -3 -90 -29 -17 -17 -30
-41 -31 -58 -5 -100 16 -123 134 -148 55 -11 57 -74 2 -95 -30 -12 -53 -4 -80
28 -14 17 -27 23 -37 19 -26 -10 -20 -43 13 -71 44 -36 89 -42 137 -18 62 32
81 96 42 146 l-20 26 20 26 c23 29 27 68 11 109 -6 16 -7 33 -1 44 7 13 5 20
-9 29 -12 7 -21 8 -25 2z"/>
<path d="M283 509 c-41 -8 -57 -21 -77 -63 -20 -43 -20 -69 1 -113 27 -58 118
-82 184 -47 29 15 30 16 14 34 -14 15 -22 17 -37 9 -31 -17 -89 -7 -106 19
l-14 22 91 0 91 0 0 39 c0 72 -67 117 -147 100z"/>
<path d="M1010 345 l0 -165 25 0 c24 0 25 3 25 56 0 47 3 55 16 50 35 -14 91
-17 116 -7 58 22 85 110 53 171 -30 58 -94 77 -155 45 -25 -13 -29 -13 -34 0
-3 8 -15 15 -26 15 -19 0 -20 -6 -20 -165z m175 95 c41 -45 9 -120 -51 -120
-54 0 -85 80 -47 122 22 24 75 23 98 -2z"/>
<path d="M1427 489 c-60 -47 -56 -161 6 -199 38 -23 95 -26 123 -6 16 13 21
12 36 -1 31 -28 38 -6 38 113 0 108 -1 114 -20 114 -11 0 -23 -6 -26 -14 -5
-12 -9 -12 -32 0 -39 20 -95 17 -125 -7z m127 -40 c30 -24 35 -72 10 -107 -19
-27 -78 -30 -106 -5 -29 26 -24 87 8 112 15 12 34 21 44 21 10 0 29 -9 44 -21z"/>
<path d="M1680 395 l0 -115 25 0 c24 0 25 2 25 73 0 82 15 107 62 107 44 0 58
-28 58 -113 0 -76 3 -83 34 -71 13 5 16 23 16 91 0 80 -2 86 -29 114 -34 33
-83 39 -119 13 -20 -14 -23 -14 -28 0 -3 9 -15 16 -25 16 -18 0 -19 -9 -19
-115z"/>
</g>
</svg>
