<?xml version="1.0" encoding="utf-8"?>
<!-- Generator: Adobe Illustrator 24.1.0, SVG Export Plug-In . SVG Version: 6.00 Build 0)  -->
<svg version="1.1" id="Layer_1" xmlns="http://www.w3.org/2000/svg" xmlns:xlink="http://www.w3.org/1999/xlink" x="0px" y="0px"
	 viewBox="0 0 792 612" style="enable-background:new 0 0 792 612;" xml:space="preserve">
<style type="text/css">
	.st0{fill:#C10403;}
	.st1{fill:#2A496C;}
	.st2{fill:#707070;stroke:#707070;stroke-width:2;}
	.st3{fill:url(#SVGID_1_);stroke:#B2B2B2;}
	.st4{fill:url(#SVGID_2_);stroke:#B2B2B2;}
	.st5{fill:url(#SVGID_3_);stroke:#B2B2B2;}
	.st6{fill:url(#SVGID_4_);stroke:#B2B2B2;}
</style>
<g>
	<g>
		<g>
			<path class="st0" d="M328.9,323c0,6.1-3.3,9.1-9.9,9.1h-1.5V330h1.5c5.2,0,7.7-2.4,7.7-7.2v-28.4h2.2V323z M329.4,287
				c0,1.1-0.5,1.6-1.6,1.6c-1.1,0-1.7-0.5-1.7-1.6c0-1.1,0.5-1.6,1.7-1.6C328.9,285.4,329.4,286,329.4,287z"/>
			<path class="st0" d="M325.2,292.8v30c0,3.9-1.9,5.7-6.2,5.7h-3.1v5.2h3.1c9.5,0,11.5-5.8,11.5-10.6v-30.2H325.2z"/>
			<path class="st0" d="M324.6,287c0,1.9,1.3,3.2,3.2,3.2c1.9,0,3.2-1.2,3.2-3.2c0-1.9-1.2-3.1-3.2-3.1
				C325.9,283.9,324.6,285.1,324.6,287z M327.8,287C327.8,287,327.9,287,327.8,287C327.9,287,327.9,287,327.8,287
				c0.1,0,0.1,0.1,0.1,0.1c0,0-0.1,0-0.1,0s-0.1,0-0.1,0c0,0,0-0.1,0-0.1s0,0,0,0C327.7,287,327.8,287,327.8,287z"/>
		</g>
		<g>
			<path class="st1" d="M350.6,279.3l-6.6,0c-1.8,0-3.3,0.6-4.5,1.6c-1.2,1.1-1.8,2.6-1.8,4.5l0,30.3c0,2,0.8,3.6,2.4,4.8
				c1.2,0.9,2.5,1.4,4,1.4h7.7c3.8,0,7-1,9.5-2.9c2.8-2.2,4.2-5.3,4.2-9.2c0-4.8-2.2-8.3-6.3-10.4c2.8-1.9,4.3-4.8,4.3-8.4
				c0-3.5-1.3-6.5-3.9-8.7C357.1,280.3,354.1,279.3,350.6,279.3z M341.9,318.1c-0.8-0.6-1.1-1.3-1.1-2.3v-30.3c0-1,0.3-1.7,0.9-2.2
				c0.6-0.6,1.4-0.8,2.4-0.8l6.6,0c2.8,0,5,0.7,6.9,2.3c1.9,1.6,2.8,3.7,2.8,6.3c0,3.6-1.8,5.8-5.6,7.1l-5,1.7l5.1,1.2
				c5.1,1.2,7.5,4,7.5,8.7c0,2.9-1,5.2-3,6.7c-1.9,1.5-4.4,2.3-7.6,2.3h-7.7C343.3,318.8,342.6,318.6,341.9,318.1z"/>
			<path class="st1" d="M343.7,281.5l-0.1,0c-2.2,0.3-3.5,1.7-3.5,3.9v15.2h9.7c2.9,0,5.4-0.7,7.4-2.2c2.4-1.7,3.6-4.1,3.6-7.1
				c0-2.9-1-5.3-3-7.1c-1.3-1.2-2.6-2-3.7-2.3c-0.8-0.2-1.9-0.3-3.6-0.3H343.7z M350.6,284.6c1.9,0,2.6,0.1,2.8,0.2
				c0.7,0.2,1.6,0.8,2.6,1.7c1.3,1.2,2,2.8,2,4.8c0,2-0.8,3.5-2.3,4.6c-1.5,1.1-3.4,1.6-5.7,1.6c0,0-4.8,0-6.6,0
				c0-2.4,0-12.1,0-12.1c0-0.4,0-0.7,0.8-0.8C344.3,284.6,350.6,284.6,350.6,284.6z"/>
			<path class="st1" d="M340.1,299.7v16.2c0,2.1,1.3,3.5,3.5,3.9l0.1,0h7.7c9.6,0,11.6-5.4,11.6-9.9c0-4.6-2.2-10.2-12.4-10.2H340.1
				z M350.5,302.7c8.4,0,9.4,4,9.4,7.1c0,3.2-1,6.8-8.5,6.8c0,0-7.1,0-7.4,0c-0.8-0.1-0.8-0.4-0.8-0.8c0,0,0-10.6,0-13.1
				C345,302.7,350.5,302.7,350.5,302.7z"/>
		</g>
		<g>
			<path class="st1" d="M396.5,293c0,3.5-1.3,6.4-3.9,8.8c-2.2,2-5.4,3-9.6,3h-7.8v15.6h-2.4v-34.5c0-1.6,0.6-2.8,1.8-3.6
				c0.9-0.6,1.9-0.9,3.1-0.9h7.2c3.5,0,6.3,1.1,8.5,3.2C395.4,286.7,396.5,289.5,396.5,293z M394,293c0-2.9-0.8-5.2-2.4-6.9
				c-1.7-1.8-3.9-2.7-6.8-2.7h-7.5c-1.5,0.2-2.2,1-2.2,2.4v16.8h8.6c3.1,0,5.5-0.8,7.3-2.5C393,298.4,394,296.1,394,293z"/>
			<path class="st1" d="M377.6,279.8c-1.5,0-2.8,0.4-4,1.2c-1.6,1.1-2.4,2.8-2.4,4.9v36h5.5c0,0,0-13.1,0-15.6c2,0,6.3,0,6.3,0
				c4.5,0,8.1-1.1,10.6-3.4c3-2.6,4.4-6,4.4-9.9c0-3.9-1.2-7.1-3.7-9.6c-2.4-2.4-5.6-3.6-9.6-3.6H377.6z M374.3,285.9
				c0-1.4,0.6-2,1.1-2.4c0.6-0.4,1.4-0.7,2.2-0.7h7.2c3.1,0,5.5,0.9,7.4,2.7c1.9,1.8,2.8,4.3,2.8,7.4c0,3.1-1.1,5.6-3.4,7.6
				c-1.9,1.7-4.8,2.6-8.6,2.6c0,0-8.2,0-8.7,0C374.3,294.6,374.3,285.9,374.3,285.9z"/>
			<path class="st1" d="M377.2,281.9l-0.1,0c-2.2,0.3-3.5,1.7-3.5,3.9v18.3h10.2c3.4,0,6.2-1,8.3-2.9c2.2-2,3.4-4.8,3.4-8.3
				c0-3.3-0.9-6-2.8-8c-2-2.1-4.6-3.1-7.9-3.1H377.2z M384.8,285c2.4,0,4.3,0.7,5.7,2.2c1.3,1.4,2,3.4,2,5.9c0,2.6-0.8,4.5-2.4,6
				c-1.5,1.4-3.6,2.1-6.3,2.1c0,0-5,0-7.1,0c0-2.5,0-15.3,0-15.3c0-0.4,0-0.7,0.8-0.8C377.8,285,384.8,285,384.8,285z"/>
		</g>
		<g>
			<path class="st1" d="M438.4,320.3H436v-35.9c0-0.6-0.2-0.9-0.6-0.9c-0.3,0-0.6,0.3-0.8,0.9L425,317c-0.7,2.3-1.7,3.5-3.2,3.5
				c-1.4,0-2.5-1.2-3.2-3.5l-9.6-32.5c-0.2-0.6-0.4-0.9-0.8-0.9c-0.4,0-0.6,0.3-0.6,0.9v36h-2.4v-35.9c0-2,1-3,3-3
				c1.6,0,2.6,0.9,3.1,2.6l9.8,33c0.2,0.6,0.4,0.9,0.6,0.9c0.2,0,0.4-0.3,0.6-0.9l9.9-33.1c0.5-1.7,1.6-2.6,3.2-2.6
				c1.9,0,2.9,1,2.9,3V320.3z"/>
			<path class="st1" d="M430.8,283.6c0,0-7.6,25.5-9,30.2c-1.4-4.8-9-30.2-9-30.2c-0.7-2.4-2.3-3.7-4.6-3.7c-2.8,0-4.5,1.7-4.5,4.6
				V322h5.5c0,0,0-23.2,0-31.5c2.3,7.6,8,27,8,27c1.1,3.8,3.1,4.6,4.6,4.6c1.5,0,3.5-0.8,4.6-4.6c0,0,5.7-19.3,8-26.9
				c0,8.4,0,31.4,0,31.4h5.5v-37.4c0-2.8-1.7-4.6-4.5-4.6C433.2,280,431.5,281.3,430.8,283.6z"/>
		</g>
	</g>
	<g>
		<path class="st2" d="M285.6,281.3c-5.7,0-10.3,4.6-10.3,10.3v21.4c0,5.7,4.6,10.3,10.3,10.3H307c5.7,0,10.3-4.6,10.3-10.3v-21.4
			c0-5.7-4.6-10.3-10.3-10.3H285.6z M284.7,312.9v-21.4c0-0.5,0.4-0.9,0.9-0.9H307c0.5,0,0.9,0.4,0.9,0.9v21.4
			c0,0.5-0.4,0.9-0.9,0.9h-21.4C285.1,313.9,284.7,313.4,284.7,312.9z"/>
	</g>
	<linearGradient id="SVGID_1_" gradientUnits="userSpaceOnUse" x1="310.3808" y1="280.4561" x2="310.3808" y2="312.0869">
		<stop  offset="0.2" style="stop-color:#C10403"/>
		<stop  offset="1" style="stop-color:#EC1A25"/>
	</linearGradient>
	<path class="st3" d="M316.5,312.1v-21.4c0-5.7-4.6-10.3-10.3-10.3l-2,4.6l2,4.7c0.5,0,0.9,0.4,0.9,0.9v21.4H316.5z"/>
	<linearGradient id="SVGID_2_" gradientUnits="userSpaceOnUse" x1="316.3164" y1="316.1851" x2="284.6846" y2="316.1851">
		<stop  offset="0.2" style="stop-color:#2A496C"/>
		<stop  offset="1" style="stop-color:#668BB3"/>
	</linearGradient>
	<path class="st4" d="M284.7,322.3H306c5.7,0,10.3-4.6,10.3-10.3l-4.5-1.9L307,312c0,0.5-0.4,0.9-0.9,0.9h-21.4V322.3z"/>
	<linearGradient id="SVGID_3_" gradientUnits="userSpaceOnUse" x1="280.5849" y1="322.3545" x2="280.5849" y2="290.7217">
		<stop  offset="0.2" style="stop-color:#C10403"/>
		<stop  offset="1" style="stop-color:#EC1A25"/>
	</linearGradient>
	<path class="st5" d="M274.5,290.7v21.4c0,5.7,4.6,10.3,10.3,10.3l1.9-4.7l-1.9-4.6c-0.5,0-0.9-0.4-0.9-0.9v-21.4H274.5z"/>
	<linearGradient id="SVGID_4_" gradientUnits="userSpaceOnUse" x1="274.416" y1="286.3125" x2="306.0479" y2="286.3125">
		<stop  offset="0.2" style="stop-color:#2A496C"/>
		<stop  offset="1" style="stop-color:#668BB3"/>
	</linearGradient>
	<path class="st6" d="M304.2,284.8l1.9-4.5h-21.4c-5.7,0-10.3,4.6-10.3,10.3l4.8,1.9l4.6-1.9c0-0.5,0.4-0.9,0.9-0.9H306L304.2,284.8
		z"/>
</g>
</svg>
