<?xml version="1.0" encoding="utf-8"?>
<!-- Generator: Adobe Illustrator 16.0.0, SVG Export Plug-In . SVG Version: 6.00 Build 0)  -->
<!DOCTYPE svg PUBLIC "-//W3C//DTD SVG 1.1//EN" "http://www.w3.org/Graphics/SVG/1.1/DTD/svg11.dtd">
<svg version="1.1" id="Layer_1" xmlns="http://www.w3.org/2000/svg" xmlns:xlink="http://www.w3.org/1999/xlink" x="0px" y="0px"
	 width="230px" height="38.514px" viewBox="21.746 3.642 230 38.514" enable-background="new 21.746 3.642 230 38.514"
	 xml:space="preserve">
<g>
	<g>
		<path fill="#E18A39" d="M91.876,12.685v-0.049c0-4.944,3.701-8.994,8.969-8.994c3.207,0,5.143,1.119,6.808,2.708L105.69,8.61
			c-1.391-1.292-2.882-2.162-4.87-2.162c-3.304,0-5.738,2.733-5.738,6.137v0.049c0,3.404,2.409,6.162,5.738,6.162
			c2.138,0,3.503-0.844,4.995-2.236l1.963,1.987c-1.814,1.889-3.802,3.082-7.057,3.082C95.653,21.631,91.876,17.68,91.876,12.685"/>
		<path fill="#E18A39" d="M108.226,12.685v-0.049c0-4.895,3.776-8.994,9.118-8.994s9.07,4.05,9.07,8.945v0.049
			c0,4.895-3.777,8.994-9.119,8.994C111.952,21.631,108.226,17.581,108.226,12.685 M123.207,12.685v-0.049
			c0-3.379-2.459-6.187-5.913-6.187c-3.454,0-5.864,2.758-5.864,6.137v0.049c0,3.379,2.46,6.162,5.913,6.162
			C120.798,18.797,123.207,16.064,123.207,12.685"/>
		<polygon fill="#E18A39" points="128.625,3.939 131.682,3.939 131.682,18.549 140.825,18.549 140.825,21.333 128.625,21.333 		"/>
		<polygon fill="#E18A39" points="142.513,3.939 145.57,3.939 145.57,18.549 154.713,18.549 154.713,21.333 142.513,21.333 		"/>
		<path fill="#E18A39" d="M162.565,3.815h2.832l7.654,17.517h-3.231l-1.764-4.199h-8.224l-1.789,4.199h-3.131L162.565,3.815z
			 M166.938,14.425l-3.006-6.956l-2.982,6.956H166.938z"/>
		<path fill="#E18A39" d="M174.542,3.94h7.801c1.988,0,3.554,0.546,4.547,1.54c0.771,0.771,1.169,1.715,1.169,2.883v0.049
			c0,2.087-1.193,3.206-2.484,3.876c2.036,0.696,3.452,1.864,3.452,4.225v0.049c0,3.106-2.559,4.771-6.435,4.771h-8.05V3.94z
			 M185.002,8.86c0-1.367-1.095-2.212-3.058-2.212h-4.396v4.622h4.174c1.963,0,3.28-0.771,3.28-2.36V8.86L185.002,8.86z
			 M182.393,13.854h-4.845v4.771h5.068c2.086,0,3.354-0.82,3.354-2.385v-0.05C185.971,14.723,184.804,13.854,182.393,13.854"/>
		<polygon fill="#0C2343" points="190.991,3.939 193.823,3.939 203.139,15.965 203.139,3.939 206.147,3.939 206.147,21.333 
			203.588,21.333 193.997,8.959 193.997,21.333 190.991,21.333 		"/>
		<polygon fill="#0C2343" points="209.128,3.939 222.024,3.939 222.024,6.673 212.184,6.673 212.184,11.194 220.906,11.194 
			220.906,13.927 212.184,13.927 212.184,18.599 222.148,18.599 222.148,21.333 209.128,21.333 		"/>
		<polygon fill="#0C2343" points="228.558,6.772 223.042,6.772 223.042,3.939 237.156,3.939 237.156,6.772 231.639,6.772 
			231.639,21.333 228.558,21.333 		"/>
		<polygon fill="#802245" points="92.128,24.466 95.508,24.466 100.75,37.832 105.968,24.466 109.272,24.466 102.068,41.981 
			99.359,41.981 		"/>
		<polygon fill="#802245" points="110.765,24.466 123.66,24.466 123.66,27.198 113.82,27.198 113.82,31.721 122.541,31.721 
			122.541,34.453 113.82,34.453 113.82,39.125 123.783,39.125 123.783,41.858 110.765,41.858 		"/>
		<path fill="#802245" d="M125.921,24.466h7.752c2.188,0,3.902,0.646,5.02,1.738c0.919,0.944,1.441,2.236,1.441,3.752v0.05
			c0,2.857-1.715,4.572-4.124,5.268l4.694,6.585h-3.626l-4.274-6.063h-3.826v6.063h-3.057L125.921,24.466L125.921,24.466z
			 M133.45,33.087c2.187,0,3.578-1.144,3.578-2.907v-0.049c0-1.864-1.342-2.883-3.603-2.883h-4.447v5.839H133.45L133.45,33.087z"/>
		<path fill="#802245" d="M141.227,39.323l1.839-2.187c1.664,1.441,3.354,2.261,5.49,2.261c1.889,0,3.081-0.895,3.081-2.187V37.16
			c0-1.243-0.696-1.912-3.926-2.659c-3.702-0.894-5.789-1.986-5.789-5.191v-0.052c0-2.98,2.484-5.043,5.938-5.043
			c2.536,0,4.548,0.771,6.313,2.188l-1.641,2.311c-1.565-1.169-3.13-1.789-4.721-1.789c-1.788,0-2.831,0.919-2.831,2.062v0.05
			c0,1.343,0.795,1.938,4.149,2.732c3.678,0.896,5.564,2.213,5.564,5.095v0.05c0,3.256-2.559,5.194-6.21,5.194
			C145.823,42.106,143.314,41.187,141.227,39.323"/>
		<rect x="156.981" y="24.466" fill="#802245" width="3.056" height="17.393"/>
		<path fill="#802245" d="M162.42,33.211v-0.05c0-4.895,3.777-8.995,9.119-8.995c5.343,0,9.068,4.051,9.068,8.945v0.05
			c0,4.895-3.775,8.994-9.118,8.994C166.148,42.155,162.42,38.104,162.42,33.211 M177.405,33.211v-0.05
			c0-3.38-2.462-6.187-5.914-6.187c-3.453,0-5.865,2.759-5.865,6.137v0.05c0,3.379,2.461,6.162,5.914,6.162
			C174.994,39.323,177.405,36.591,177.405,33.211"/>
		<polygon fill="#802245" points="182.821,24.466 185.653,24.466 194.97,36.49 194.97,24.466 197.977,24.466 197.977,41.858 
			195.418,41.858 185.827,29.483 185.827,41.858 182.821,41.858 		"/>
		<path fill="#0C2343" d="M200.189,33.211v-0.05c0-4.895,3.776-8.995,9.119-8.995s9.068,4.051,9.068,8.945v0.05
			c0,4.895-3.776,8.994-9.118,8.994C203.916,42.155,200.189,38.104,200.189,33.211 M215.17,33.211v-0.05
			c0-3.38-2.459-6.187-5.912-6.187c-3.454,0-5.865,2.759-5.865,6.137v0.05c0,3.379,2.461,6.162,5.914,6.162
			S215.17,36.591,215.17,33.211"/>
		<polygon fill="#0C2343" points="220.588,24.466 223.421,24.466 232.739,36.49 232.739,24.466 235.745,24.466 235.745,41.858 
			233.185,41.858 223.595,29.483 223.595,41.858 220.588,41.858 		"/>
		<polygon fill="#0C2343" points="238.727,24.466 251.623,24.466 251.623,27.198 241.783,27.198 241.783,31.721 250.504,31.721 
			250.504,34.453 241.783,34.453 241.783,39.125 251.746,39.125 251.746,41.858 238.727,41.858 		"/>
	</g>
	<g>
		<path fill="#E38B39" d="M59.932,32.2c0,0-6.903,5.136-13.607,2.101c-4.976-2.315-6.776-6.46-6.776-6.46s-5.738,3.666-11.299-0.349
			c-3.422-2.365-3.1-7.381-1.326-9.986c1.774-2.605,6.071-5.416,14.148-0.441l-1.388,1.962l8.568,1.308l-3.991-7.962l-1.121,1.61
			c0,0-10.538-8.312-18.731,0.067c-3.5,3.462-3.019,8.705-1.56,11.415c1.455,2.709,6.309,6.929,13.784,4.402
			C36.631,29.869,45.218,44.629,59.932,32.2"/>
		<path fill="#802245" d="M38.757,9.918c0,0,6.902-5.135,13.611-2.098c4.974,2.314,6.774,6.458,6.774,6.458
			s5.738-3.667,11.299,0.349c3.425,2.366,3.102,7.379,1.325,9.983c-1.773,2.607-6.067,5.419-14.145,0.445l0.896-2.226l-8.08-1.048
			l4.236,8.086l0.879-1.729c0,0,10.534,8.31,18.733-0.07c3.494-3.461,3.012-8.705,1.557-11.411
			c-1.454-2.71-6.308-6.928-13.783-4.405C62.061,12.252,53.472-2.505,38.757,9.918"/>
	</g>
</g>
</svg>
