<svg id="Layer_1" data-name="Layer 1" xmlns="http://www.w3.org/2000/svg" viewBox="0 0 568.95 500.5"><defs><style>.cls-1,.cls-2,.cls-8{fill:#00aeef;}.cls-1,.cls-5,.cls-6{stroke:#231f20;}.cls-1,.cls-2,.cls-3,.cls-4,.cls-5,.cls-6,.cls-7{stroke-miterlimit:10;}.cls-2,.cls-3,.cls-7{stroke:#fff;}.cls-3{fill:#fff;}.cls-4{fill:#d1d3d4;stroke:#d1d3d4;}.cls-5{fill:none;}.cls-6{fill:#231f20;}.cls-7{fill:#f1f2f2;}</style></defs><title>xcode</title><path class="cls-1" d="M490.75,235.11l58,339.24-177.3,27.48h-4.9" transform="translate(-3.77 -154.99)"/><path class="cls-1" d="M298.58,613l-2.24.45L64.62,647.29,4.35,278.37,413.14,218a71.52,71.52,0,0,1,5.41,29.15" transform="translate(-3.77 -154.99)"/><polyline class="cls-2" points="471.15 97.76 517.83 372.99 518.27 375.28 523.99 405.02 367.88 428.14 390.4 343.86 409.37 271.32 434.67 176.57 444.28 146.11 450.08 130.21 455.48 118.37 463.17 106.08 469.53 97.76 471.15 97.76"/><path class="cls-2" d="M391.1,364.05l16.21-54.23,9.44-36.45s8.41-42-11.19-33.64-378,55.81-378,55.81L77.3,594.83l240.92-34.71L365.6,432.66l-6.43,2.24L241.69,303c-10.06-4.9-3.54-16.59-3.54-16.59a176.34,176.34,0,0,0,16.59-11.15c8.16-6.25,14.69,4.9,14.69,4.9L378,399.24" transform="translate(-3.77 -154.99)"/><polyline class="cls-2" points="409.73 269.93 455.18 264.29 450.53 232.5 418.59 235.75"/><path class="cls-3" d="M465.31,543.71l-3.11,2.76,3.11,1.11,1.76-1.41Z" transform="translate(-3.77 -154.99)"/><polygon class="cls-3" points="479.24 384.67 484 384.4 484.27 387.52 482.84 387.74 479.24 384.67"/><path class="cls-3" d="M483.57,540.83l2.52,17.75V560h7.67s9.65-4.75,5.48-11.86c0,0,1.1-7.54-5.91-8.2s-5.05,0-5.05,0l.22,2.2s10.31,0,8,6l.11,5.94s-6,4.39-7.56,2.74S486.31,543,486.31,543Z" transform="translate(-3.77 -154.99)"/><path class="cls-3" d="M493.33,540" transform="translate(-3.77 -154.99)"/><path class="cls-3" d="M506.26,555.69l.43,2.19,12.3-2.19s1.9-3.43-.77-3.1a61.57,61.57,0,0,1-8.24,0l-.19-3.27,7.86-2.81s2.62-2.14-.76-2.62a67.68,67.68,0,0,0-9.15-.24l-.14-3.14,9.15-.29-.15-5.43-12.77,2.58" transform="translate(-3.77 -154.99)"/><polygon class="cls-2" points="314.45 405.13 73.53 439.83 78.15 472.47 301.46 440.09 314.45 405.13"/><path class="cls-3" d="M465.31,543.71s7.86-5.57,11.5.68,3.64,16.68-.7,17.27-12.91,1.47-12.91-3.08a92.78,92.78,0,0,0-1.07-11.35l3.18.35s-1.05,12.5,2.94,11c0,0,11,3.32,7.5-6,0,0,.52-7-5-7.39,0,0-4-.36-3.72.93S465.31,543.71,465.31,543.71Z" transform="translate(-3.77 -154.99)"/><path class="cls-4" d="M391.1,364.05c-.74-1.26-.06-2.69,1.35-6.21,1.77-4.44,2.71-9.22,4.85-13.49,1.24-2.46,2.13-4.81,7.29-24.29,8.33-31.41,12.5-47.12,12.9-50.32,1.74-13.67,6.2-46.86-13.27-66C387.52,187.28,355.41,181.1,333,188c-5.43,1.67-18.74,6.72-21.56,2.71-1.22-1.73-.51-4.66.54-6.47,3.24-5.55,12.87-6.2,12.95-5.93s-11.5,1.67-12.68,1.08a2.64,2.64,0,0,1-.4-.93,5.23,5.23,0,0,1,.13-2.85c.69-2.11,27.11-21.15,73.06-20l5.38.13c8.2.21,12.3.31,16,.37,7.48.13,11.23.19,15.17.09,5.39-.15,9.79-.48,12.7-.74l37.55,9c2.77.71,6.85,1.76,11.79,3.1,6.77,1.84,10.18,2.78,11.49,3.46,7,3.64,6.21,7.64,13.36,14.17,3.17,2.9,7.8,5.63,15.33,7.51,3,.76,14.66,4.19,18-.21.7-.92,1.18-2.37,2.87-3.22a6.82,6.82,0,0,1,4.65-.31c11.08,2.49,16.62,3.73,22.8,6.07,0,0-13.67,55.37-16.34,59.7s-27-4.67-27-4.67-7.34-15.34-19-17-19,2-19,2a138.84,138.84,0,0,0-28.68,33.35c-4.77,7.79-9.47,17.27-20,51.06-4.29,13.82-9.78,32.44-15.51,54.83-5.19-2-9.86-3.7-13.9-5.17s-6-2.17-7-2.43C397.22,364.65,392.53,366.51,391.1,364.05Z" transform="translate(-3.77 -154.99)"/><path class="cls-5" d="M439.55,566.73" transform="translate(-3.77 -154.99)"/><path class="cls-5" d="M427,566.73" transform="translate(-3.77 -154.99)"/><polygon class="cls-2" points="97.43 284.56 165.7 274.06 153.58 308.39 102.27 316.47 97.43 284.56"/><polygon class="cls-2" points="229.12 265.95 318.4 252.24 343.44 277.87 214.58 299.91 229.12 265.95"/><path class="cls-2" d="M211.88,354.72l33.53,11.72,10.1-23s2.43-2.83-2.83-8.89-24.23-6.46-24.23-6.46-7.28,2-7.68,5.25S211.88,354.72,211.88,354.72Z" transform="translate(-3.77 -154.99)"/><polygon class="cls-2" points="204.97 209.83 144.69 350 179.03 362.12 239.62 219.93 204.97 209.83"/><polygon class="cls-2" points="141.06 359.3 134.19 418.27 174.58 370.2 141.06 359.3"/><path class="cls-5" d="M55.14,614" transform="translate(-3.77 -154.99)"/><path class="cls-5" d="M320.88,207.16" transform="translate(-3.77 -154.99)"/><path class="cls-5" d="M297.42,188.82" transform="translate(-3.77 -154.99)"/><path class="cls-5" d="M381.11,322.22" transform="translate(-3.77 -154.99)"/><path class="cls-5" d="M396.06,343.75" transform="translate(-3.77 -154.99)"/><path class="cls-5" d="M426.59,374.35" transform="translate(-3.77 -154.99)"/><path class="cls-5" d="M445.29,387.49" transform="translate(-3.77 -154.99)"/><path class="cls-6" d="M294.22,627s-1.94,15,12.25,20.25,20.4,6.85,20.4,6.85,19.43,4.86,26.45-8.63,73.27-271.16,73.27-271.16l-35.49-10.3-95,255.65Z" transform="translate(-3.77 -154.99)"/><path class="cls-2" d="M377.93,629.37" transform="translate(-3.77 -154.99)"/><path class="cls-2" d="M441.14,622.33" transform="translate(-3.77 -154.99)"/><polygon class="cls-3" points="421.39 409.88 424.61 404.7 417.38 396.51 420 394.64 426.44 400.91 432.14 393.16 433.88 395.64 429.36 402.35 436.58 409.62 434.28 412.4 427.83 406.05 424.65 414.01 421.61 414.01 421.39 409.88"/><path class="cls-3" d="M458.4,550.6c-3.82-10.82-13.15-4.14-14.11-4.51s-2.76,3.66-2.76,3.66v6.1s-.21,9.71,6.79,10.61a12.46,12.46,0,0,0,10.93-4V557l-3.6.21v4.59a44.14,44.14,0,0,0-7.59,0c-3.5.37-3.08-3.61-3.08-3.61v-6.84c6.74-6.74,9.87,0,9.87,0Z" transform="translate(-3.77 -154.99)"/><path class="cls-7" d="M470.52,564.57" transform="translate(-3.77 -154.99)"/><path class="cls-2" d="M402.46,467.27l12.17-10.2s7.61-5.07,13.53,0,23.9,17.46,22.23,26.48c0,0,11.86,25.92,4.81,34.37,0,0,0,20.85-8.17,2.53,0,0-8.9-14.08-33.89-18.31L397.82,485" transform="translate(-3.77 -154.99)"/><polyline class="cls-2" points="401.79 300.41 415.35 290.47 406.48 282.42"/><path class="cls-3" d="M89.34,602.61l6.86.73s1.61-3.5,2.49-2.63,3.8-.14,3.8-.14a1.67,1.67,0,0,1,.58,2.77c-1.46,1.9-2,9.21,2.63,8.63s0,3.8,0,3.8-.73.29-1,2.33-8.33,1.32-8.33,1.32-1.75,4.09-7,1.31-3.51-5.11-3.51-5.11S80.28,606.85,89.34,602.61Z" transform="translate(-3.77 -154.99)"/><polygon class="cls-3" points="90.09 443.67 90.83 441.34 93.89 441.34 93.89 444.26 92.19 446.45 88.63 446.45 88.63 444.7 90.09 443.67"/><path class="cls-2" d="M474.92,250.83" transform="translate(-3.77 -154.99)"/><line class="cls-2" x1="376.87" y1="394.84" x2="518.27" y2="375.28"/><path class="cls-2" d="M365.6,432.66l-6.43,2.24L241.69,303s-8.88-4.17-3.54-16.59l16.59-11.15s7-4.4,12,1.47S378,399.24,378,399.24Z" transform="translate(-3.77 -154.99)"/><path class="cls-2" d="M50.61,224.07" transform="translate(-3.77 -154.99)"/><path class="cls-8" d="M478.54,271.07l-3.29-20.24s15.08-15.36,15.27-14.8" transform="translate(-3.77 -154.99)"/><polyline class="cls-8" points="470.74 98.55 470.43 97.35 469.81 98.28"/></svg>