<svg xmlns="http://www.w3.org/2000/svg" role="img" viewBox="5.24 5.24 37.42 39.42"><title>Android Studio logo</title><defs><linearGradient id="a" x1="25" x2="25" y1="1046.362" y2="1010.362" gradientUnits="userSpaceOnUse"><stop offset="0" stop-color="#3b962d"/><stop offset="1" stop-color="#93d169"/></linearGradient><linearGradient id="c" x1="24" x2="24" y1="1032.362" y2="1018.362" gradientUnits="userSpaceOnUse"><stop offset="0" stop-color="#272b2d"/><stop offset="1" stop-color="#3e4447"/></linearGradient><linearGradient id="b" x1="20" x2="38" y1="17" y2="35" gradientUnits="userSpaceOnUse"><stop offset="0"/><stop offset="1" stop-opacity="0"/></linearGradient><radialGradient id="d" cx="24" cy="1025.362" r="2" gradientTransform="matrix(1 0 0 .99987 0 .129)" gradientUnits="userSpaceOnUse"><stop offset="0" stop-color="#acacac"/><stop offset="1" stop-color="#cbcbcb"/></radialGradient></defs><g transform="translate(0 -1004.362)"><circle cx="24" cy="1028.362" r="18" fill="url(#a)"/><path fill="url(#b)" d="M26.01367 14.01953l-2.76758 5.01563-5.63476 13.59765-2.38672 7.0586.04297.04297A18 18 0 0 0 24 42a18 18 0 0 0 17.3164-13.1504z" opacity=".2" transform="translate(0 1004.362)"/><path d="M41.97852 1027.77606A18 18 0 0 1 24 1045.362a18 18 0 0 1-17.97852-17.41406A18 18 0 0 0 6 1028.362a18 18 0 0 0 18 18 18 18 0 0 0 18-18 18 18 0 0 0-.02148-.58594z" opacity=".15"/><path fill="#dcdcdc" d="M23.29808 1021.6314l-2.59808 1.5 13.50005 23.3828 2.79899 1.848-.20091-3.348z"/><path fill="#c3c3c3" d="M35 1026.3539c0 4.0083-1.19114 4.9591-2.64066 6.6529-.74919.8632-1.62867 1.5961-2.63844 2.1498-1.36807.7655-3.44804 1.189-5.12557 1.189-1.67752 0-3.25733-.4398-4.60912-1.189-.98621-.7944-2.98621 2.2056-1.66124 2.5989 1.85668 1.0424 4.00652 1.6067 6.28665 1.6067s4.93014-.5643 6.7868-1.6067c.9935-.5537 1.90555-1.2377 2.7036-2.0195 2.41041-2.3453 3.92507-5.7336 3.92507-9.3655-1.02844-.01-2.1151 0-3.02709-.01z"/><path fill="#c3c3c3" d="M24.70096 1021.6314l2.59808 1.5-13.50005 23.3828L11 1048.3622l.20091-3.348z"/><path fill="url(#c)" d="M27.1138 1021.3622H26v-3.0002h-4v3.0002h-1.13008c-1.02439 0-1.86992.8465-1.86992 1.8592v4.8955h.01628c-.01627.1608.08127.3377.29268.5466l3.75608 3.3129c.26016.2572.60163.3858.92683.3858v-.016l.01627.016c.34146 0 .68292-.1286.92682-.3858l3.75608-3.3129c.21139-.2089.29268-.4019.29268-.5466H29v-4.8794c-.01627-1.0287-.84553-1.8753-1.88617-1.8753z"/><path fill="url(#d)" d="M24.00652 1027.3622h-.01303c-1.09447 0-1.99349-.8902-1.99349-1.9867 0-1.0966.89902-1.9868 1.99348-1.9868v-.026l.01304.026c1.09447.013 1.99348.8902 1.99348 1.9868 0 1.0965-.89901 1.9738-1.99348 1.9867z"/></g></svg>