<svg xmlns="http://www.w3.org/2000/svg" role="img" viewBox="59.94 59.69 379.63 380.38"><title>Appium logo</title><style>svg {enable-background:new 0 0 500 500}</style><path fill="#00acd2" d="M355.1 103.3c-43.9-37.9-141-56.7-213.8-2.3C73 146.9 69.6 230.5 69.6 230.5c11.6 45.8 57.8 89.7 146.7 68.3-10.5-61.5 10.1-217.2 138.8-195.5z"/><path fill="#c8e9eb" d="M309.3 252.1c-48 39.9-194.2 100.7-239.7-21.6-10.9 57 19.3 151.7 102.8 187.6 73.8 36.2 150.7-5.7 150.7-5.7 33.8-33 49.2-94-13.8-160.3"/><path fill="#662d91" d="M222.6 196.2c58.5 21.7 183.7 115.6 100.5 216.1 54.8-19.1 119-92 108.2-182.2-5.5-82-76.3-126.8-76.3-126.8-45.4-12.8-106.5 5.3-132.4 92.9"/></svg>