<svg xmlns="http://www.w3.org/2000/svg" role="img" viewBox="-2.11 -1.99 103.35 26.48"><title>Cognos logo</title><g data-name="Layer 2"><path fill="#e12130" d="M65.51 7.71c.6-2.77 3.73-5.3 6.38-5.9 1.2-.12 2.65-.36 3.61.12zm26.25-6.02L95 6h-6.74c-.48 0-.72.36-.84.84a1.09 1.09 0 0 0 .72 1.33L93.8 11h-10a4.92 4.92 0 0 1-1.44-5 5.44 5.44 0 0 1 3.74-4 6.92 6.92 0 0 1 1.68-.36zm-26.98.24v6.26l-3.73 2.17-.96-.37V1.93h4.69zm-16.73 0h4.33l6.38 8.55-.24.48-5.3-.12-.84-1.09v1.21h-4.33V1.93zm16.73 9.03h-3.25l3.25-1.93v1.93zM27 11.68c0 2.05-.48 5.54-3.85 5.42h.12c-3.37.12-3.85-3.37-3.85-5.42h-4.7a13.29 13.29 0 0 0 1.57 6.26h-5.45c-.73 0-1.57-.12-2.41-.12-3.13-.36-3.25-6.14-3.25-6.14H0a12 12 0 0 0 2.77 8.07c1.93 2.25 4.58 2.77 7.47 2.89h6.38V18.3a10.42 10.42 0 0 0 1.68 1.57 8.17 8.17 0 0 0 8.43.6c3.25-1.56 4.7-4.94 4.82-8.31.6 5.66 2.89 9.27 11 8.79a39.44 39.44 0 0 0 4.93-2.89v-6.38H43V17h-1.1a7.51 7.51 0 0 1-3.37-.36c-2-.85-2.16-3.13-2.28-4.94zm25.38 3.61l-4.33 2.53v-6.14h4.33v3.61zm3.01-.84l3.49-2.05.6.24v8.31l-4.09-6.5zm5.06-1.81l4.33 2.65v5.66h-4.33v-8.31zm14.09 8.55a7.91 7.91 0 0 1-9-5.42zm-22.16-.24h-4.21v-2.29l4.21-2.4v4.69zm2.65-7.1l-1.2-2.17h4.81l-3.61 2.17zM9.87 0A12.13 12.13 0 0 0 5.3 1.08C1.57 3 .24 7 0 11h5.18a22.29 22.29 0 0 1 .48-3C6 6.38 7.35 4.58 8.79 4.58h7.83A12.36 12.36 0 0 0 14.69 11h4.7c.12-2.05.6-5.3 3.85-5.3h-.12c3.25 0 3.73 3.25 3.85 5.3h9.28a9.66 9.66 0 0 1 .48-3.25 3 3 0 0 1 2.53-2h7.22l-2.89-3.82c-3.61 0-7.83-.24-10.24 3a10.52 10.52 0 0 0-1.8 5.66A17.81 17.81 0 0 0 31 7.1a8.34 8.34 0 0 0-6.63-5.41 8.49 8.49 0 0 0-7.7 2.89c-1.21-1.45-2.29-3-3.49-4.58zm54.91 14.21L61.17 12v-.36h8.55c0 2.05.48 5.54 3.73 5.42 3.37.12 3.74-3.37 3.74-5.42H82a14.73 14.73 0 0 1-.84 4.58v.12H90a1.68 1.68 0 0 0 1-.85 1.12 1.12 0 0 0-.72-1.44c-1.68-.72-3.61-1.69-5.3-2.41h9.64a6.76 6.76 0 0 1 1.56 4.7C95 21.19 91 21 91 21H81v-4.5l-.12.36A8.56 8.56 0 0 1 75.86 21l-10.72-6.43C65 14.09 65 13.49 64.9 13zM77.19 11c0-2.05-.61-5.3-3.74-5.3s-3.73 3.21-3.73 5.3h-4.46a6.28 6.28 0 0 1 .13-2.29l11.19-6.42C81.76 4.33 82 10 82 11zm22.15-6.79a2.17 2.17 0 0 1-4.33 0 2.17 2.17 0 0 1 4.33 0m-3.85 0a1.69 1.69 0 1 0 3.37 0 1.69 1.69 0 1 0-3.37 0M97.18 4c.24 0 .36-.12.36-.24s-.12-.36-.49-.36h-.36V4zm.48 1.33l-.24-.36a.91.91 0 0 1-.24-.48.47.47 0 0 0-.37-.12h-.12v1h-.48V3h1.09c.48 0 .72.24.72.6a.78.78 0 0 1-.6.73c.24 0 .24.12.48.48l.24.48z" data-name="Layer 1"/></g></svg>