<svg xmlns="http://www.w3.org/2000/svg" role="img" xmlns:xlink="http://www.w3.org/1999/xlink" viewBox="-12.19 -12.19 633.88 168.88"><title>Docker logo</title><defs><clipPath id="a"><path d="M76 2v46H54v23H35.58074c-.07818.6657-.14149 1.33287-.20574 2-1.15116 12.53096 1.03642 24.08755 6.0625 33.96875L43.125 110c1.0114 1.81678 2.19124 3.52297 3.4375 5.1875 1.24473 1.66248 1.68572 2.58262 2.46875 3.6875C62.31991 133.81083 82.12947 141 105 141c50.64836 0 93.63299-22.43799 112.65625-72.84375C231.15302 69.54122 244.09968 66.08035 250 54.5625c-9.39863-5.42366-21.47837-3.68527-28.4375-.1875L240 2l-72 46h-23V2z"/></clipPath></defs><path fill="none" stroke="#394d54" stroke-linecap="round" stroke-linejoin="round" stroke-width="10.5" d="M467.82 113.24092l-.0422-25.55786-.12687-45.65718m25.85406 19.67617l-25.72712 25.981 25.85407 25.6425M321.28547 88.02157c.12417-5.48093-1.46904-11.08143-4.69689-15.614-4.65126-6.53131-12.17919-10.9904-20.43783-11.08635-.55059 0-1.09558 0-1.65026.04225-3.26481.2017-6.42662.65538-9.22453 1.81952-18.40057 7.656-21.66082 33.20796-6.13558 44.76857 13.44474 10.0114 33.00155 5.92365 39.77549-9.35147 1.43144-3.22788 2.3696-7.29713 2.3696-10.57855V41.8143M445.437 64.36785c-3.80993-2.4618-8.25456-3.34994-12.65199-3.34283-.47683 0-.96708.02383-1.39637.04225-12.71288.54677-24.50001 9.53035-24.50001 26.95424 0 20.6003 22.08809 31.71844 38.59069 22.00346m74.13473-2.24266c13.00207-11.1375 39.05614-33.47058 39.05614-33.47058s-.94989-1.79715-1.56563-2.6235c-5.25739-7.0555-13.28929-10.5786-21.74957-10.57862-20.90871 0-36.58155 27.0365-15.74094 46.6727 1.44301 1.3596 3.42523 2.42453 5.62781 3.34283 7.64747 3.18836 18.11655 2.92685 23.78066-1.26943M364.02 61.19427c-.59271.01083-1.18194.07366-1.7772.08463-15.85475.29136-27.28615 16.75918-23.82298 32.03197 3.37478 14.88296 19.63403 23.69588 33.68222 18.82988 16.35859-4.28927 23.03061-24.88876 14.04836-38.80225-4.9126-7.60964-13.23925-12.3132-22.1304-12.14422zm240.72631.50778c-6.42012.0172-12.67273 2.26581-17.30656 6.60104-7.30767 6.03131-8.89448 13.6474-8.80139 23.2729l.21157 21.87652"/><path fill="#394d54" d="M147.4876 45.732h22.866v23.37473h11.56177c5.33905 0 10.83073-.95117 15.887-2.66444 2.48448-.84244 5.27317-2.01479 7.72392-3.4892-3.22785-4.21436-4.87579-9.53574-5.36101-14.78106-.65874-7.13426.78032-16.42042 5.60897-22.00422l2.40362-2.78011 2.8642 2.30239c7.21138 5.79374 13.27612 13.88934 14.3451 23.11819 8.68312-2.55411 18.87759-1.95 26.53135 2.46735l3.14002 1.81182-1.65276 3.2257c-6.47289 12.63337-20.00501 16.54675-33.23507 15.85426C200.37356 121.4758 157.2729 144.82 105.01356 144.82c-26.9989 0-51.76984-10.09272-65.87555-34.04693-.82702-1.48798-1.53524-3.0439-2.28633-4.57212-4.76813-10.5442-6.3518-22.09526-5.27745-33.63668l.3224-3.45707h19.55294V45.73246h22.866v-22.866h45.732V.00047h27.43967v45.732"/><g clip-path="url(#a)"><g id="d"><g id="c" transform="translate(0 -22.866)"><path fill="#00acd3" d="M123.85901 3.81108h19.81751v19.81697h-19.81751z"/><path fill="#20c2ef" d="M123.85901 26.67648h19.81751v19.81805h-19.81751z"/><path id="b" stroke="#394d54" stroke-width="1.56" d="M126.29235 21.9769V5.46115m2.97185 16.51575V5.46115m3.00184 16.51575V5.46115m3.00344 16.51575V5.46115m3.00292 16.51575V5.46115m2.97131 16.51575V5.46115"/><use transform="translate(0 22.866)" xlink:href="#b"/></g><use transform="matrix(1 0 0 -1 22.866 4.573)" xlink:href="#c"/></g><use transform="translate(-91.464 45.732)" xlink:href="#d"/><use transform="translate(-45.732 45.732)" xlink:href="#d"/><use transform="translate(0 45.732)" xlink:href="#d"/></g><path fill="#17b5eb" d="M221.57014 54.37965c1.53332-11.91525-7.38383-21.27478-12.91407-25.71836-6.37269 7.36776-7.36295 26.67755 2.63498 34.80743-5.57952 4.95612-17.33731 9.44844-29.37574 9.44844H34C32.82926 85.48417 34 146 34 146h217l-.98657-91.424c-9.39863-5.42367-21.48419-3.69433-28.44332-.19655" clip-path="url(#a)"/><path fill-opacity=".17" d="M34 89v57h217V89" clip-path="url(#a)"/><path fill="#d4edf1" d="M111.23736 140.88997c-13.53962-6.42517-20.97165-15.15916-25.10675-24.69435L45 118l21 28 45.23736-5.11003" clip-path="url(#a)"/><path fill-opacity=".085" d="M222.5 53.9375v.03125c-20.86119 26.88914-50.78312 50.37872-82.90625 62.71875-28.65478 11.00767-53.63838 11.06039-70.875 2.21875-1.85607-1.04832-3.6757-2.21152-5.5-3.3125-12.63665-8.832-19.75448-23.44144-19.15625-42.6875H34V146h217V50h-25z" clip-path="url(#a)"/><path fill="none" stroke="#394d54" stroke-linecap="round" stroke-width="3.4" d="M45.625 117.03125c14.16515.77531 29.28245.91433 42.46875-3.21875"/><path fill="#d4edf1" d="M102.17024 106.95926c0 3.01898-2.44753 5.46651-5.4665 5.46651-3.01952 0-5.46759-2.44753-5.46759-5.46651 0-3.01897 2.44807-5.46758 5.46758-5.46758 3.01898 0 5.46651 2.44861 5.46651 5.46758z"/><path fill="#394d54" d="M98.12137 103.30778c-.47719.27582-.80013.79264-.80013 1.3839 0 .88261.71551 1.59706 1.59812 1.59706.60466 0 1.13005-.3358 1.40158-.83174.19173.4622.29831.96991.29831 1.50226 0 2.16208-1.7529 3.91498-3.91552 3.91498-2.16207 0-3.91605-1.7529-3.91605-3.91498 0-2.16314 1.75398-3.91658 3.91605-3.91658.50022 0 .9774.0943 1.41764.2651zM0 90.16234h254.32743c-5.53774-1.40478-17.521-3.30229-15.54477-10.55973-10.06915 11.65175-34.35274 8.17433-40.4812 2.42879-6.82471 9.8983-46.55451 6.13596-49.32553-1.5751-8.55565 10.04077-35.06718 10.04077-43.62336 0-2.77209 7.71106-42.50136 11.4734-49.3266 1.5751-6.12846 5.74554-30.4099 9.22296-40.48013-2.42879C17.52208 86.86005 5.53881 88.75756 0 90.16234"/></svg>