<svg xmlns="http://www.w3.org/2000/svg" role="img" viewBox="59.95 210.95 379.60 77.85"><title>EMC SRDF logo</title><style>svg {enable-background:new 0 0 500 500}</style><path fill="#007db8" d="M149.5 218.4l-32 24.6c-3.3-12.3-13.9-21.3-27.1-21.3h-23v56.6h23c13.1 0 24.6-9 27.1-21.3l32 24.6 32-24.6v21.3h36.1v-11.5h-23.8v-45.1h-13.1V243l-30.4 24.6-6.6-5.7 14.8-11.5 15.6-12.3-9-7.4-30.4 23.8-6.6-5.7 30.4-23-9-7.4zm-69.7 14.8h9.8c2.1 0 4.1.5 5.9 1.3 1.8.8 3.5 2.1 5 3.6 1.4 1.5 2.6 3.4 3.4 5.5.8 2.1 1.3 4.4 1.3 6.9 0 2.3-.4 4.5-1.2 6.5-.8 2-1.9 3.9-3.2 5.5-1.4 1.6-3.1 2.9-4.9 3.8-1.9.9-4 1.4-6.2 1.4h-9.8v-34.5zm178.8 33.6v11.5h-36.1v-56.6h13.1v45.1h23z"/><path fill="gray" d="M410.6 279.3c11.1 0 20.1-5.6 21.9-17.7l-.7-.7h-3.1l-.7.7c-1.7 8.7-7.3 13.5-17 13.5-12.1 0-20.8-9-20.8-25s9-25 20.8-25c9.7 0 15.3 4.9 17 12.8l.7.7h3.1l.7-.7c-1.7-11.1-10.4-17-21.9-17-13.5 0-25.7 9.7-25.7 28.8.1 19.9 12.2 29.6 25.7 29.6zm-35.4-1.7v-54.8l-.7-.7H369l-.7.7-20.8 48.9h-.7l-21.5-48.9-.7-.7H319l-.7.7v54.8l.7.7h3.1l.7-.7v-46.5h.7l20.1 46.5.7.7h4.2l.7-.7 20.1-46.5h1v46.5l.7.7h3.1l1.1-.7zm-67.6 0v-2.4l-.7-.7H277l-.7-.7V253l.7-.7h28.1l.7-.7v-2.8l-.7-.7H277l-.7-.7v-20.5l.7-.7h29.8l.7-.7v-2.8l-.7-.7h-34.7l-.7.7v54.8l.7.7h34.7l.8-.6z"/></svg>