<svg xmlns="http://www.w3.org/2000/svg" role="img" viewBox="-12.23 -12.23 635.96 635.96"><title>Fortify logo</title><style>svg {enable-background:new 0 0 612 612}</style><style>.st1{fill:#fff}</style><path fill="#00abf3" d="M0 0h612v612H0z"/><path fill="#FFF" d="M491 121H243.2c-11.1 0-22.1 1.3-32.9 4.2-16.8 4.6-31.9 12.4-45.4 23.5-9.5 7.9-17.6 17-24.4 27.4-7.2 11.1-12.4 23-15.7 35.8-2.7 10.5-3.7 21.2-3.7 32.1v247h249.8c8.9 0 17.7-1 26.4-3.1 13.8-3.2 26.7-8.6 38.6-16.4 14.2-9.2 25.9-20.9 35.2-35 13.5-20.5 19.9-43.2 19.9-67.7V250.7 121zm-53.4 64.4c0 61.7 0 123.3-.1 185 0 11.2-2.6 21.8-8 31.6-9 16.4-22.5 27.4-40.4 32.9-6.2 1.9-12.7 2.7-19.3 2.7H174.2v-11c0-61.8-.1-123.7 0-185.5 0-16.1 5.5-30.4 15.8-42.7 8.8-10.4 19.8-17.6 32.9-21.4 5.8-1.7 11.7-2.6 17.8-2.6h196.7l.2 11z" class="st1"/><path fill="#FFF" d="M260.6 242.8h162.5v-53.6H251v.1h-8.1c-18.5 0-32.9 8.2-43.1 23.5-5.6 8.4-8.1 17.9-8.1 28v183.5h53.6v-90.8h144.4V280h-144c-.4-.3-.5-.8-.5-1.7.1-5.7 0-11.4 0-17.1 0-10.1 6-17.1 15.4-18.4z" class="st1"/></svg>