<svg xmlns="http://www.w3.org/2000/svg" role="img" viewBox="-1.28 -1.28 66.43 66.43"><title>IntelliJ IDEA logo</title><defs><linearGradient id="a" x1="0%" x2="99.799%" y1="50%" y2="50%"><stop offset="26%" stop-color="#F97A12"/><stop offset="46%" stop-color="#B07B58"/><stop offset="72%" stop-color="#577BAE"/><stop offset="91%" stop-color="#1E7CE5"/><stop offset="100%" stop-color="#087CFA"/></linearGradient><linearGradient id="b" x1=".345%" x2="121.182%" y1="34.54%" y2="77.619%"><stop offset="0%" stop-color="#F97A12"/><stop offset="7%" stop-color="#CB7A3E"/><stop offset="15%" stop-color="#9E7B6A"/><stop offset="24%" stop-color="#757B91"/><stop offset="33%" stop-color="#537BB1"/><stop offset="43%" stop-color="#387CCC"/><stop offset="54%" stop-color="#237CE0"/><stop offset="66%" stop-color="#147CEF"/><stop offset="79%" stop-color="#0B7CF7"/><stop offset="100%" stop-color="#087CFA"/></linearGradient><linearGradient id="c" x1="78.169%" x2="30.106%" y1="97.749%" y2="-6.624%"><stop offset="0%" stop-color="#FE315D"/><stop offset="8%" stop-color="#CB417E"/><stop offset="16%" stop-color="#9E4E9B"/><stop offset="25%" stop-color="#755BB4"/><stop offset="34%" stop-color="#5365CA"/><stop offset="44%" stop-color="#386DDB"/><stop offset="54%" stop-color="#2374E9"/><stop offset="66%" stop-color="#1478F3"/><stop offset="79%" stop-color="#0B7BF8"/><stop offset="100%" stop-color="#087CFA"/></linearGradient><linearGradient id="d" x1="20%" x2="103.422%" y1="24.087%" y2="132.676%"><stop offset="0%" stop-color="#FE315D"/><stop offset="4%" stop-color="#F63462"/><stop offset="10%" stop-color="#DF3A71"/><stop offset="17%" stop-color="#C24383"/><stop offset="29%" stop-color="#AD4A91"/><stop offset="55%" stop-color="#755BB4"/><stop offset="92%" stop-color="#1D76ED"/><stop offset="100%" stop-color="#087CFA"/></linearGradient></defs><g fill="none" fill-rule="evenodd"><path fill="url(#a)" d="M16.2 49.9L.7 37.7l7.7-14.3L30.5 32z"/><path fill="url(#b)" d="M64 17.1l-1.2 37L38.2 64l-14.8-9.6L45 32l-9.4-20.8L44.1 1z"/><path fill="url(#c)" d="M64 17.1l-19.5 23-8.9-28.9L44.1 1z"/><path fill="url(#d)" d="M30.8 53.1L5.2 62.4 9.3 48l5.3-17.8L0 25.3 9.3 0l20 2.4L49.1 25z"/><path fill="#000" d="M12 12h40v40H12z"/><path d="M15.8 44.5h15V47h-15zm10.7-24.3v-3h-8.2v3h2.3v10.5h-2.3v3.1h8.2v-3.1h-2.3V20.2zm8 13.8a6.71 6.71 0 0 1-3.3-.7 7.87 7.87 0 0 1-2.2-1.8l2.3-2.6a7.47 7.47 0 0 0 1.4 1.2 2.93 2.93 0 0 0 1.6.4c.61653.04712 1.21617-.21522 1.6-.7a2.93 2.93 0 0 0 .6-2.1V17h3.7v10.8a6.77 6.77 0 0 1-.4 2.6 5 5 0 0 1-1.4 2.2 7.15 7.15 0 0 1-3.9 1.4" fill="#FFF"/></g></svg>