<svg xmlns="http://www.w3.org/2000/svg" role="img" viewBox="5.36 6.61 314.04 436.54"><title>Java 5 logo</title><path fill="#EFC725" d="M40.845 401.254L13.775 97.632h297.45l-27.098 303.573-121.809 33.77z"/><path fill="#FBDE34" d="M162.25 408.787l98.428-27.287 23.158-259.417H162.25z"/><path fill="#EBEBEB" d="M162.193 331.426l-.162.047-41.472-11.201-2.653-29.697H80.527l5.217 58.468 76.277 21.176.172-.049zm5.016-59.489V234.7h-45.854l5.377-58.442 40.58-1.081-.103-38.723H93.065l-2.754 27.449-8.752 98.035-.908 9.999h10.035z"/><path fill="#FFF" d="M166.957 175.229l.163-.046 40.671 2.449 3.451 38.447h37.381l-6.514-71.946-74.98-7.696-.172.048z"/><path fill="#FFF" d="M244.784 175.343l-3.191-38.889H162.99v38.889h81.794m-82.72 59.375v37.236h45.854l-4.322 48.293-41.532 11.212v38.742l76.34-21.158.559-6.291 8.752-98.035.908-9.999h-10.035z"/><path fill="#151515" d="M214.945 30.571h-24.689l25.676 27.86v13.26h-52.883V56.165h25.67l-25.67-27.859V15.025h51.896v15.546z"/><path fill="#020202" d="M153.631 15.05v56.617h-45.543V52.953h26.613V15.05h18.93z"/></svg>