<svg xmlns="http://www.w3.org/2000/svg" role="img" viewBox="-15.84 -15.84 823.68 119.18"><title>Microsoft Server 2019 logo</title><style>svg {fill:#0078d6}</style><path fill="#00188f" d="M0 12.49l35.7-4.9v34.5H0M40 6.91L87.3 0v41.8H40M0 45.74h35.7v34.6l-35.7-5M40 46.2h47.3v41.4L40 80.9"/><path d="M180.57007 18.32832l-14.50973 51.3752h-7.05782L148.4337 32.15736q-.68071-2.40038-.82401-5.23067h-.14331q-.21496 2.65116-.93149 5.15902l-10.64047 37.61783h-6.98617l-15.04713-51.37521h6.6279l10.92708 39.40916q.68071 2.47203.85984 5.15901h.17913q.17914-1.8988 1.11063-5.15901l11.357-39.40916h5.76807l10.89125 39.69577q.57323 2.0421.85984 4.80075h.14331q.1433-1.86298.96731-4.94406l10.49717-39.55246zm8.90646 5.37397q-1.57636 0-2.68699-1.0748-1.11062-1.07479-1.11062-2.7228 0-1.64803 1.11062-2.72282 1.11063-1.11062 2.68699-1.11062 1.61219 0 2.72282 1.11062 1.14644 1.0748 1.14644 2.72281 0 1.57637-1.14644 2.687-1.11063 1.11061-2.72282 1.11061zm2.86612 46.00124h-5.87554V33.01718h5.87554zm41.43693 0h-5.87554V48.78085q0-11.67944-8.52671-11.67944-4.40666 0-7.30861 3.33186-2.86612 3.29604-2.86612 8.34758v20.92268h-5.87555V33.01718h5.87555v6.09051h.14331q4.15587-6.95034 12.0377-6.95034 6.01886 0 9.20742 3.90509 3.18855 3.86926 3.18855 11.2137zm41.50859 0h-5.87555v-6.23381h-.1433q-4.08422 7.09365-12.61093 7.09365-6.91452 0-11.07039-4.90824-4.12005-4.94405-4.12005-13.43494 0-9.09993 4.58579-14.58139 4.58579-5.48145 12.21684-5.48145 7.55939 0 10.99874 5.9472h.1433v-22.714h5.87555zm-5.87555-16.58767v-5.4098q0-4.4425-2.93777-7.52357-2.93777-3.08108-7.45191-3.08108-5.37398 0-8.45506 3.94091-3.08108 3.94092-3.08108 10.89126 0 6.3413 2.93777 10.03142 2.9736 3.6543 7.95349 3.6543 4.90823 0 7.95348-3.54682 3.08108-3.54682 3.08108-8.95662zm32.26536 17.4475q-8.13262 0-13.00502-5.12319-4.83658-5.15901-4.83658-13.6499 0-9.24323 5.05154-14.43808 5.05153-5.19484 13.6499-5.19484 8.20427 0 12.79006 5.05154 4.62162 5.05153 4.62162 14.00816 0 8.7775-4.97989 14.07982-4.94405 5.2665-13.29163 5.2665zm.42992-33.46195q-5.66059 0-8.95663 3.86926-3.29604 3.83344-3.29604 10.60465 0 6.52042 3.33187 10.2822 3.33186 3.76179 8.9208 3.76179 5.69641 0 8.74167-3.69013 3.08108-3.69013 3.08108-10.49717 0-6.87869-3.08108-10.60465-3.04526-3.72595-8.74167-3.72595zm72.53433-4.08423l-10.99874 36.68635h-6.0905l-7.5594-26.26083q-.42991-1.50471-.57322-3.40352h-.14331q-.10748 1.28976-.75235 3.33187l-8.20427 26.33248h-5.87555l-11.10622-36.68635h6.16216l7.59522 27.58642q.35827 1.25392.50157 3.29603h.28661q.10748-1.57636.64488-3.36769l8.45506-27.51476h5.37397l7.59522 27.65807q.35827 1.32558.5374 3.29604h.28661q.0717-1.39724.60905-3.29604l7.45192-27.65807zm3.6758 35.36077v-6.30547q4.80075 3.54683 10.56882 3.54683 7.73852 0 7.73852-5.15902 0-1.46889-.6807-2.47203-.64488-1.03897-1.79133-1.82715-1.11062-.78818-2.65116-1.39723-1.50471-.64488-3.26021-1.32559-2.4362-.96731-4.29918-1.93463-1.82715-1.00314-3.08108-2.22124-1.2181-1.25393-1.86298-2.8303-.60905-1.57636-.60905-3.69013 0-2.5795 1.18228-4.54996 1.18227-2.00629 3.15273-3.33187 1.97046-1.3614 4.47831-2.0421 2.54368-.68071 5.23067-.68071 4.76493 0 8.52671 1.64802v5.9472q-4.04839-2.65116-9.31489-2.65116-1.64802 0-2.9736.39409-1.32558.35826-2.2929 1.03897-.93149.6807-1.46888 1.64802-.50158.93149-.50158 2.07793 0 1.43306.50158 2.40038.53739.96732 1.54054 1.71967 1.00314.75236 2.4362 1.36141t3.26021 1.32558q2.4362.93149 4.37083 1.93463 1.93464.96732 3.29604 2.22125 1.36141 1.2181 2.07794 2.83029.75236 1.6122.75236 3.83344 0 2.72281-1.2181 4.7291-1.18228 2.00628-3.18856 3.33186-2.00629 1.32558-4.62162 1.97046-2.61534.64488-5.48146.64488-5.66059 0-9.81646-2.18542zm49.94929-.75236v-7.09365q1.2181 1.0748 2.90195 1.93463 1.71967.85984 3.58265 1.4689 1.8988.57322 3.79761.89565 1.8988.32244 3.511.32244 5.5531 0 8.27592-2.0421 2.75864-2.07795 2.75864-5.9472 0-2.07795-.93149-3.61849-.89566-1.54054-2.50786-2.79446-1.61219-1.28976-3.83343-2.4362-2.18542-1.18228-4.7291-2.47203-2.68699-1.36141-5.01571-2.75865-2.32872-1.39723-4.0484-3.08108-1.71967-1.68384-2.72281-3.7976-.96732-2.1496-.96732-5.01572 0-3.511 1.54054-6.0905 1.54054-2.61534 4.0484-4.29918 2.50785-1.68385 5.69641-2.50786 3.22439-.824 6.55625-.824 7.59522 0 11.07039 1.82714v6.77121q-4.54996-3.15273-11.67944-3.15273-1.97046 0-3.94091.42992-1.97046.39409-3.511 1.32558-1.54054.93149-2.50786 2.40038-.96731 1.46888-.96731 3.58265 0 1.97045.71653 3.40351.75235 1.43306 2.18542 2.61534 1.43306 1.18227 3.47517 2.2929 2.07793 1.11062 4.76492 2.4362 2.75864 1.3614 5.23067 2.86612 2.47203 1.50471 4.33501 3.33186 1.86298 1.82716 2.93777 4.0484 1.11062 2.22124 1.11062 5.08736 0 3.79761-1.50471 6.44878-1.46889 2.61533-4.01257 4.26335-2.50785 1.64802-5.80389 2.36455-3.29604.75236-6.95034.75236-1.21811 0-3.00943-.21496-1.79133-.17914-3.6543-.57323-1.86298-.35826-3.54683-.89566-1.64802-.57322-2.65116-1.25393zm69.16665-14.79635h-25.90256q.1433 6.12634 3.29604 9.4582 3.15273 3.33187 8.67001 3.33187 6.19799 0 11.39283-4.08422v5.51728q-4.83658 3.511-12.79006 3.511-7.77435 0-12.21684-4.97989-4.44249-5.01571-4.44249-14.07982 0-8.56253 4.83658-13.9365 4.8724-5.40981 12.07353-5.40981t11.14205 4.65744q3.94091 4.65745 3.94091 12.93337zm-6.01885-4.97988q-.0358-5.08736-2.47203-7.91766-2.40038-2.8303-6.69956-2.8303-4.15587 0-7.05782 2.9736-2.90195 2.9736-3.58265 7.77436zm33.16102-8.88497q-1.54054-1.18228-4.44248-1.18228-3.76179 0-6.30547 3.54682-2.50785 3.54683-2.50785 9.67316v18.70144h-5.87555V33.01718h5.87555v7.5594h.1433q1.25393-3.86926 3.83344-6.01886 2.57951-2.18541 5.76807-2.18541 2.29289 0 3.51099.50157zm34.30747-5.9472l-14.61722 36.68634h-5.76806l-13.90069-36.68635h6.44877l9.31489 26.65493q1.03897 2.93777 1.28976 5.12319h.1433q.35827-2.75864 1.14645-4.97989l9.74481-26.79823zm34.84483 19.81205h-25.90257q.14331 6.12634 3.29604 9.4582 3.15273 3.33187 8.67002 3.33187 6.19798 0 11.39282-4.08422v5.51728q-4.83657 3.511-12.79006 3.511-7.77435 0-12.21684-4.97989-4.44248-5.01571-4.44248-14.07982 0-8.56253 4.83657-13.9365 4.87241-5.40981 12.07354-5.40981 7.20113 0 11.14204 4.65744 3.94092 4.65745 3.94092 12.93337zm-6.01886-4.97988q-.0358-5.08736-2.47203-7.91766-2.40037-2.8303-6.69955-2.8303-4.15588 0-7.05782 2.9736-2.90195 2.9736-3.58266 7.77436zm33.16103-8.88497q-1.54054-1.18228-4.44249-1.18228-3.76178 0-6.30546 3.54682-2.50786 3.54683-2.50786 9.67316v18.70144h-5.87555V33.01718h5.87555v7.5594h.14331q1.25392-3.86926 3.83343-6.01886 2.57951-2.18541 5.76807-2.18541 2.2929 0 3.511.50157zm46.33085-7.1653q0-2.36456-.75236-4.12005-.71653-1.7555-2.00628-2.90195-1.25393-1.18228-2.9736-1.7555-1.71967-.57323-3.72596-.57323-1.71967 0-3.36769.46575-1.64802.46574-3.22439 1.28975-1.54054.82401-3.00942 1.97046-1.43306 1.14645-2.68699 2.54368v-6.30546q2.47203-2.40038 5.51728-3.6543 3.08108-1.28976 7.48774-1.28976 3.15273 0 5.83972.93149 2.68699.89566 4.65745 2.65116 1.97046 1.7555 3.08108 4.335 1.14645 2.57952 1.14645 5.91138 0 3.04526-.71653 5.51728-.68071 2.47203-2.11377 4.65745-1.39723 2.18542-3.54682 4.1917-2.14959 2.00629-5.05154 4.08422-3.61848 2.57951-5.98303 4.40666-2.32872 1.82716-3.72595 3.43935-1.36141 1.57637-1.93463 3.18856-.5374 1.57636-.5374 3.6543h25.58012v5.2665h-31.70645v-2.54368q0-3.29604.71653-5.8039.71653-2.50785 2.36455-4.76492 1.64801-2.25707 4.29918-4.51414 2.68698-2.25707 6.55625-5.08737 2.79446-2.00628 4.65744-3.83343 1.89881-1.82715 3.04526-3.6543 1.14644-1.82716 1.61219-3.69014.50157-1.8988.50157-4.01257zm47.52743 12.00187q0 6.44878-1.18227 11.42866-1.14645 4.97989-3.3677 8.41923-2.18541 3.40352-5.4098 5.19484-3.18856 1.7555-7.27278 1.7555-3.86926 0-6.91452-1.68384-3.00942-1.71968-5.08736-4.97989-2.07794-3.26021-3.15273-7.98931-1.0748-4.76492-1.0748-10.89126 0-6.73538 1.11062-11.8944 1.14645-5.15902 3.33187-8.63419 2.18542-3.511 5.4098-5.2665 3.26021-1.79132 7.45192-1.79132 16.15775 0 16.15775 26.33248zm-6.01885.57323q0-21.92582-10.42552-21.92582-10.99873 0-10.99873 22.31991 0 20.8152 10.78377 20.8152 10.64048 0 10.64048-21.2093zm34.05666 25.32934h-5.87555V25.31449q-.6807.6807-2.00628 1.57636-1.28976.85984-2.93778 1.71968-1.61219.85983-3.43934 1.61219-1.79133.75235-3.511 1.18227v-5.9472q1.93463-.5374 4.08422-1.43306 2.18542-.93149 4.26336-2.0421 2.11376-1.14646 3.97674-2.36456 1.86298-1.25393 3.22439-2.4362h2.22124zm16.68081-35.03833q0-3.76178 1.21811-6.9145 1.2181-3.15275 3.36769-5.44564 2.14959-2.2929 5.12319-3.58265 2.9736-1.25393 6.44877-1.25393 3.86926 0 6.95034 1.6122 3.04526 1.6122 5.19485 4.62161 2.11376 3.04526 3.22438 7.4161 1.11062 4.37082 1.11062 9.85228 0 6.69956-1.46888 12.14518-1.50472 5.48146-4.22753 9.35072-2.75864 3.9051-6.62791 6.01886-3.86926 2.11376-8.63418 2.11376-5.30233 0-8.52671-1.46889v-5.5531q3.97674 2.04211 8.3834 2.04211 3.43935 0 6.19799-1.54054 2.75864-1.54054 4.7291-4.37084 1.97045-2.79447 3.04525-6.7712 1.03897-3.97675 1.03897-8.84916h-.14331q-3.54682 6.41295-11.71527 6.41295-3.36769 0-6.05468-1.14645-2.72281-1.14645-4.62162-3.2602-1.93463-2.07795-2.9736-4.9799-1.03897-2.90194-1.03897-6.44877zm6.01886-.75235q0 2.68698.6807 4.83658.68071 2.1496 1.97046 3.6543 1.25393 1.50471 3.11691 2.2929 1.86297.82401 4.22752.82401 2.18542 0 4.0484-.824 1.86298-.82402 3.22438-2.25708 1.36141-1.39724 2.1496-3.29604.75235-1.86298.75235-3.97675 0-2.65116-.75235-4.97988-.75236-2.2929-2.11377-4.01257-1.36141-1.71967-3.22438-2.7228-1.89881-.96733-4.19171-.96733-2.22124 0-4.04839.82401-1.82715.85984-3.11691 2.36455-1.28975 1.50471-2.00628 3.58265-.71653 2.11376-.71653 4.65745z" fill="#00188f" stroke-width="1.834"/></svg>