<svg xmlns="http://www.w3.org/2000/svg" role="img" viewBox="-3.99 -3.99 193.74 207.74"><title>Protractor logo</title><g data-name="Layer 2"><g data-name="Layer 1"><path fill="#e13439" d="M92.8 0L0 33.3l14 122.8L92.8 200l78.9-43.9L186 33.3 92.8 0z"/><path fill="#b52f32" d="M92.8 0v200l78.9-43.9L186 33.3 92.8 0z"/><path fill="#fff" d="M145.3 117.1v-3.6H158a64.9 64.9 0 0 0-18-43.1l-9.6 9.6-2.5-2.5 9.5-9.6a64.3 64.3 0 0 0-42.1-17.5V63h-3.6V50.3a65 65 0 0 0-43.1 17.6l9.6 9.6-2.6 2.5-9.6-9.6a64.8 64.8 0 0 0-17.9 43.1h12.6v3.6H28v14.8h130v-14.8zm-93.5-2.2a41.3 41.3 0 1 1 82.5 0z"/></g></g></svg>