<svg xmlns="http://www.w3.org/2000/svg" role="img" viewBox="270.56 275.93 172.64 61.02"><title>Red Hat jBPM logo</title><style>svg {enable-background:new 0 0 792 612}</style><style>.st0{fill:#c10403}.st1{fill:#2a496c}</style><path d="M328.9 323c0 6.1-3.3 9.1-9.9 9.1h-1.5V330h1.5c5.2 0 7.7-2.4 7.7-7.2v-28.4h2.2V323zm.5-36c0 1.1-.5 1.6-1.6 1.6s-1.7-.5-1.7-1.6.5-1.6 1.7-1.6c1.1 0 1.6.6 1.6 1.6z" class="st0"/><path d="M325.2 292.8v30c0 3.9-1.9 5.7-6.2 5.7h-3.1v5.2h3.1c9.5 0 11.5-5.8 11.5-10.6v-30.2h-5.3zm-.6-5.8c0 1.9 1.3 3.2 3.2 3.2 1.9 0 3.2-1.2 3.2-3.2 0-1.9-1.2-3.1-3.2-3.1-1.9 0-3.2 1.2-3.2 3.1zm3.2 0s.1 0 0 0c.1 0 .1 0 0 0 .1 0 .1.1.1.1h-.1-.1v-.1h.1z" class="st0"/><path d="M350.6 279.3H344c-1.8 0-3.3.6-4.5 1.6-1.2 1.1-1.8 2.6-1.8 4.5v30.3c0 2 .8 3.6 2.4 4.8 1.2.9 2.5 1.4 4 1.4h7.7c3.8 0 7-1 9.5-2.9 2.8-2.2 4.2-5.3 4.2-9.2 0-4.8-2.2-8.3-6.3-10.4 2.8-1.9 4.3-4.8 4.3-8.4 0-3.5-1.3-6.5-3.9-8.7-2.5-2-5.5-3-9-3zm-8.7 38.8c-.8-.6-1.1-1.3-1.1-2.3v-30.3c0-1 .3-1.7.9-2.2.6-.6 1.4-.8 2.4-.8h6.6c2.8 0 5 .7 6.9 2.3 1.9 1.6 2.8 3.7 2.8 6.3 0 3.6-1.8 5.8-5.6 7.1l-5 1.7 5.1 1.2c5.1 1.2 7.5 4 7.5 8.7 0 2.9-1 5.2-3 6.7-1.9 1.5-4.4 2.3-7.6 2.3h-7.7c-.8 0-1.5-.2-2.2-.7z" class="st1"/><path d="M343.7 281.5h-.1c-2.2.3-3.5 1.7-3.5 3.9v15.2h9.7c2.9 0 5.4-.7 7.4-2.2 2.4-1.7 3.6-4.1 3.6-7.1 0-2.9-1-5.3-3-7.1-1.3-1.2-2.6-2-3.7-2.3-.8-.2-1.9-.3-3.6-.3h-6.8zm6.9 3.1c1.9 0 2.6.1 2.8.2.7.2 1.6.8 2.6 1.7 1.3 1.2 2 2.8 2 4.8s-.8 3.5-2.3 4.6c-1.5 1.1-3.4 1.6-5.7 1.6h-6.6v-12.1c0-.4 0-.7.8-.8h6.4z" class="st1"/><path d="M340.1 299.7v16.2c0 2.1 1.3 3.5 3.5 3.9h7.8c9.6 0 11.6-5.4 11.6-9.9 0-4.6-2.2-10.2-12.4-10.2h-10.5zm10.4 3c8.4 0 9.4 4 9.4 7.1 0 3.2-1 6.8-8.5 6.8H344c-.8-.1-.8-.4-.8-.8v-13.1h7.3z" class="st1"/><path d="M396.5 293c0 3.5-1.3 6.4-3.9 8.8-2.2 2-5.4 3-9.6 3h-7.8v15.6h-2.4v-34.5c0-1.6.6-2.8 1.8-3.6.9-.6 1.9-.9 3.1-.9h7.2c3.5 0 6.3 1.1 8.5 3.2 2 2.1 3.1 4.9 3.1 8.4zm-2.5 0c0-2.9-.8-5.2-2.4-6.9-1.7-1.8-3.9-2.7-6.8-2.7h-7.5c-1.5.2-2.2 1-2.2 2.4v16.8h8.6c3.1 0 5.5-.8 7.3-2.5 2-1.7 3-4 3-7.1z" class="st1"/><path d="M377.6 279.8c-1.5 0-2.8.4-4 1.2-1.6 1.1-2.4 2.8-2.4 4.9v36h5.5v-15.6h6.3c4.5 0 8.1-1.1 10.6-3.4 3-2.6 4.4-6 4.4-9.9 0-3.9-1.2-7.1-3.7-9.6-2.4-2.4-5.6-3.6-9.6-3.6h-7.1zm-3.3 6.1c0-1.4.6-2 1.1-2.4.6-.4 1.4-.7 2.2-.7h7.2c3.1 0 5.5.9 7.4 2.7 1.9 1.8 2.8 4.3 2.8 7.4 0 3.1-1.1 5.6-3.4 7.6-1.9 1.7-4.8 2.6-8.6 2.6h-8.7v-17.2z" class="st1"/><path d="M377.2 281.9h-.1c-2.2.3-3.5 1.7-3.5 3.9v18.3h10.2c3.4 0 6.2-1 8.3-2.9 2.2-2 3.4-4.8 3.4-8.3 0-3.3-.9-6-2.8-8-2-2.1-4.6-3.1-7.9-3.1h-7.6zm7.6 3.1c2.4 0 4.3.7 5.7 2.2 1.3 1.4 2 3.4 2 5.9 0 2.6-.8 4.5-2.4 6-1.5 1.4-3.6 2.1-6.3 2.1h-7.1v-15.3c0-.4 0-.7.8-.8.3-.1 7.3-.1 7.3-.1z" class="st1"/><path d="M438.4 320.3H436v-35.9c0-.6-.2-.9-.6-.9-.3 0-.6.3-.8.9L425 317c-.7 2.3-1.7 3.5-3.2 3.5-1.4 0-2.5-1.2-3.2-3.5l-9.6-32.5c-.2-.6-.4-.9-.8-.9s-.6.3-.6.9v36h-2.4v-35.9c0-2 1-3 3-3 1.6 0 2.6.9 3.1 2.6l9.8 33c.2.6.4.9.6.9.2 0 .4-.3.6-.9l9.9-33.1c.5-1.7 1.6-2.6 3.2-2.6 1.9 0 2.9 1 2.9 3v35.8z" class="st1"/><path d="M430.8 283.6s-7.6 25.5-9 30.2c-1.4-4.8-9-30.2-9-30.2-.7-2.4-2.3-3.7-4.6-3.7-2.8 0-4.5 1.7-4.5 4.6V322h5.5v-31.5c2.3 7.6 8 27 8 27 1.1 3.8 3.1 4.6 4.6 4.6 1.5 0 3.5-.8 4.6-4.6 0 0 5.7-19.3 8-26.9V322h5.5v-37.4c0-2.8-1.7-4.6-4.5-4.6-2.2 0-3.9 1.3-4.6 3.6z" class="st1"/><g><path fill="#707070" stroke="#707070" stroke-width="2" d="M285.6 281.3c-5.7 0-10.3 4.6-10.3 10.3V313c0 5.7 4.6 10.3 10.3 10.3H307c5.7 0 10.3-4.6 10.3-10.3v-21.4c0-5.7-4.6-10.3-10.3-10.3h-21.4zm-.9 31.6v-21.4c0-.5.4-.9.9-.9H307c.5 0 .9.4.9.9v21.4c0 .5-.4.9-.9.9h-21.4c-.5.1-.9-.4-.9-.9z"/></g><linearGradient id="SVGID_1_" x1="310.381" x2="310.381" y1="280.456" y2="312.087" gradientUnits="userSpaceOnUse"><stop offset=".2" stop-color="#c10403"/><stop offset="1" stop-color="#ec1a25"/></linearGradient><path fill="url(#SVGID_1_)" stroke="#b2b2b2" d="M316.5 312.1v-21.4c0-5.7-4.6-10.3-10.3-10.3l-2 4.6 2 4.7c.5 0 .9.4.9.9V312h9.4z"/><linearGradient id="SVGID_2_" x1="316.316" x2="284.685" y1="316.185" y2="316.185" gradientUnits="userSpaceOnUse"><stop offset=".2" stop-color="#2a496c"/><stop offset="1" stop-color="#668bb3"/></linearGradient><path fill="url(#SVGID_2_)" stroke="#b2b2b2" d="M284.7 322.3H306c5.7 0 10.3-4.6 10.3-10.3l-4.5-1.9-4.8 1.9c0 .5-.4.9-.9.9h-21.4v9.4z"/><linearGradient id="SVGID_3_" x1="280.585" x2="280.585" y1="322.354" y2="290.722" gradientUnits="userSpaceOnUse"><stop offset=".2" stop-color="#c10403"/><stop offset="1" stop-color="#ec1a25"/></linearGradient><path fill="url(#SVGID_3_)" stroke="#b2b2b2" d="M274.5 290.7v21.4c0 5.7 4.6 10.3 10.3 10.3l1.9-4.7-1.9-4.6c-.5 0-.9-.4-.9-.9v-21.4h-9.4z"/><linearGradient id="SVGID_4_" x1="274.416" x2="306.048" y1="286.313" y2="286.313" gradientUnits="userSpaceOnUse"><stop offset=".2" stop-color="#2a496c"/><stop offset="1" stop-color="#668bb3"/></linearGradient><path fill="url(#SVGID_4_)" stroke="#b2b2b2" d="M304.2 284.8l1.9-4.5h-21.4c-5.7 0-10.3 4.6-10.3 10.3l4.8 1.9 4.6-1.9c0-.5.4-.9.9-.9H306l-1.8-4.9z"/></svg>