<svg xmlns="http://www.w3.org/2000/svg" role="img" viewBox="-1.88 -1.88 97.89 26.52"><title>SabreTalk logo</title><path fill="#e50000" d="M21.69638 16.36763c-.20375.58375-.30125 1.235-.30125 1.93875 0 2.3725 1.78125 4.42625 4.74875 4.42625 2.7225 0 4.28-1.14 4.98875-1.8975h.095l-.13875 1.44625h6.8325l1.68375-7.86c.0687-.34.12375-.665.15875-.975l-18.0675 2.92125m8.38875-4.58625c.19625-.9375.91125-1.68 1.8175-1.68.92375 0 1.30125.785 1.1375 1.58125l-.1175.57375 6.81875-.71375c-.51625-3.4825-3.77125-4.995-7.5525-4.995-5.6325 0-8.32375 2.8-8.855 5.2775l-.0738.35h6.74625l.0788-.39375zm1.8425 5.1775c-.21625 1.145-.99375 2.0475-2.0875 2.0475-1.03 0-1.4975-.845-1.30125-1.76625.16625-.775.97375-1.55 2.4725-1.55h1.18625l-.27 1.26875zm18.22425-5.19962c-.47375.635-.85625 1.55125-1.15875 2.93375-.6475 2.9875.0575 3.76875.94 3.76875 1.17875 0 2.17625-1.12 2.66625-3.725.31375-1.66.26625-2.85375-.18375-3.34375l7.295-1.18125c.3575 1.1575.41625 2.64375.0738 4.34-1.06875 5.36625-4.3525 8.18125-8.01875 8.18125-1.66 0-3.4725-.4325-4.22625-2.2h-.155l-.59125 1.7475h-6.60125l1.96-9.22625 8-1.295m.395-3.47625c.57375-.46625 1.98875-1.55 4.15375-1.55 2.19875 0 3.88875.95625 4.73125 2.76l-16.8975 1.75875L44.80568.56551h7.2775l-1.63875 7.7175h.1025zm-42.872 10.35837l.63875-3.06875h-8.26c-.5725 5.19625 3.5075 7.27875 8.74125 7.27875 5.0225 0 10.33375-1.67625 11.51625-6.25875L7.67493 18.64138m-.27375-5.18875c-2.92875-.92625-5.13875-2.65125-5.13875-5.91875 0-4.78125 4.7725-7.51875 11.15875-7.53375 5.41-.02 8.99125 2.235 8.36 6.7325h-7.69875c.27125-1.22875-.435-1.92625-1.7525-1.92625-1.02375 0-1.81625.53-1.9425 1.15125-.17875.89.39125 1.45125 1.77125 1.825 1.16375.3175 1.95875.52875 3.1025.855 3.25625.9325 4.81375 2.87625 5.21625 4.91125l-9.675.9975-3.40125-1.09375zm66.20875-6.45325c-1.6075 0-2.895.92625-3.76375 2.11875h-.1325l.225-1.93625h-6.74875l-.41125 1.965 3.725-.38875-.0825.37125-3.78.61375-2.66125 12.5375h7.2775s.75125-3.6025 1.20875-5.7125c.73375-3.36625 2.58-4.1275 3.81-4.1275 1.03875 0 1.6875.46875 1.84875.6l1.19125-5.6125c-.115-.065-.73625-.42875-1.70625-.42875m12.16975 5.868l.075-.35125c.22125-1.1675-.33875-2.05125-1.5625-2.05125-1.1275 0-2.08875.80875-2.4275 2.4025h3.915m5.40625 4.56875c-1.12625 3.1975-4.22375 5.29625-9.305 5.29625-4.23 0-8.3075-2.46-7.30125-8.095.8425-4.74375 5.2-7.90375 10.18375-7.90375 5.58125 0 8.01875 3.8325 7.11375 8.3l-.2175 1.02375H81.17593c-.0337.1175-.16625.605-.16625 1.14 0 1.34.71125 1.80875 1.61625 1.80875.935 0 1.73875-.5225 2.18125-1.57h6.37875zm1.18782 3.54688h.19375c.2225 0 .41125-.0812.41125-.28875 0-.1475-.11-.29625-.41125-.29625-.0875 0-.1475.007-.19375.015v.57zm0 .9325H92.105v-1.68375c.14125-.0212.27375-.04.47625-.04.255 0 .4225.0525.525.1275.0987.0725.1525.1875.1525.3475 0 .22125-.1475.35625-.32875.41v.0138c.1475.0263.24875.16.2825.40875.04.2625.0813.3625.1075.41625h-.2825c-.0412-.0537-.0813-.20875-.11375-.43-.04-.215-.14875-.295-.3625-.295h-.1875v.725zm.28125-2.15375c-.665 0-1.2075.57-1.2075 1.27375 0 .71875.5425 1.28375 1.21375 1.28375.67125.006 1.2075-.565 1.2075-1.27625 0-.71125-.53625-1.28125-1.2075-1.28125h-.006zm.006-.235c.82625 0 1.48375.67125 1.48375 1.50875 0 .8525-.6575 1.51875-1.49 1.51875-.825 0-1.49625-.66625-1.49625-1.51875 0-.8375.67125-1.50875 1.49625-1.50875h.006z"/></svg>