<svg xmlns="http://www.w3.org/2000/svg" role="img" viewBox="-15.37 -14.87 773.24 397.74"><title>SAP Replication Server logo</title><path fill="#014185" d="M-.00028 367.88637h375.32034L743.3668-.0003H-.00028v367.88667"/><path fill="#fff" fill-rule="evenodd" d="M440.78291 69.14301l-72.7365-.01454v174.0148l-64.00812-174.0148H241.4849l-55.27974 145.53119c-5.81892-36.6592-43.6419-49.3299-74.19123-58.81474-18.91149-6.37172-40.73244-15.74018-39.27771-25.98148 0-8.49562 10.18311-16.29297 32.00406-15.12919 14.5473.74191 27.63987 1.94934 53.82501 14.43092l26.18514-44.32562c-24.73041-11.98697-56.73447-19.56612-82.91961-19.59521-32.00406 0-58.1892 10.06673-74.19123 26.75248-10.18311 11.60875-17.45676 26.34516-17.45676 42.68178 0 22.47558 8.72838 38.41942 24.73041 51.11921 16.00203 10.69227 33.45879 17.66042 50.91555 22.76653 20.36622 6.29898 36.36825 11.75422 36.36825 23.45024 0 4.32055-1.45473 8.24832-4.36419 11.40509-5.81892 5.22248-13.09257 7.20091-24.73041 7.44822-20.36622.37822-34.91352-2.86582-59.64393-17.31129l-23.27568 44.87842c24.73041 13.90722 53.82501 22.0828 82.91961 22.0828l4.36419-.02909c24.73041-.46552 46.55136-7.8119 62.55339-21.16633 1.45473-.78555 1.45473-1.51292 2.90946-2.24028l-7.27365 19.53702h66.91758l10.18311-33.86611c11.63784 3.89868 24.73041 6.16805 39.27771 6.16805s26.18514-2.19664 37.82298-5.89165l11.63784 33.58971h107.65002v-70.24891h24.73041c56.73447 0 90.19326-29.10915 90.19326-77.92988 0-54.34872-32.00406-79.29734-103.28583-79.29734zm-168.74868 148.9789c-8.72838 0-16.00203-1.51292-23.27568-4.16052l23.27568-73.20202 23.27568 73.43477c-7.27365 2.50214-14.5473 3.92777-23.27568 3.92777zm173.11287-42.09988h-16.00203v-59.0184h16.00203c21.82095 0 39.27771 7.14272 39.27771 29.21098 0 22.69379-17.45676 29.80742-39.27771 29.80742"/><path fill="#014185" d="M466.96805 344.37793c0-11.24506 8.72838-19.81342 18.91149-19.81342 10.18311 0 18.91149 8.56836 18.91149 19.81342 0 11.66693-8.72838 20.07527-18.91149 20.07527-10.18311 0-18.91149-8.40834-18.91149-20.07527zm18.91149 24.06123c13.09257 0 24.73041-10.19765 24.73041-24.06123 0-13.65992-11.63784-23.69755-24.73041-23.69755-13.09257 0-24.73041 10.03763-24.73041 23.69755 0 13.86358 11.63784 24.06123 24.73041 24.06123zm-4.36419-22.06825h4.36419l7.27365 11.8706h4.36419l-7.27365-12.10336c2.90946-.49461 7.27365-2.63306 7.27365-7.52095 0-5.48433-4.36419-7.89919-10.18311-7.89919h-10.18311v27.5235h4.36419v-11.8706zm0-3.54954v-8.59746h5.81892c1.45473 0 5.81892.66918 5.81892 4.14598 0 4.17508-4.36419 4.45148-7.27365 4.45148h-4.36419"/></svg>