<svg xmlns="http://www.w3.org/2000/svg" role="img" viewBox="-5.41 -5.41 281.32 128.07"><title>SonarCube logo</title><path d="M0 31.139c4.08-1.26 4.5-4.38 4.5-9.6V10.32c0-4.86 3.3-8.1 5.1-8.1h4.379v4.44H11.58c-2.16 0-2.16 1.8-2.16 4.56v11.339c0 7.02-3.78 10.02-4.56 10.5.78.48 4.56 3.48 4.56 10.56v11.28c0 2.76 0 4.559 2.16 4.559h2.399v4.44H9.6c-1.8 0-5.1-3.239-5.1-8.1v-11.16c0-5.28-.42-8.399-4.5-9.66v-3.839zm44.82-6.42h.12c1.98-2.7 4.56-4.2 8.04-4.2 7.8 0 9.6 5.64 9.6 12.24v16.739h-4.8V33.599c0-4.56-.36-8.64-5.939-8.64-6.6 0-7.02 6.12-7.02 11.16v13.379h-4.8V21.299h4.8v3.42h-.001zm24.36 10.739c0-8.28 6.54-14.939 14.819-14.939s14.819 6.66 14.819 14.939S92.219 50.278 84 50.278s-14.82-6.54-14.82-14.82zm4.8-.06c0 5.76 4.08 10.44 10.02 10.44 5.939 0 10.02-4.68 10.02-10.44 0-5.7-4.08-10.439-10.02-10.439-5.94 0-10.02 4.74-10.02 10.439zm54.6 14.1h-4.8V0h4.8v49.498zm6.42-14.04c0-8.28 6.539-14.939 14.819-14.939 8.28 0 14.819 6.66 14.819 14.939s-6.6 14.819-14.819 14.819C141.6 50.277 135 43.738 135 35.458zm4.799-.06c0 5.76 4.079 10.44 10.02 10.44 5.939 0 10.02-4.68 10.02-10.44 0-5.7-4.08-10.439-10.02-10.439-5.941 0-10.02 4.74-10.02 10.439zm56.879 12.72c0 4.5 0 8.399-2.88 12.12-2.641 3.359-6.72 4.979-10.92 4.979-7.859 0-13.68-4.979-13.859-12.959h4.8c.06 5.22 3.84 8.52 8.999 8.52 7.44 0 9.061-5.459 9.061-11.819v-3.36h-.12c-2.28 2.94-6 4.68-9.78 4.68-8.219 0-13.439-6.899-13.439-14.759 0-7.919 5.28-15 13.62-15 3.899 0 7.319 1.74 9.6 4.8h.12V21.3h4.8v26.818h-.002zm-23.22-13.019c0 5.52 3.24 10.74 9.24 10.74 6.18 0 9.42-4.98 9.42-10.68 0-5.64-3.541-10.2-9.48-10.2-5.58 0-9.18 4.86-9.18 10.14zm30.061.359c0-8.28 6.539-14.939 14.818-14.939 8.28 0 14.82 6.66 14.82 14.939s-6.6 14.819-14.82 14.819c-8.218.001-14.818-6.539-14.818-14.819zm4.799-.06c0 5.76 4.08 10.44 10.02 10.44 5.94 0 10.02-4.68 10.02-10.44 0-5.7-4.079-10.439-10.02-10.439-5.94 0-10.02 4.74-10.02 10.439zm62.34-.419c-4.08 1.26-4.5 4.38-4.5 9.66v11.16c0 4.86-3.3 8.1-5.1 8.1h-4.38v-4.44h2.399c2.16 0 2.16-1.799 2.16-4.559V43.62c0-7.08 3.779-10.08 4.561-10.56-.781-.48-4.561-3.479-4.561-10.5V11.22c0-2.76 0-4.56-2.16-4.56h-2.399V2.22h4.38c1.8 0 5.1 3.24 5.1 8.1v11.219c0 5.22.42 8.34 4.5 9.6v3.84zM65.054 99.599h-.06c-1.11-1.41-2.49-2.37-4.38-2.37-2.91 0-4.979 2.4-4.979 5.22 0 2.79 1.92 5.22 4.859 5.22 2.01 0 3.42-.9 4.59-2.43h.06v3.21c-1.38.93-2.79 1.44-4.47 1.44-4.26 0-7.5-3.181-7.5-7.44 0-4.2 3.39-7.439 7.53-7.439 1.53 0 3.09.51 4.35 1.409v3.18zm2.55 2.88c0-4.141 3.27-7.47 7.41-7.47 4.14 0 7.41 3.329 7.41 7.47 0 4.14-3.3 7.41-7.41 7.41s-7.41-3.271-7.41-7.41zm2.4-.031c0 2.88 2.04 5.22 5.01 5.22 2.97 0 5.01-2.34 5.01-5.22 0-2.85-2.04-5.22-5.01-5.22-2.97 0-5.01 2.371-5.01 5.22zm18.12-5.519h.06c.75-1.17 1.95-1.92 3.39-1.92 1.65 0 3.15.87 3.899 2.34.84-1.56 2.52-2.34 4.23-2.34 3.6 0 4.5 2.94 4.5 5.909v8.58h-2.4v-8.189c0-1.83-.12-4.08-2.58-4.08-2.76 0-3.06 2.67-3.06 4.8v7.47h-2.399v-8.01c0-1.74-.21-4.26-2.52-4.26-2.82 0-3.12 2.85-3.12 4.98v7.289h-2.4v-14.1h2.4v1.531zm24-6.84c0 .96-.78 1.71-1.71 1.71-.93 0-1.71-.75-1.71-1.71 0-.931.78-1.71 1.71-1.71.93 0 1.71.779 1.71 1.71zm-.51 19.409h-2.4v-14.1h2.4v14.1zm7.409-12.39h.06c.99-1.35 2.28-2.1 4.02-2.1 3.9 0 4.8 2.819 4.8 6.12v8.369h-2.4v-7.949c0-2.28-.18-4.32-2.97-4.32-3.3 0-3.51 3.061-3.51 5.58v6.689h-2.4v-14.1h2.4v1.711zm26.16 11.701c0 2.25 0 4.199-1.439 6.059-1.32 1.681-3.36 2.49-5.461 2.49-3.929 0-6.839-2.49-6.929-6.479h2.4c.03 2.61 1.92 4.26 4.5 4.26 3.72 0 4.529-2.729 4.529-5.909v-1.68h-.06c-1.14 1.469-3 2.34-4.89 2.34-4.11 0-6.72-3.451-6.72-7.381 0-3.959 2.64-7.499 6.81-7.499 1.949 0 3.66.87 4.8 2.399h.06v-2.01h2.4v13.41zm-11.61-6.51c0 2.76 1.62 5.369 4.62 5.369 3.09 0 4.71-2.49 4.71-5.34 0-2.82-1.77-5.1-4.739-5.1-2.79.001-4.591 2.43-4.591 5.071zm31.229-3.631c-.33-.75-1.05-1.439-1.92-1.439-.84 0-1.74.66-1.74 1.561 0 1.289 1.621 1.77 3.271 2.459 1.649.69 3.27 1.68 3.27 4.051 0 2.67-2.159 4.59-4.77 4.59-2.37 0-4.229-1.351-4.979-3.57l2.129-.9c.601 1.32 1.291 2.25 2.881 2.25 1.289 0 2.279-.869 2.279-2.16 0-3.149-6.359-2.069-6.359-6.51 0-2.369 1.92-3.989 4.199-3.989 1.621 0 3.12 1.14 3.75 2.61l-2.011 1.047zm5.01 3.811c0-4.141 3.271-7.47 7.41-7.47s7.41 3.329 7.41 7.47c0 4.14-3.301 7.41-7.41 7.41s-7.41-3.271-7.41-7.41zm2.4-.031c0 2.88 2.04 5.22 5.01 5.22 2.97 0 5.01-2.34 5.01-5.22 0-2.85-2.04-5.22-5.01-5.22-2.97 0-5.01 2.371-5.01 5.22zm14.46.031c0-4.141 3.271-7.47 7.409-7.47 4.141 0 7.41 3.329 7.41 7.47 0 4.14-3.3 7.41-7.41 7.41-4.109 0-7.409-3.271-7.409-7.41zm2.4-.031c0 2.88 2.041 5.22 5.01 5.22 2.971 0 5.01-2.34 5.01-5.22 0-2.85-2.039-5.22-5.01-5.22-2.969.001-5.01 2.371-5.01 5.22zm18.12-5.34h.06c.99-1.35 2.28-2.1 4.021-2.1 3.899 0 4.8 2.819 4.8 6.12v8.369h-2.4v-7.949c0-2.28-.18-4.32-2.97-4.32-3.3 0-3.51 3.061-3.51 5.58v6.689h-2.399v-14.1h2.399v1.711h-.001z"/></svg>