<svg xmlns="http://www.w3.org/2000/svg" role="img" viewBox="-4.90 -4.90 254.80 72.55"><title>Spring boot logo</title><path d="M80.72918 43.80628c-.75145-.40572-1.32957-1.2745-1.32957-2.43234 0-1.5609 1.21397-2.82646 2.83847-2.82646.57545 0 1.09837.16933 1.5005.40105 2.95459 1.96876 6.0217 2.953 8.7951 2.953 3.0082 0 4.74362-1.27437 4.74362-3.30192v-.11466c0-2.37234-3.23792-3.18112-6.82796-4.2795-4.51029-1.27397-9.54403-3.12339-9.54403-8.96804v-.1172c0-5.78679 4.80188-9.31483 10.87733-9.31483 3.24098 0 6.6529.92704 9.6039 2.48687.98637.52239 1.67702 1.4485 1.67702 2.66033 0 1.62183-1.27077 2.83953-2.8906 2.83953-.58172 0-.9285-.11613-1.38636-.34892-2.49207-1.2745-5.03681-2.08582-7.17689-2.08582-2.72127 0-4.28376 1.27597-4.28376 3.01286v.11253c0 2.25728 3.29778 3.18059 6.88623 4.34003 4.45509 1.38956 9.48883 3.41338 9.48883 8.90964v.1172c0 6.4217-4.97841 9.6003-11.34132 9.6003-3.8739 0-8.0978-1.21091-11.6305-3.64365m50.09354-12.14823v-.1172c0-5.89878-3.9931-9.77575-8.73512-9.77575-4.74414 0-8.90977 3.9343-8.90977 9.77575v.1172c0 5.84359 4.16563 9.78162 8.90977 9.78162 4.80188 0 8.73512-3.7635 8.73512-9.78162m-24.47379-12.3257c0-1.96354 1.5025-3.52804 3.47378-3.52804 1.96569 0 3.52805 1.5645 3.52805 3.52805v2.08595c2.25674-3.18072 5.438-5.72746 10.41494-5.72746 7.17315 0 14.17484 5.66746 14.17484 15.85v.1172c0 10.12641-6.9433 15.8528-14.17484 15.8528-5.09108 0-8.2738-2.54847-10.41494-5.37746v10.81323c0 1.97443-1.56236 3.4791-3.52805 3.4791-1.90822 0-3.47378-1.50467-3.47378-3.4791V19.33236m34.24355.00413c0-1.96342 1.49996-3.52804 3.4679-3.52804 1.97196 0 3.53192 1.56462 3.53192 3.52804v1.6833c.34932-2.6218 4.62655-5.21134 7.69447-5.21134 2.19728 0 3.47192 1.4453 3.47192 3.46924 0 1.84996-1.21597 3.06713-2.7786 3.35565-4.97588.86825-8.38779 5.22227-8.38779 11.24599v10.09361c0 1.91142-1.55996 3.47272-3.53191 3.47272-1.90795 0-3.46791-1.50517-3.46791-3.47272V19.3365m20.81414.01413c0-1.96661 1.5093-3.53124 3.47325-3.53124 1.96662 0 3.52924 1.56463 3.52924 3.53124v24.62806c0 1.96448-1.56262 3.46698-3.52924 3.46698-1.91062 0-3.47325-1.5025-3.47325-3.46698V19.35062m10.53174.01347c0-1.96662 1.5053-3.52751 3.46924-3.52751 1.96929 0 3.53058 1.5609 3.53058 3.52751v1.4365c1.97062-2.83593 4.80122-4.98174 9.5451-4.98174 6.88516 0 10.87973 4.63068 10.87973 11.68837v16.46719c0 1.96608-1.50663 3.47231-3.47325 3.47231-1.96662 0-3.52791-1.50623-3.52791-3.47231V29.64877c0-4.74202-2.37194-7.46342-6.5385-7.46342-4.04924 0-6.88517 2.83487-6.88517 7.58275v14.2063c0 1.9661-1.5613 3.47232-3.53058 3.47232-1.90795 0-3.46924-1.50623-3.46924-3.47231V19.36409m45.92952 22.01145c-4.80655 0-8.73712-3.7619-8.73712-9.77989v-.1136c0-5.90038 3.98924-9.77735 8.73712-9.77735 4.74521 0 8.91044 3.93537 8.91044 9.77735v.1136c0 5.84506-4.16523 9.77989-8.91044 9.77989m12.25969-25.63163c-1.96395 0-3.52658 1.56557-3.52658 3.52965v2.08221c-2.2586-3.18072-5.4372-5.72599-10.4104-5.72599-7.1785 0-14.17698 5.6676-14.17698 15.85227v.1136c0 10.12628 6.94116 15.85107 14.17698 15.85107 5.0612 0 8.23579-2.51807 10.3784-5.3332-.35066 5.50146-3.71857 8.40609-9.62642 8.40609-3.52658 0-6.5945-.87081-9.37577-2.43584-.34666-.16933-.74531-.28386-1.26797-.28386-1.61996 0-2.95459 1.33224-2.95459 2.88948 0 1.33174.75331 2.31505 1.97195 2.77806 3.69724 1.79422 7.51315 2.72024 11.79704 2.72024 5.49986 0 9.78242-1.32966 12.55968-4.10823 2.53994-2.54786 3.92924-6.36176 3.92924-11.51377V19.27356c0-1.96408-1.50396-3.52965-3.47458-3.52965m-61.69046-8.35499c0 1.94675-1.5813 3.52965-3.53058 3.52965-1.95061 0-3.5279-1.5829-3.5279-3.52965 0-1.95208 1.57729-3.52804 3.5279-3.52804 1.94929 0 3.53058 1.57596 3.53058 3.52804M57.24124 45.35464c-7.76128 10.34088-24.34046 6.85034-34.96993 7.3524 0 0-1.88169.1047-3.77697.41666 0 0 .71665-.30571 1.63062-.62081 7.46555-2.58171 10.9936-3.10048 15.52988-5.43056 8.52326-4.36602 17.00584-13.87632 18.7318-23.75567-3.24419 9.50176-13.11114 17.67969-22.09531 21.00054-6.14932 2.26914-17.26984 4.47749-17.27144 4.47842.0052.00787-.44319-.2328-.44945-.238-7.5628-3.6795-7.78102-20.05936 5.95451-25.33936 6.02225-2.3166 11.78264-1.04424 18.29288-2.5938 6.94356-1.6509 14.9855-6.85556 18.25421-13.66006 3.66444 10.86906 8.06646 27.87384.1692 38.39024zm.13493-41.75829c-.92398 2.19515-2.05155 4.17323-3.35152 5.94252C48.30293 3.66662 40.31673.00791 31.48935.00791 14.1251.0079 0 14.13462 0 31.49565 0 40.5969 3.8848 48.8051 10.07839 54.55857l.68957.61092c-1.15153-.93904-1.3286-2.63015-.3953-3.78272.93903-1.1531 2.6317-1.33174 3.78379-.39791 1.15517.93591 1.33116 2.63119.39585 3.78584-.93184 1.15518-2.6276 1.32966-3.7812.39739l.46925.41561c5.47857 4.61292 12.54079 7.3993 20.249 7.3993 16.59745 0 30.2263-12.91634 31.39294-29.219.86398-7.9822-1.4937-18.11782-5.50612-30.17165m184.42445 14.3527h-1.09997v1.45624h1.09997c.356 0 .74532-.28746.74532-.71092 0-.45785-.38933-.74531-.74532-.74531zm.67865 3.60512l-1.06797-1.6249h-.71065v1.6249h-.57465V17.4408h1.67462c.69465 0 1.33863.49212 1.33863 1.25356 0 .91345-.81464 1.21864-1.05064 1.21864l1.10131 1.64116zm-.98264-5.11187c-1.6933 0-3.04792 1.3541-3.04792 3.04792 0 1.6749 1.35463 3.04672 3.04792 3.04672 1.67462 0 3.04659-1.37183 3.04659-3.04672 0-1.69382-1.37197-3.04792-3.0466-3.04792zm0 6.6369c-1.98128 0-3.58924-1.6089-3.58924-3.58898 0-1.99902 1.60796-3.59004 3.58924-3.59004 1.99728 0 3.58924 1.59102 3.58924 3.59004 0 1.98008-1.59196 3.58898-3.58924 3.58898" fill="#5fb832"/></svg>