<svg xmlns="http://www.w3.org/2000/svg" role="img" viewBox="-7.13 -7.13 346.75 370.50"><title>Swift logo</title><path fill="#201916" d="M39.98967 312.80676l8.19086-11.17839c4.86401 4.0103 10.41014 6.74103 16.21213 6.74103 4.09576 0 6.22904-1.79169 6.22904-4.35149v-.08693c0-2.389-1.79275-3.83857-8.78885-6.31291-11.26278-3.84004-19.19845-7.93473-19.19845-18.77193v-.25466c0-10.8368 8.27686-18.4314 21.33173-18.4314 8.02007 0 15.10216 2.21874 21.33067 7.25301l-7.7638 11.43305c-4.09577-3.15565-9.04458-5.46133-13.9086-5.46133-3.49777 0-5.46079 1.70822-5.46079 3.92697v.08386c0 2.64527 1.87756 4.0103 9.4711 6.82637 11.34878 3.66817 18.43034 8.27592 18.43034 18.42873v.1708c0 11.60651-8.95911 18.773-21.75786 18.773-8.87418 0-17.32143-2.7306-24.31752-8.78778m47.18882-51.7935h16.2116l8.36178 34.55646 9.29977-34.72673h13.22634l9.3851 34.72673 8.36245-34.55647h15.87027l-16.63825 60.0693H137.1779l-9.64096-33.0205-9.64202 33.0205h-14.07818l-16.63825-60.0693m86.3545 0h15.35829v59.72824h-15.35829v-59.72824m24.57406 0h40.61365v13.82259H213.464v10.58094h22.6981v13.22526H213.464v22.09945h-15.35695v-59.72824m59.04785 13.82259h-14.7623v-13.82259h44.88155v13.82259h-14.7623v45.90565H257.1549v-45.90565"/><path fill="#4ca6e1" d="M6.84098 345.92205c0-1.09997-.4026-1.69319-1.14372-1.69319-1.88485 0-3.1343 3.5145-3.1343 5.23165 0 1.24789.44478 1.8838 1.22861 1.8838 1.71559 0 3.0494-3.70668 3.0494-5.42226zm1.63069 3.64367c-.16928.55102-.2328.93225-.2328 1.20673 0 .3599.16925.5505.48695.5505.46614 0 .93227-.71976 1.41923-2.13848l1.01612.31718c-.8255 2.58431-1.96921 3.5374-3.26085 3.5374-.9958 0-1.73693-.63487-1.73693-1.864 0-.14947 0-.25469.02135-.46665l-.14844-.0625c-.80466 1.58902-2.01244 2.39316-3.21918 2.39316C.99529 353.03906 0 351.53494 0 349.67092c0-2.15984.8682-4.08792 2.01246-5.20873.99528-1.01768 2.11765-1.60938 3.30355-1.60938 1.18643 0 1.8635.82503 2.05411 1.77864l.42395-1.63065h2.414l-1.7364 6.56492m13.29965 1.75723c.4448 0 .89011-.67706 1.46197-2.13848l.9953.31718c-.8469 2.56295-2.03328 3.5374-3.24005 3.5374-1.1437 0-1.88542-.74112-1.88542-1.9692 0-2.1187 1.39797-4.21605 1.39797-5.65612 0-.48644-.212-.69841-.57185-.69841-.97398 0-2.79527 1.60933-4.49003 8.11177h-2.5411l1.82086-6.86234c.31759-1.20672.25466-1.54526-.1272-1.54526-.48692 0-1.03744.91039-1.65147 2.22234l-.9953-.42239c.91093-2.11765 1.96919-3.34677 3.38848-3.34677.91091 0 1.54636.65621 1.54636 1.97077 0 .61457-.1276 1.376-.44532 2.3489l.1484.06405c1.39783-2.98534 2.96446-4.40358 4.46869-4.40358 1.18583 0 1.92755.9318 1.92755 2.2026 0 1.79839-1.5677 4.5103-1.5677 5.80089 0 .31875.12707.46665.35986.46665m10.568-3.34626c0 2.45723 1.20677 3.64366 3.19726 3.64366 3.45258 0 4.85041-5.1478 4.85041-7.87845 0-2.45719-1.22864-3.6437-3.19779-3.6437-3.47338 0-4.84988 5.14627-4.84988 7.8785zm4.95561-9.42378c3.47338 0 5.90919 2.47714 5.90919 6.12126 0 4.08635-3.07072 8.49146-7.77274 8.49146-3.47338 0-5.92998-2.4786-5.92998-6.1212 0-4.08643 3.07072-8.49152 7.79353-8.49152m10.90653 11.22478c0 1.03748.44466 1.75725 1.37597 1.75725 1.88488 0 2.94419-3.55825 2.94419-5.23165 0-1.18538-.38172-1.79891-1.1645-1.79891-1.69476 0-3.15566 3.40825-3.15566 5.2733zm-1.71569-5.16758c-.48745 0-.86811.61457-1.54623 2.03172l-.9953-.42239c1.0161-2.32963 2.01194-3.34677 3.34631-3.34677.95304 0 1.5885.69996 1.5885 1.9067 0 .14792-.02147.33854-.04334.52916l.1704.0625c.80464-1.67183 2.09621-2.51822 3.26138-2.51822 1.7785 0 2.79567 1.4599 2.79567 3.4307 0 3.40877-2.35088 6.56494-4.95601 6.56494-1.12237 0-2.01195-.57187-2.4146-1.41977l-.84679 3.15566h1.98995l-.42292 1.56819h-5.86652l.42346-1.5682h1.4401l2.24527-8.38625c.31773-1.18538.21146-1.58797-.16933-1.58797m12.51542 3.24106c2.9442-.31873 4.02377-1.46247 4.02377-2.77597 0-.5932-.33853-1.05726-.97384-1.05726-1.48237 0-2.60474 2.01088-3.04993 3.83323zm-.19013.99477c-.02133.16927-.02133.33853-.02133.48645 0 1.75724.91091 2.30828 1.96915 2.30828 1.0385 0 2.07595-.69895 2.96553-1.9484l.88904.63644c-1.07957 1.54528-2.39314 2.71035-4.63788 2.71035-2.18115 0-3.70618-1.52391-3.70618-3.85459 0-3.26242 2.81713-6.33166 6.14212-6.33166 1.82128 0 2.8374.9094 2.8374 2.2026 0 1.90516-1.99062 3.53585-6.43785 3.79053m17.3449 2.47701c.44426 0 .88945-.67706 1.46143-2.13848l.99518.31718c-.84678 2.56295-2.03328 3.5374-3.23992 3.5374-1.14384 0-1.88542-.74112-1.88542-1.9692 0-2.1187 1.3973-4.21605 1.3973-5.65612 0-.48644-.21133-.69841-.57132-.69841-.97384 0-2.79566 1.60933-4.48989 8.11177h-2.54114l1.82076-6.86234c.31772-1.20672.25466-1.54526-.12653-1.54526-.48692 0-1.03798.91039-1.6521 2.22234l-.9953-.42239c.91104-2.11765 1.96928-3.34677 3.38858-3.34677.91091 0 1.54623.65621 1.54623 1.97077 0 .61457-.1276 1.376-.44532 2.3489l.14853.06405c1.39783-2.98534 2.96499-4.40358 4.46855-4.40358 1.1865 0 1.92755.9318 1.92755 2.2026 0 1.79839-1.5677 4.5103-1.5677 5.80089 0 .31875.1272.46665.36053.46665m4.65815-3.45199h1.5041c.40266 2.5416 1.88488 3.79105 3.74897 3.79105 1.67276 0 2.64674-1.05882 2.64674-2.16036 0-1.22757-1.39784-1.79995-2.90153-2.49837-1.7577-.78384-3.68471-1.7161-3.68471-3.96141 0-2.37074 2.13901-4.48896 4.95561-4.48896 1.50356 0 2.9014.61465 3.60044 1.60943l.86811-1.5453h1.5885l-1.24944 5.0181h-1.48223c-.44479-2.62495-1.5041-3.59986-3.32538-3.59986-1.37663 0-2.351.99477-2.351 2.09621 0 1.33438 1.44009 1.90623 2.96552 2.58383 1.73595.74269 3.5999 1.63172 3.5999 3.85562 0 2.60411-2.3082 4.59469-5.20973 4.59469-1.84275 0-3.21925-.67708-4.02443-1.69476l-.93118 1.6307h-1.5885l1.27024-5.2306m17.42983-3.28222l-1.2713 4.63843c-.14746.5281-.25372 1.01612-.25372 1.2708 0 .57186.29639.76092.74171.76092.76198 0 1.3973-.93019 1.98995-2.2864l1.01664.33853c-1.03744 3.00826-2.66807 3.72803-3.81177 3.72803-1.39796 0-2.3938-.69841-2.3938-2.13848 0-.61457.23332-1.50414.38185-2.09735l1.1437-4.21448h-1.86408l.33852-1.29216h1.86409l.69945-2.54106 2.51967-.276-.76185 2.81706h3.0066l-.33853 1.29216h-3.00713m10.71587 1.3333c0-1.09997-.40266-1.69319-1.14424-1.69319-1.88435 0-3.13379 3.5145-3.13379 5.23165 0 1.24789.4448 1.8838 1.22864 1.8838 1.71502 0 3.04939-3.70668 3.04939-5.42226zm1.63063 3.64367c-.1692.55102-.23333.93225-.23333 1.20673 0 .3599.16933.5505.48705.5505.46612 0 .93225-.71976 1.41917-2.13848l1.0161.31718c-.8249 2.58431-1.96915 3.5374-3.26085 3.5374-.9953 0-1.73689-.63487-1.73689-1.864 0-.14947 0-.25469.02187-.46665l-.1484-.0625c-.80518 1.58902-2.01248 2.39316-3.21978 2.39316-1.8213 0-2.81713-1.50412-2.81713-3.36814 0-2.15984.86878-4.08792 2.01248-5.20873.99584-1.01768 2.11821-1.60938 3.30405-1.60938 1.1865 0 1.86355.82503 2.05422 1.77864l.42332-1.63065h2.4146l-1.73648 6.56492m12.38875-4.21448c0 .9109-.57132 1.8213-1.48223 1.8213-.76251 0-1.24943-.5078-1.24943-1.14372 0-.59373.35985-1.08017.86824-1.44007-.16986-.29634-.52972-.52967-1.16517-.52967-2.11755 0-3.36711 3.24003-3.36711 5.08269 0 1.82286.97397 2.39317 1.92715 2.39317.97384 0 1.90608-.69843 2.75353-2.01194l.91038.61353c-.91038 1.58903-2.15982 2.90253-4.23537 2.90253-2.33007 0-3.89723-1.58798-3.89723-3.8973 0-3.30408 2.83793-6.28895 5.86652-6.28895 1.77915 0 3.07072.9943 3.07072 2.49843m8.98004 5.97171c.46613 0 .86812-.67706 1.41877-2.13848l.99597.31718c-.8053 2.56295-1.90648 3.5374-3.13512 3.5374-1.18583 0-1.96915-.78383-1.96915-2.15983 0-.59321.2328-1.44007.2328-1.90673 0-.78383-.33906-.97445-1.88542-.97445h-.04214l-1.2917 4.82905h-2.39314l3.43125-12.93981h-1.75836l.42346-1.65196h4.21443l-2.37128 8.8091h.1052c1.12237 0 1.5885-.63436 2.52074-2.1812.69905-1.14268 1.39796-2.01041 2.6474-2.01041 1.01637 0 1.56703.6344 1.56703 1.54532 0 .88904-.57199 1.77965-1.4405 1.77965-.84678 0-1.29104-.7427-.9953-1.61038-.29574.06405-.61346.42395-1.10105 1.22913-.42332.7828-.76238 1.22653-1.39836 1.56559 1.5041.1276 1.99115.78383 1.99115 1.77965 0 .61352-.16933 1.22809-.16933 1.60933 0 .42395.16933.57185.40265.57185m11.58385-4.06656c0-4.25559 3.13459-8.70348 7.79314-8.70348 1.75862 0 3.07059.63439 3.7919 1.71463l.86798-1.6505h1.63063l-1.35597 5.5061h-1.58796c-.212-3.04882-1.54663-4.02493-3.26125-4.02493-3.74924 0-5.04121 5.04105-5.04121 7.37016 0 2.81764 1.43996 4.0025 3.28259 4.0025 2.24527 0 3.55857-1.69318 4.61721-4.19312l1.50397.52968c-1.05998 2.96502-3.02926 5.3582-6.41718 5.3582-3.89723 0-5.82385-2.4786-5.82385-5.90924m19.23018-3.23845c-1.97061 0-3.09325 3.85302-3.09325 5.90766 0 1.35622.57198 1.92807 1.48263 1.92807 1.97061 0 3.09192-3.85563 3.09192-5.90922 0-1.3557-.57065-1.92651-1.4813-1.92651zm4.00124 2.92127c0 3.3041-2.6466 6.09985-5.59053 6.09985-2.43594 0-4.0239-1.7161-4.0239-4.10927 0-3.30252 2.6466-6.07698 5.59053-6.07698 2.43594 0 4.0239 1.69323 4.0239 4.0864m13.76632 4.13063c0-2.1187 1.3973-4.21604 1.3973-5.65611 0-.48644-.212-.69841-.57199-.69841-.93064 0-2.77326 1.60933-4.46789 8.11177h-2.49993l1.48396-5.59049c.18933-.69998.296-1.20778.296-1.60933 0-.50936-.16934-.91195-.636-.91195-.9733 0-2.79592 1.60933-4.49055 8.11177h-2.53993l1.81995-6.86234c.31866-1.20672.25466-1.54526-.12666-1.54526-.48666 0-1.0373.91039-1.65196 2.22234l-.99464-.42239c.91064-2.11765 1.96928-3.34677 3.38791-3.34677.91065 0 1.54663.65621 1.54663 1.97077 0 .61457-.128 1.376-.44532 2.3489l.148.06405c1.39863-2.98534 2.96525-4.40358 4.40655-4.40358 1.16397 0 1.77862.78232 1.77862 2.0547 0 .59164-.16933 1.31193-.48798 2.28483l.14933.06405c1.3973-2.98534 2.96392-4.40358 4.46788-4.40358 1.1653 0 1.90662.9318 1.90662 2.2026 0 1.79839-1.56796 4.5103-1.56796 5.80089 0 .31875.128.46665.36.46665.44532 0 .89064-.67706 1.46129-2.13848l.99597.31718c-.84664 2.56295-2.03328 3.5374-3.23991 3.5374-1.14398 0-1.88529-.74112-1.88529-1.9692m18.57287 0c0-2.1187 1.39863-4.21605 1.39863-5.65612 0-.48644-.212-.69841-.57199-.69841-.93197 0-2.7746 1.60933-4.46922 8.11177h-2.49993l1.48396-5.59049c.18933-.69998.29466-1.20778.29466-1.60933 0-.50936-.16933-.91195-.63332-.91195-.97598 0-2.79726 1.60933-4.49055 8.11177h-2.5426l1.82261-6.86234c.31733-1.20672.25333-1.54526-.12666-1.54526-.48799 0-1.0373.91039-1.65196 2.22234l-.99597-.42239c.91064-2.11765 1.96928-3.34677 3.38925-3.34677.9093 0 1.54529.65621 1.54529 1.97077 0 .61457-.12666 1.376-.44399 2.3489l.148.06405c1.3973-2.98534 2.96526-4.40358 4.40522-4.40358 1.16397 0 1.77862.78232 1.77862 2.0547 0 .59164-.16933 1.31193-.48665 2.28483l.148.06405c1.3973-2.98534 2.96392-4.40358 4.46788-4.40358 1.1653 0 1.90662.9318 1.90662 2.2026 0 1.79839-1.56796 4.5103-1.56796 5.80089 0 .31875.128.46665.36133.46665.44398 0 .8893-.67706 1.4613-2.13848l.99597.31718c-.84798 2.56295-2.03462 3.5374-3.24126 3.5374-1.14263 0-1.88528-.74112-1.88528-1.9692m13.025-.02136c0-.52916.12667-1.33487.46533-2.41608l-.14666-.06147c-1.39864 3.06973-2.88127 4.46812-4.40656 4.46812-1.16397 0-1.92662-.9104-1.92662-2.2239 0-1.78016 1.50396-4.59572 1.50396-5.80246 0-.29738-.128-.4453-.31866-.4453-.44532 0-.80398.4651-1.56662 2.05463l-.99598-.42395c.86931-2.0963 1.99195-3.34527 3.45191-3.34527 1.12264 0 1.77996.69847 1.77996 1.92656 0 1.96923-1.39863 4.21448-1.39863 5.5707 0 .59165.23333.82498.59332.82498.9533 0 2.7106-1.56663 4.44789-8.17425h2.54127l-1.7373 6.56492c-.16932.57081-.23332.93225-.23332 1.20673 0 .3599.192.5505.48799.5505.48798 0 .93197-.71976 1.41863-2.13848l1.0173.31718c-.8253 2.58431-1.97061 3.5374-3.17725 3.5374-1.1013 0-1.79995-.61455-1.79995-1.99056m15.10095.27446c.444 0 .88931-.67706 1.45997-2.13848l.99464.31718c-.84531 2.56295-2.03195 3.5374-3.23859 3.5374-1.1453 0-1.88528-.74112-1.88528-1.9692 0-2.1187 1.3973-4.21605 1.3973-5.65612 0-.48644-.212-.69841-.57066-.69841-.97597 0-2.79726 1.60933-4.49055 8.11177h-2.5426l1.82262-6.86234c.31732-1.20672.25332-1.54526-.12667-1.54526-.48799 0-1.0373.91039-1.65196 2.22234l-.99597-.42239c.91064-2.11765 1.96928-3.34677 3.38791-3.34677.91065 0 1.54663.65621 1.54663 1.97077 0 .61457-.12666 1.376-.44399 2.3489l.148.06405c1.3973-2.98534 2.96526-4.40358 4.46922-4.40358 1.18397 0 1.92662.9318 1.92662 2.2026 0 1.79839-1.56796 4.5103-1.56796 5.80089 0 .31875.128.46665.36132.46665m7.79047-9.95437c-.73998 0-1.31196-.50786-1.31196-1.35477 0-.86918.65598-1.86395 1.77862-1.86395.80398 0 1.35597.50825 1.35597 1.35623 0 .84785-.69865 1.86249-1.82263 1.86249zm-1.01464 9.44659c0 .35988.148.50778.42266.50778.40266 0 .86798-.57185 1.50396-2.13848l.99464.31718c-.82531 2.49994-2.01195 3.5374-3.36658 3.5374-1.10264 0-1.90662-.71976-1.90662-1.99056 0-2.0135 1.7573-4.8504 1.7573-6.1639 0-.33855-.12534-.4651-.31733-.4651-.59199 0-1.12264.91039-1.71463 2.22234l-1.0173-.42239c.91064-2.11765 2.03461-3.36663 3.47457-3.36663 1.09998 0 1.88396.78232 1.88396 2.13854 0 1.65048-1.71463 4.59467-1.71463 5.82382m8.4918-6.22642l-1.27064 4.63843c-.14933.5281-.256 1.01612-.256 1.2708 0 .57186.29733.76092.74265.76092.76131 0 1.3973-.93019 1.99062-2.2864l1.0173.33853c-1.03997 3.00826-2.66926 3.72803-3.81323 3.72803-1.3973 0-2.39328-.69841-2.39328-2.13848 0-.61457.23333-1.50414.38133-2.09735l1.14397-4.21448h-1.86395l.33865-1.29216h1.86396l.69865-2.54106 2.51993-.276-.76131 2.81706h3.00792l-.33999 1.29216h-3.00659m8.34513.10521c0 1.94787-1.2293 3.8546-1.2293 5.08373 0 .5281.23199.74164.69864.74164 1.12264 0 2.6266-1.27236 4.2359-7.51853h2.37194l-1.94929 8.17425c-.9093 3.8973-3.04926 5.25195-5.69586 5.25195-1.48396 0-3.26258-.4026-3.26258-1.96922 0-.6776.50799-1.52548 1.4613-1.52548.84797 0 1.27063.59321 1.2293 1.2932-.02267.33904-.212.72028-.424.90934.25467.08542.572.14948.97465.14948 1.65063 0 2.77327-1.33434 3.49325-4.27854l.42532-1.67339-.128-.06406c-1.22797 2.24682-2.54127 3.07232-3.76924 3.07232-1.39863 0-2.09594-.97498-2.09594-2.20412 0-1.62912 1.35463-3.91709 1.35463-5.12383 0-.275-.128-.4453-.31733-.4453-.53065 0-1.0373.86769-1.61062 2.07443l-.99464-.42239c.93197-2.11765 2.09594-3.36663 3.49458-3.36663 1.07864 0 1.73729.71982 1.73729 1.84115m17.32223 1.05883c2.7106 0 3.6639-1.6937 3.6639-3.32384 0-1.2297-.74264-1.96982-2.83859-1.96982h-.91064l-1.3133 5.29366zm-2.7746 5.48631h2.30794l-.35999 1.58799h-7.11582l.36-1.58799h2.1386l2.66927-10.75957h-2.15994l.40132-1.5881h5.86652c3.83457 0 5.29453 1.5677 5.29453 3.55885 0 2.11712-1.45996 4.8061-6.71316 4.8061h-1.69463l-.99464 3.98272m12.70635-5.27435c.31733-1.20672.25333-1.54526-.12666-1.54526-.488 0-1.03731.91039-1.65196 2.22234l-.99598-.42239c.91198-2.11765 1.96929-3.34677 3.38925-3.34677.91065 0 1.5453.65621 1.5453 1.97077 0 .61457-.12667 1.35464-.42266 2.28795l.16933.06095c1.22797-2.79421 2.24394-4.33953 3.7279-4.33953.88932 0 1.5453.61306 1.5453 1.60938 0 1.0583-.67732 1.90517-1.5253 1.90517-.73998 0-1.31196-.48698-1.27063-1.376-.61465.2531-2.13861 2.05306-3.6639 7.83573h-2.54128l1.82129-6.86234m13.237-1.94681c-1.97061 0-3.09325 3.85302-3.09325 5.90766 0 1.35622.57198 1.92807 1.48396 1.92807 1.96795 0 3.09059-3.85563 3.09059-5.90922 0-1.3557-.57199-1.92651-1.4813-1.92651zm4.00257 2.92127c0 3.3041-2.64793 6.09985-5.59186 6.09985-2.43594 0-4.0239-1.7161-4.0239-4.10927 0-3.30252 2.64793-6.07698 5.59186-6.07698 2.4346 0 4.0239 1.69323 4.0239 4.0864m6.50117-5.57063c-.74131 0-1.3133-.50786-1.3133-1.35477 0-.86918.67865-1.86395 1.77862-1.86395.80532 0 1.35597.50825 1.35597 1.35623 0 .84785-.69865 1.86249-1.82129 1.86249zm.40266 5.29616l-1.33464 5.06082c-.8893 3.36658-2.54127 4.70144-4.49055 4.70144-1.4813 0-2.11728-.69842-2.11728-1.50414 0-.78383.57198-1.5036 1.3973-1.5036.71998 0 1.1013.53072 1.1013 1.08123 0 .4453-.16933.80362-.33866 1.01716.91065.01979 1.27197-.53072 2.05462-3.55876l1.3973-5.3582c.128-.50832.31866-1.24945.31866-1.69319 0-.3828-.16933-.48801-.36-.48801-.50931 0-1.05997.91039-1.67329 2.22234l-.99597-.42239c.91198-2.11765 2.01328-3.36663 3.49458-3.36663 1.0813 0 1.84262.82503 1.84262 2.01041 0 .48802-.10533 1.08123-.296 1.80152m4.76522 1.18643c2.94393-.31873 4.02257-1.46247 4.02257-2.77597 0-.5932-.33866-1.05726-.97331-1.05726-1.48396 0-2.60527 2.01088-3.04926 3.83323zm-.192.99477c-.02133.16927-.02133.33853-.02133.48645 0 1.75724.91065 2.30828 1.97062 2.30828 1.0373 0 2.07595-.69895 2.96526-1.9484l.88931.63644c-1.07997 1.54528-2.39327 2.71035-4.63855 2.71035-2.18128 0-3.70657-1.52391-3.70657-3.85459 0-3.26242 2.81726-6.33166 6.14118-6.33166 1.82128 0 2.8386.9094 2.8386 2.2026 0 1.90516-1.99063 3.53585-6.43851 3.79053m16.64625-3.4947c0 .9109-.57199 1.8213-1.48263 1.8213-.76265 0-1.2493-.5078-1.2493-1.14372 0-.59373.35999-1.08017.86797-1.44007-.16933-.29634-.52932-.52967-1.16397-.52967-2.11861 0-3.36791 3.24003-3.36791 5.08269 0 1.82286.97464 2.39317 1.92661 2.39317.97465 0 1.90662-.69843 2.75327-2.01194l.91064.61353c-.91064 1.58903-2.15994 2.90253-4.2359 2.90253-2.32927 0-3.89723-1.58798-3.89723-3.8973 0-3.30408 2.8386-6.28895 5.86786-6.28895 1.77862 0 3.07059.9943 3.07059 2.49843m5.90918-.7625l-1.27063 4.63844c-.148.5281-.25466 1.01612-.25466 1.2708 0 .57186.29599.76092.74131.76092.76132 0 1.3973-.93019 1.99062-2.2864l1.01597.33853c-1.0373 3.00826-2.66793 3.72803-3.81057 3.72803-1.39863 0-2.39327-.69841-2.39327-2.13848 0-.61457.23333-1.50414.37999-2.09735l1.14397-4.21448h-1.86395l.33999-1.29216h1.86262l.69998-2.54106 2.5186-.276-.76131 2.81706h3.00792l-.33999 1.29216h-3.00659m-99.8495-289.33289c0 3.98924-1.32264 8.81578-3.82524 13.95699-.67065 1.3853-1.98528 2.34127-3.51324 2.55193-1.51463.20933-3.02393-.34799-4.03724-1.49063-2.5106-2.7866-5.03854-5.4572-7.49981-7.91713-2.47327-2.47327-5.13587-4.99454-7.91714-7.49581-.96797-.86265-1.53062-2.11195-1.53062-3.41725 0-1.7773.99464-3.36392 2.59593-4.1399 9.96242-4.84788 18.20355-5.10387 22.6061-.69998 2.04395 2.05328 3.12126 5.04387 3.12126 8.65178M102.6969 12.6516c0 1.22264-.47972 2.37595-1.35103 3.24526L93.0498 24.2113c-.86825.86797-2.02289 1.34663-3.25312 1.34663-1.23064 0-2.38488-.47732-3.25152-1.34397l-10.3736-10.3744c-.86985-.88265-1.34117-2.02662-1.34117-3.23592 0-1.28264.53545-2.51994 1.46876-3.39325.92024-.86265 2.12808-1.29064 3.39885-1.20664 6.35144.39066 12.79501 1.09864 19.13805 2.10395 2.24208.36399 3.86084 2.2746 3.86084 4.54388m25.76549 5.8852c0 1.2373-.48639 2.3946-1.3713 3.2639l-18.22821 18.22755c-.86558.86665-2.01768 1.34397-3.24259 1.34397-1.22503 0-2.37647-.47732-3.24312-1.34397l-7.41394-7.41448c-.86718-.86664-1.34424-2.01861-1.34424-3.24258s.47706-2.37594 1.34317-3.24259l13.97992-13.97832c1.12757-1.1293 2.7838-1.59862 4.32229-1.2253 4.00096.93998 8.02526 2.01995 11.94237 3.20525 1.95048.59732 3.25565 2.36661 3.25565 4.40656m23.06182 8.57179c0 1.2293-.48132 2.38794-1.35463 3.25991l-25.47376 25.49137c-.86612.86798-2.02129 1.3453-3.25152 1.3453-1.2301 0-2.38474-.47732-3.25139-1.34397l-7.39981-7.41715c-.86465-.8653-1.3417-2.01595-1.3417-3.23992s.47705-2.37594 1.34316-3.24258l22.39691-22.4141c1.2785-1.27864 3.19712-1.69063 4.88774-1.05065 3.48392 1.3173 7.0945 2.8026 10.7264 4.41456 1.65996.75198 2.7186 2.39594 2.7186 4.19723m16.55959 15.08229c0 1.2173-.49199 2.4066-1.35064 3.26391l-26.222 26.22202c-.86665.86664-2.01862 1.34263-3.2426 1.34263-1.2253 0-2.37727-.47599-3.24391-1.34263l-7.41115-7.39582c-.87864-.89998-1.3469-2.04795-1.3469-3.25992 0-1.2253.47719-2.37727 1.3433-3.24392l27.82224-27.82197c.90531-.90664 2.15728-1.39863 3.43191-1.35196 1.2613.04533 2.4586.61998 3.28259 1.57462 2.65726 3.07326 4.85321 6.4785 6.5265 10.12108.276.61465.41066 1.24264.41066 1.89196m3.49724 15.97293c0 7.6558-2.05861 15.15029-5.96385 21.74212-.06666.33066-.19333.65332-.38265.95465-1.7453 2.7866-3.49592 5.69719-5.2012 8.65178-.72266 1.24797-1.9533 2.06928-3.37992 2.25594-1.4253.18667-2.8226-.28666-3.8359-1.29996L142.4431 80.0939c-.86665-.86665-1.34397-2.01862-1.34397-3.24259s.47732-2.37594 1.34263-3.24258l21.2248-21.22347c1.2533-1.27464 3.17326-1.6973 4.87322-1.05998 1.71062.64265 2.83993 2.17062 2.94659 3.98924.06266.9293.09466 1.89462.09466 2.84926m50.4774 47.91747c0 1.22397-.47865 2.37594-1.34662 3.24525l-21.2768 21.27547c-.86532.86664-2.01729 1.34263-3.24126 1.34263-1.2253 0-2.37727-.47599-3.24392-1.34396l-10.38907-10.39041c-.86931-.86798-1.34797-2.01862-1.34797-3.23859 0-1.63196.88131-3.15458 2.29995-3.9759 3.11325-1.80795 6.01584-3.56258 8.62645-5.2132.25999-.164.53732-.28266.81998-.356 7.56114-4.50388 16.13693-6.55316 24.8567-5.93451 2.41861.17066 4.24257 2.14395 4.24257 4.58922m22.37944 9.25043c0 1.2173-.49066 2.40661-1.34797 3.26259l-27.82197 27.82197c-1.82662 1.78262-4.73188 1.77196-6.5025 0l-7.39715-7.39715c-.86665-.86664-1.34397-2.01861-1.34397-3.24525 0-1.21064.468-2.3586 1.3173-3.23059l26.26735-26.26734c1.35596-1.35597 3.42791-1.73329 5.15587-.93864 3.65057 1.69595 7.04382 3.8999 10.09708 6.55583 1.00264.85465 1.57596 2.10662 1.57596 3.43858m10.3904 21.26214c0 1.23197-.47865 2.38927-1.34796 3.25858l-22.39677 22.39678c-.86532.86664-2.01729 1.34396-3.24259 1.34396-1.2253 0-2.37727-.47732-3.24392-1.3453l-7.41315-7.41314c-.86664-.86665-1.34396-2.01862-1.34396-3.24259s.47732-2.37594 1.34263-3.24258l25.47536-25.47537c1.08131-1.07997 2.6226-1.55596 4.12523-1.2733 1.48663.28 2.73594 1.27197 3.33859 2.65193 1.50796 3.35859 2.99459 6.97183 4.40922 10.7144.19733.52132.29733 1.06931.29733 1.62663m7.40114 24.2594c0 1.22396-.47998 2.3786-1.35196 3.24924l-13.96232 13.96232c-.84265.86531-2.00528 1.35597-3.24925 1.3573-1.24397 0-2.40794-.49199-3.27859-1.38396l-7.37181-7.37182c-.86665-.86664-1.34397-2.01862-1.34397-3.24258 0-1.22397.47732-2.37461 1.34397-3.24126l18.2302-18.24754c1.18265-1.1613 2.81994-1.60396 4.39723-1.20264 1.5653.39866 2.77993 1.55596 3.25192 3.0986 1.18797 3.94256 2.26661 7.96513 3.21192 11.96503.08133.34932.12266.70398.12266 1.0573m4.78788 32.77118c0 1.8493-1.10797 3.50392-2.8226 4.21323-1.72128.71332-3.68657.32133-5.00653-.99864l-10.35708-10.35707c-.86664-.86665-1.34396-2.01862-1.34396-3.24259s.47732-2.3746 1.34396-3.24125l8.2998-8.2998c1.22796-1.22796 3.01725-1.65995 4.66788-1.12663 1.64796.53198 2.8426 1.92128 3.11859 3.62524.99064 6.24251 1.69329 12.67435 2.09061 19.12752.00533.09467.00933.19733.00933.3"/><path fill="#3a66ba" d="M167.67314 40.2989c-1.54663-3.36791-6.09851-7.59714-8.59845-10.48907-.61065-.70798-1.2253-.90664-1.92662-.32132-4.61988 8.19046-8.20646 22.47944-8.67178 32.43785l18.94886-17.66356c.49332-.49332.53732-3.31858.248-3.9639m-9.4611 51.78138c1.71729-2.97593 5.25453-8.39713 7.02249-11.21972l.38265-.95465c4.57456-7.33048 5.56386-17.89688 5.01988-26.00868-.08533-1.4453-3.79724-4.2479-4.81722-3.21192l-17.02224 16.70092c.80665 5.83852 2.85327 14.93962 5.16654 20.14083l1.5773 4.91054c.78264.78131 2.10928.61198 2.6706-.35732m61.56379 10.31307c-8.14646-.57732-18.5782.392-25.95935 4.98388l.232.14933c.01333-.12933-.12134-.21733-.232-.14933-2.84926 1.75862-7.43582 3.95323-10.30374 5.61852-.96931.56132-2.11329 2.08795-1.31464 2.8866l.96398 2.56927c5.21187 2.31727 15.6676 4.97587 21.51813 5.78119l16.37959-17.02091c1.01997-1.02131.16133-4.71588-1.28397-4.81855m23.08609 9.49976c-2.8906-2.51727-7.51448-5.68652-10.8824-7.25182-.62931-.28799-3.68124.14933-4.17456.64266l-17.02224 19.27018c9.96375-.46932 24.24606-3.72257 32.43786-8.35046.55465-.68931.34132-3.72124-.35866-4.31056m-23.26609-34.14314c0 .98664-.31066 1.93062-.8973 2.72926-2.8986 3.89324-6.24252 7.7318-9.94776 11.42105-11.15572 11.17172-36.2111 24.52872-55.26528 33.76582-1.43597.69332-3.0906.60399-4.42923-.236-1.33596-.83864-2.16528-2.3266-2.16528-3.8839 0-.70131.16-1.38396.47466-2.02794 9.1851-18.98753 22.49944-43.99757 33.74716-55.26129 3.6559-3.6559 7.4918-6.9905 11.40238-9.91442 1.71062-1.30663 4.08923-1.22797 5.75852.208 1.79062 1.5573 3.33992 2.94792 4.74788 4.26256.91731.83598 1.45863 2.06395 1.45863 3.34658 0 .73598-.17866 1.4773-.51865 2.14128-.70665 1.3933-1.49063 3.8759-2.20395 6.9545 3.9439-.90532 5.95319-1.6853 6.9665-2.20529 1.87995-.93997 4.06656-.55865 5.46786.93331 1.55463 1.68396 2.9466 3.23459 4.27322 4.75722.72399.81731 1.13064 1.89195 1.13064 3.00926"/><path fill="#201916" d="M224.36372 48.6467c3.33325 3.35058 3.07726 10.39173-1.25863 19.30218-.52799 1.08797-1.99062 1.3093-2.78926.40799-2.46528-2.73727-4.99988-5.4252-7.61848-8.0438-2.6186-2.6186-5.3052-5.15187-8.02647-7.60114-.91864-.81598-.69731-2.27861.39066-2.80527 8.91178-4.33722 15.96893-4.59188 19.30218-1.25997zM212.08536 71.9621c1.42797 1.54796 2.8226 3.09592 4.1999 4.67722.52799.59465.56132 1.47863.08533 2.12528-2.6706 3.5879-5.86652 7.31182-9.65976 11.08772-11.29172 11.30905-37.75239 25.1007-54.48664 33.2125-1.4453.69732-2.97592-.81598-2.26127-2.2786 8.09446-16.73425 21.90345-43.1776 33.19517-54.48664 3.7919-3.79324 7.51714-6.97183 11.08772-9.64243.64665-.49332 1.53063-.44265 2.14261.08533 1.5653 1.35997 3.12926 2.7546 4.65989 4.18256.57865.528.69731 1.3613.33999 2.05862-1.27464 2.51594-2.29594 6.78516-2.85726 9.4891-.23733 1.20663.81731 2.26127 2.00661 2.00661 2.70394-.56132 6.9905-1.56396 9.50643-2.85726.67999-.34 1.5133-.22133 2.04128.34zm5.52653 32.41386c1.4453.10133 2.07462 1.88662 1.05464 2.9066l-21.27413 21.27546c-.66399.66265-1.73462.66265-2.3986 0l-10.39042-10.39174c-.79864-.79865-.61198-2.10795.35733-2.66927 2.9586-1.71729 5.90119-3.48658 8.72378-5.27186l.068.10266c7.38115-4.59189 15.71427-6.5305 23.8594-5.95185zm13.94499 3.5879c3.36658 1.56397 6.5305 3.60525 9.4211 6.12119.74798.62932.74798 1.78662.068 2.4666L213.224 144.37363c-.67998.66265-1.75062.66265-2.4146 0l-7.39715-7.39848c-.66399-.66265-.66399-1.73462 0-2.4146l26.23934-26.23935c.49332-.49332 1.27597-.64665 1.90529-.35732zm15.91693 17.44757c1.5653 3.48658 3.0106 7.02383 4.35323 10.57707.23866.62932.08533 1.34397-.39066 1.81996l-22.39677 22.39677c-.66265.66398-1.73463.66398-2.39728 0l-7.41448-7.41448c-.66398-.66265-.66398-1.73463 0-2.39728l25.47403-25.47536c.85065-.84931 2.29594-.59465 2.77193.49332zm8.65579 23.26342c1.1733 3.89457 2.22794 7.8238 3.16392 11.78504.136.57865-.03467 1.17464-.46 1.59863l-13.96098 13.96231c-.66398.67999-1.75195.67999-2.4146 0l-7.39848-7.39714c-.66265-.66399-.66265-1.73463 0-2.39861l18.2302-18.24755c.91865-.9013 2.46661-.52665 2.83994.69732zm5.93585 25.98602c.98664 6.22384 1.66662 12.49835 2.05728 18.8422.10266 1.56395-1.78529 2.39727-2.8906 1.29196l-10.35707-10.35707c-.66265-.66265-.66265-1.73463 0-2.39728l8.29846-8.29846c.98664-.98664 2.6706-.44265 2.89193.91865zM154.86013 88.42437l-10.37308-10.37441c-.66265-.66265-.66265-1.73462 0-2.39727l21.22347-21.22347c1.01998-1.03731 2.80527-.39066 2.8906 1.05464.54398 8.1118-1.3773 16.41025-5.95185 23.74074l.136.10133c-1.76796 2.8226-3.53725 5.76519-5.25454 8.74111-.56132.96931-1.88795 1.13864-2.6706.35733zM136.0686 69.63284l-7.41395-7.39848c-.66305-.67999-.66305-1.75063 0-2.41461l27.82144-27.82064c.69731-.69731 1.83729-.68132 2.4826.068 2.49994 2.8906 4.54122 6.07051 6.08785 9.43843.28933.64532.136 1.41063-.356 1.90395L138.4672 69.63284c-.66398.66265-1.73462.66265-2.3986 0zm-15.83147-15.8156l-7.39782-7.41449c-.66345-.66265-.66345-1.73462 0-2.3986l22.39598-22.41278c.47732-.47599 1.19063-.62932 1.81995-.39199 3.55458 1.34397 7.09182 2.8066 10.5784 4.35456 1.08798.49332 1.34264 1.92128.49199 2.77193L122.6516 53.81723c-.66292.66265-1.75156.66265-2.41447 0zm-15.81574-15.83295l-7.41448-7.41448c-.66345-.66265-.66345-1.73462 0-2.39727l13.97885-13.97832c.42505-.42532 1.03744-.59598 1.59836-.45999 3.9791.93598 7.90767 1.98929 11.78517 3.1626 1.2245.37465 1.61556 1.93994.69732 2.84125L106.8192 37.9843c-.66305.66399-1.7349.66399-2.39781 0zm-15.8324-15.8156L78.21578 11.79562c-1.0885-1.10531-.2552-3.0106 1.2921-2.90793 6.36024.39066 12.65235 1.08797 18.8766 2.07461 1.36036.22133 1.90475 1.90529.91824 2.89193l-8.29873 8.31446c-.66358.66398-1.75209.66398-2.415 0zM196.9324 44.66813c-.61198.35732-1.35997.30666-1.90395-.11867C158.10805 15.1462 112.60132-.5334 64.64478.02791l-6.05411.068c-1.51343.01733-2.26181 1.83595-1.18997 2.8906l91.01426 91.03238c.79998.79865.61331 2.12528-.37333 2.6866l-63.17709 35.1178c-1.58116.88397-.86717 3.29858.93545 3.19591l39.04529-2.2786c2.2958-.136 4.60882.15332 6.70036 1.05463 5.79893 2.4666 9.09751 8.16247 8.75752 14.03032l-2.29594 39.40168c-.10133 1.80262 2.31327 2.49994 3.18125.91864l35.13379-63.17708c.54398-.98531 1.88662-1.1733 2.6866-.37333l91.01506 91.0324c1.07064 1.0533 2.89059.32265 2.90792-1.19064l.068-6.05452c.01733-.83331.01733-1.6493.01733-2.4826 0-47.05483-15.64627-91.60971-44.53888-127.9008-.44132-.544-.49332-1.3093-.136-1.9053 4.45589-7.61847 6.78517-14.84495 6.78517-20.96747 0-.30666-.016-.61198-.03334-.9013h.068V39.54958c0-.93598-.76531-1.7013-1.70129-1.7013h-14.6583v.068c-6.3265-.25465-13.87699 2.09195-21.87012 6.75184"/></svg>