<svg xmlns="http://www.w3.org/2000/svg" role="img" viewBox="-1.48 -1.48 77.22 23.97"><title>Sybase logo</title><path fill="#231f20" d="M7.06277.00013c-4.0175 0-6.28125 2.65753-6.28125 5.65625 0 3.55375 3.88752 4.97503 5.09375 5.59375 1.66875.865 4.18747 1.84749 4.1875 4.96875 0 2.565-1.52501 3.96872-3.875 3.96875-3.39875 0-5.13251-3.67252-5.71875-5.09375l-.46875.125c.3075 1.6375.6575 3.82.9375 4.625.33875.15375.885.40998 1.65625.65625.74125.2475 1.7925.46876 2.90625.53125 3.89375-.0625 6.78125-2.7575 6.78125-6.21875 0-3.67875-2.96378-5.01128-5.25-6.03125-2.35-1.08-4.12498-2.18249-4.125-4.46875 0-1.9475 1.08877-3.56253 3.46875-3.5625 2.70494 0 3.70207 2.08777 4.375 3.90625 0 .00001.04275.10092.0625.15625.0221.0606.04095.1278.0625.1875.02262.06704.01953.1139.03125.15625 1.40625.2675 1.54498.45623 2.5625 2.25 1.5025 2.665 2.38753 4.31999 2.96875 5.3125.5325.89875.62502 1.20748.625 1.59375v2.71875c0 2.61875-.17627 2.91997-2.40625 3.1875v.34375h6.90625v-.34375c-2.32625-.2675-2.53125-.56876-2.53125-3.1875v-3c0-.3875.04-.6525.5-1.5 1.115-2.085 1.97872-3.74252 2.875-5.125.96554-1.48072 1.21789-1.91782 2.5-2.1875 1.56243.26216 1.72674.65587 1.75 3.09375v8.71875c0 2.61875-.21376 2.91997-2.25 3.1875v.34375h5.40625c1.86625 0 3.41374-.25876 4.625-.9375 1.405-.8 2.28126-1.99753 2.28125-3.71875 0-2.4475-1.98874-3.74749-4.21875-4.0625v-.0625c1.1875-.2875 3.18747-1.3375 3.1875-3.46875 0-1.21375-.42627-2.07502-1.25-2.65625-.8-.5575-1.93876-.84377-3.5625-.84375H20.03152v.34375l1 .15625c.89625.17125 1.10622.49248.71875 1.4375-.60625 1.5025-2.16626 4.42378-3.0625 6.09375-1.115-1.84125-3.25002-5.74873-3.46875-6.28125-.3625-.8975-.27002-1.06626.3125-1.1875l1.125-.21875v-.34375h-5.34375c-.24052-1.81574-.41147-3.0351-.53125-4.09375C9.85402.50263 8.82527.00016 7.06277.00013zm36.5 4.4375l-.3125.09375-4.96875 12.78125c-.9225 2.35125-1.20624 2.51747-2.78125 2.90625v.34375h5.1875v-.34375l-.53125-.125c-1.30875-.29125-1.51872-.57628-1.15625-2.03125.24375-.96875.86623-2.87251 1.15625-3.625h5.1875c.705 1.86875 1.39247 3.76253 1.5625 4.34375.22.75375.15373 1.00122-.71875 1.21875l-.8125.21875v.34375h5.78125v-.34375c-1.50125-.36625-1.78874-.54374-2.5625-2.53125-.97-2.4725-2.06248-5.5725-3.25-8.625l-1.78125-4.625zm12.3125 0c-3.1525 0-4.90624 2.08622-4.90625 4.4375 0 2.7875 3.05376 3.88999 4 4.375 1.3075.67875 3.25 1.45877 3.25 3.90625 0 2.01125-1.18876 3.09377-3.03125 3.09375-2.66625 0-4.01002-2.88501-4.46875-4l-.375.125c.2425 1.285.50002 2.99372.71875 3.625.265.12.67499.30752 1.28125.5.58375.195 1.40752.35877 2.28125.40625 3.0525-.0475 5.34375-2.12749 5.34375-4.84375 0-2.88375-2.33248-3.95251-4.125-4.75-1.8425-.85-3.21875-1.70625-3.21875-3.5 0-1.5275.8525-2.78124 2.71875-2.78125 2.2525 0 2.96752 1.86623 3.5 3.34375l.375-.09375c-.195-1.47875-.34122-2.43375-.4375-3.28125-.72875-.16875-1.52625-.5625-2.90625-.5625zm4.15625.375v.34375c1.9375.2675 2.15626.5375 2.15625 3.15625v8.71875c0 2.61875-.19377 2.91997-2.375 3.1875v.34375h11.34375c.19625-.655.75126-3.13253.875-3.8125l-.375-.0625c-.55875 1.11375-.995 1.94001-1.40625 2.375-.53375.5825-1.68125.96873-3.0625.96875-1.14 0-2.02248-.01876-2.53125-.40625-.41125-.315-.53127-.89876-.53125-2.28125v-4.65625h2.4375c1.04 0 1.56752.05124 1.90625.34375.34125.265.5075.79748.75 1.71875h.34375v-4.8125h-.34375c-.485 1.7925-.57375 2.03124-2.65625 2.03125h-2.4375V6.06263c0-.67875.04-.71877.71875-.71875h1.59375c1.8425 0 2.57497.43125 2.9375.84375.34.38875.75623 1.00752 1.09375 2.21875l.34375-.0625c-.12125-1.35625-.22878-3.11752-.25-3.53125H60.03152zm13.15625.0625c-.63 0-1.12502.495-1.125 1.125 0 .62.49502 1.12499 1.125 1.125.63 0 1.15625-.505 1.15625-1.125 0-.63-.52623-1.12499-1.15625-1.125zm0 .125c.52125 0 .93749.455.9375 1 0 .545-.41623 1.00001-.9375 1-.52125 0-.93751-.455-.9375-1 0-.545.41627-1.00001.9375-1zm-43.09375.28125c2.86 0 3.46873 1.85873 3.46875 3.3125 0 2.10875-1.17372 3.15627-3.5 3.15625h-1.53125v-5.6875c0-.48375.0725-.58375.21875-.65625.19375-.09875.54373-.12498 1.34375-.125zm42.5625.09375v.0625c.15875.02125.15625.03002.15625.1875v.75c0 .15125.00248.16377-.15625.1875v.0625h.5625v-.0625c-.16375-.02375-.18748-.03625-.1875-.1875v-.3125h.09375c.04 0 .0625.04498.09375.09375.01875.04.1275.21873.1875.3125.0825.12625.15124.15127.3125.15625l.09375.03125.03125-.0625h-.03125c-.02375-.02125-.05502-.04372-.09375-.09375-.04-.0475-.0925-.09499-.15625-.1875-.06-.08875-.12127-.22124-.15625-.28125.15375-.0475.25002-.16124.25-.3125 0-.27125-.23126-.34375-.4375-.34375h-.5625zm.5.0625c.10375 0 .25002.05502.25.28125 0 .04875.00876.18125-.09375.25-.02625.015-.09003.03124-.15625.03125h-.125v-.46875c0-.09375.00375-.09375.125-.09375zM42.68777 7.53138h.0625l2.3125 6.1875h-4.6875l2.3125-6.1875zm-14.15625 4.71875h1.40625c2.545 0 4.46872 1.27747 4.46875 3.96875 0 2.66625-1.72125 3.81248-3.78125 3.8125-1.76875 0-2.09375-.45877-2.09375-2.375v-5.40625z"/></svg>