<svg xmlns="http://www.w3.org/2000/svg" role="img" viewBox="9.51 251.51 623.48 137.98"><title>Teradata logo</title><style>svg {enable-background:new 0 0 652 652}</style><style>.st0{fill:#3d4952}</style><path d="M150.3 340.7H89c2.1 11.6 10.3 18.7 20.2 18.7 6.3 0 14.2-.8 20-10.7l19 4c-7.1 16.8-21.5 24.9-39.1 24.9-22.8 0-41.3-17.3-41.3-42.6s18.6-42.8 41.6-42.8c21.5 0 40 16.6 40.8 41.2v7.3zm-60.7-15h38.9c-2.7-10.3-10.5-14.9-19-14.9-8.1.1-17.3 4.9-19.9 14.9m288 49.6h-21.3v-6.9c-6.5 6-15.3 9.4-26.6 9.4-20.5 0-39.5-17.3-39.5-42.6s19-42.8 39.5-42.8c11.3 0 20.2 3.4 26.6 9.4v-38h21.3v111.5zm-21.3-40.2c0-14.9-11.5-24.2-22.9-24.2-12.9 0-22.6 9.4-22.6 24.2 0 14.9 9.7 24 22.6 24 11.5 0 22.9-9.2 22.9-24m195.6-40.2h-29.4v17.8h29.4c8.2 0 13.7 3.5 13.7 11.6v1.3h-23.2c-20.3 0-32 10.3-32 25.8 0 15.8 12.3 26.3 30.7 26.3 11 0 19-3.7 24.5-9v6.6H586v-52.6c0-19.2-13.5-27.4-34.1-27.8m13.7 47.8c0 10.3-9.8 18.1-21.1 18.1-8.2 0-13.7-3.9-13.7-9.8 0-5.5 4.5-9.2 11.3-9.2h23.6v.9zM426 294.9h-29.4v17.8H426c8.2 0 13.7 3.5 13.7 11.6v1.3h-23.2c-20.3 0-32 10.3-32 25.8 0 15.8 12.3 26.3 30.7 26.3 11 0 19-3.7 24.5-9v6.6H460v-52.6c0-19.2-13.5-27.4-34-27.8m13.7 47.8c0 10.3-9.8 18.1-21.1 18.1-8.2 0-13.7-3.9-13.7-9.8 0-5.5 4.5-9.2 11.3-9.2h23.6v.9zm-190.8-47.8h-29.4v17.8h29.4c8.2 0 13.7 3.5 13.7 11.6v1.3h-23.2c-20.3 0-32 10.3-32 25.8 0 15.8 12.3 26.3 30.7 26.3 11 0 19-3.7 24.5-9v6.6H283v-52.6c0-19.2-13.5-27.4-34.1-27.8m13.7 47.8c0 10.3-9.8 18.1-21.1 18.1-8.2 0-13.7-3.9-13.7-9.8 0-5.5 4.5-9.2 11.3-9.2h23.6v.9zm-54.5-47.9c-13.1 0-22.4 5.2-28.9 14.6v-14.7h-21.3v80.5h21.3v-26c0-22.4 9-36.5 28.7-36.5h1v-17.9h-.8" class="st0"/><path d="M63.8 355.8c-3.2 1.2-6.6 2-9.2 2-7.1 0-11.8-4.2-11.8-13.9v-31.8h21.8v-17.4H42.8V275H21.5v70.6c0 22.1 12.6 32.1 31.6 32.1 6.7 0 13.2-1.4 21.4-5.9-4.3-4.4-8.4-9.8-10.7-16m439.9 1.8c-.9.1-1.7.2-2.4.2-7.1 0-11.8-4.2-11.8-13.9v-31.8h22.4v-17.4h-22.4V275h-21.3v70.6c0 22.1 12.6 32.1 31.6 32.1 4.7 0 8.8-.7 13.7-2.6-6.3-4.5-8.7-11.9-9.8-17.5" class="st0"/><path fill="#f06f37" d="M621.5 363c0 7.6-5.8 13.5-14 13.5-8.1 0-14-5.8-14-13.5 0-7.3 5.8-13.6 14-13.6s14 6.4 14 13.6"/></svg>