<svg xmlns="http://www.w3.org/2000/svg" role="img" viewBox="17.16 -1.09 238.94 47.69"><title>VersionOne logo</title><path fill="#E18A39" d="M91.876 12.685v-.049c0-4.944 3.701-8.994 8.969-8.994 3.207 0 5.143 1.119 6.808 2.708l-1.963 2.26c-1.391-1.292-2.882-2.162-4.87-2.162-3.304 0-5.738 2.733-5.738 6.137v.049c0 3.404 2.409 6.162 5.738 6.162 2.138 0 3.503-.844 4.995-2.236l1.963 1.987c-1.814 1.889-3.802 3.082-7.057 3.082-5.068.002-8.845-3.949-8.845-8.944m16.35 0v-.049c0-4.895 3.776-8.994 9.118-8.994s9.07 4.05 9.07 8.945v.049c0 4.895-3.777 8.994-9.119 8.994-5.343.001-9.069-4.049-9.069-8.945m14.981 0v-.049c0-3.379-2.459-6.187-5.913-6.187s-5.864 2.758-5.864 6.137v.049c0 3.379 2.46 6.162 5.913 6.162 3.455 0 5.864-2.733 5.864-6.112m5.418-8.746h3.057v14.61h9.143v2.784h-12.2zm13.888 0h3.057v14.61h9.143v2.784h-12.2zm20.052-.124h2.832l7.654 17.517h-3.231l-1.764-4.199h-8.224l-1.789 4.199h-3.131l7.653-17.517zm4.373 10.61l-3.006-6.956-2.982 6.956h5.988zm7.604-10.485h7.801c1.988 0 3.554.546 4.547 1.54.771.771 1.169 1.715 1.169 2.883v.049c0 2.087-1.193 3.206-2.484 3.876 2.036.696 3.452 1.864 3.452 4.225v.049c0 3.106-2.559 4.771-6.435 4.771h-8.05V3.94zm10.46 4.92c0-1.367-1.095-2.212-3.058-2.212h-4.396v4.622h4.174c1.963 0 3.28-.771 3.28-2.36v-.05zm-2.609 4.994h-4.845v4.771h5.068c2.086 0 3.354-.82 3.354-2.385v-.05c.001-1.467-1.166-2.336-3.577-2.336"/><path fill="#0C2343" d="M190.991 3.939h2.832l9.316 12.026V3.939h3.008v17.394h-2.559l-9.591-12.374v12.374h-3.006zm18.137 0h12.896v2.734h-9.84v4.521h8.722v2.733h-8.722v4.672h9.964v2.734h-13.02zm19.43 2.833h-5.516V3.939h14.114v2.833h-5.517v14.561h-3.081z"/><path fill="#802245" d="M92.128 24.466h3.38l5.242 13.366 5.218-13.366h3.304l-7.204 17.515h-2.709zm18.637 0h12.895v2.732h-9.84v4.523h8.721v2.732h-8.721v4.672h9.963v2.733h-13.018zm15.156 0h7.752c2.188 0 3.902.646 5.02 1.738.919.944 1.441 2.236 1.441 3.752v.05c0 2.857-1.715 4.572-4.124 5.268l4.694 6.585h-3.626l-4.274-6.063h-3.826v6.063h-3.057V24.466zm7.529 8.621c2.187 0 3.578-1.144 3.578-2.907v-.049c0-1.864-1.342-2.883-3.603-2.883h-4.447v5.839h4.472zm7.777 6.236l1.839-2.187c1.664 1.441 3.354 2.261 5.49 2.261 1.889 0 3.081-.895 3.081-2.187v-.05c0-1.243-.696-1.912-3.926-2.659-3.702-.894-5.789-1.986-5.789-5.191v-.052c0-2.98 2.484-5.043 5.938-5.043 2.536 0 4.548.771 6.313 2.188l-1.641 2.311c-1.565-1.169-3.13-1.789-4.721-1.789-1.788 0-2.831.919-2.831 2.062v.05c0 1.343.795 1.938 4.149 2.732 3.678.896 5.564 2.213 5.564 5.095v.05c0 3.256-2.559 5.194-6.21 5.194-2.66-.002-5.169-.921-7.256-2.785m15.754-14.857h3.056v17.393h-3.056zm5.439 8.745v-.05c0-4.895 3.777-8.995 9.119-8.995 5.343 0 9.068 4.051 9.068 8.945v.05c0 4.895-3.775 8.994-9.118 8.994-5.341 0-9.069-4.051-9.069-8.944m14.985 0v-.05c0-3.38-2.462-6.187-5.914-6.187-3.453 0-5.865 2.759-5.865 6.137v.05c0 3.379 2.461 6.162 5.914 6.162 3.454 0 5.865-2.732 5.865-6.112m5.416-8.745h2.832l9.317 12.024V24.466h3.007v17.392h-2.559l-9.591-12.375v12.375h-3.006z"/><path fill="#0C2343" d="M200.189 33.211v-.05c0-4.895 3.776-8.995 9.119-8.995s9.068 4.051 9.068 8.945v.05c0 4.895-3.776 8.994-9.118 8.994-5.342 0-9.069-4.051-9.069-8.944m14.981 0v-.05c0-3.38-2.459-6.187-5.912-6.187-3.454 0-5.865 2.759-5.865 6.137v.05c0 3.379 2.461 6.162 5.914 6.162s5.863-2.732 5.863-6.112m5.418-8.745h2.833l9.318 12.024V24.466h3.006v17.392h-2.56l-9.59-12.375v12.375h-3.007zm18.139 0h12.896v2.732h-9.84v4.523h8.721v2.732h-8.721v4.672h9.963v2.733h-13.019z"/><g><path fill="#E38B39" d="M59.932 32.2s-6.903 5.136-13.607 2.101c-4.976-2.315-6.776-6.46-6.776-6.46s-5.738 3.666-11.299-.349c-3.422-2.365-3.1-7.381-1.326-9.986 1.774-2.605 6.071-5.416 14.148-.441l-1.388 1.962 8.568 1.308-3.991-7.962-1.121 1.61s-10.538-8.312-18.731.067c-3.5 3.462-3.019 8.705-1.56 11.415 1.455 2.709 6.309 6.929 13.784 4.402-.002.002 8.585 14.762 23.299 2.333"/><path fill="#802245" d="M38.757 9.918s6.902-5.135 13.611-2.098c4.974 2.314 6.774 6.458 6.774 6.458s5.738-3.667 11.299.349c3.425 2.366 3.102 7.379 1.325 9.983-1.773 2.607-6.067 5.419-14.145.445l.896-2.226-8.08-1.048 4.236 8.086.879-1.729s10.534 8.31 18.733-.07c3.494-3.461 3.012-8.705 1.557-11.411-1.454-2.71-6.308-6.928-13.783-4.405.002 0-8.587-14.757-23.302-2.334"/></g></svg>