<svg xmlns="http://www.w3.org/2000/svg" role="img" viewBox="-1.11 -0.11 447.46 227.71"><title>Vmware NSX logo</title><defs><clipPath id="clip-path"><path fill="none" d="M115.33206 78.94141a34.51953 34.51953 0 0 1 .77141-9.18037c1.77859-6.30894 6.27029-10.08484 12.84055-10.35513 6.18155-.25431 10.785 2.90883 13.24146 8.61085a19.21936 19.21936 0 0 1 1.66687 7.32445c.104 42.137.31579 84.27627-.05009 126.41025-.11742 13.52144-12.76248 20.61529-23.4814 13.74716-3.45041-2.21085-6.332-5.56264-8.911-8.83588-10.25431-13.01467-20.2732-26.21464-30.40364-39.32716-14.74591-19.08666-30.74919-38.5692-45.87036-58.116-.32652 5.22258-.21313 6.34648-.22007 8.92831-.07318 27.249-.18829 54.49954.04352 81.74679.0655 7.69927-1.58035 14.11787-9.17533 17.24329-7.92623 3.26177-14.81223-1.46721-17.35267-8.46617a21.93735 21.93735 0 0 1-.82423-6.99736V78.06413c0-3.67265-.08968-8.04056 2.06057-11.01794 6.58-9.11114 20.86462-10.2916 31.24229 3.14522q34.24749 44.343 68.55483 88.63975c1.334 1.723 3.26434 4.12774 4.86322 5.96586m150.01651 47.02129c16.51606-9.2502 24.07734-23.5529 23.2789-42.50432-.73639-17.47854-10.185-28.53456-25.36591-35.57133-8.96091-4.15365-18.46478-6.64591-28.0156-9.00787-8.44738-2.08907-16.9973-4.06979-24.54954-8.5957-11.558-6.92648-11.174-22.18777.6205-28.73395a29.48328 29.48328 0 0 1 12.92022-3.33114c13.515-.76651 25.175 4.41965 36.66069 10.6719 8.54709 4.65262 15.61905 3.05858 19.89025-3.80159 4.28878-6.88843 2.50856-14.18367-5.8363-19.27032-23.05359-14.05246-47.59371-18.04999-73.36844-8.60167a41.97333 41.97333 0 0 0-28.06671 39.2707c-.34472 20.904 6.97933 32.5676 26.02511 40.82948a151.77217 151.77217 0 0 0 26.435 8.45395c8.21529 1.892 16.35478 4.09031 23.961 7.82492 6.33689 3.11135 9.99644 8.03661 9.63443 15.39158-.34863 7.08338-3.63753 12.22251-10.137 15.23453a36.01214 36.01214 0 0 1-12.97068 3.25845c-16.50644 1.08368-30.785-4.46037-44.05229-13.84365-8.691-6.14665-16.91995-5.30215-21.54166 1.42889-4.91591 7.15948-2.63108 15.14166 6.55333 21.25911 16.50351 10.99249 34.45153 17.5534 55.18547 16.82154a59.25328 59.25328 0 0 0 32.73923-7.18351zM434.10191 66.26545c-5.11414-9.31744-16.98152-9.402-24.48752.09549-10.96235 13.871-21.6112 27.99-32.37362 42.01869-6.62392 8.63423-6.59265 8.63609-12.95317.25483-10.85906-14.309-21.61158-28.70159-32.66289-42.86082-5.48808-7.03148-14.49916-8.45613-20.95413-3.9381-6.53287 4.57257-7.46745 12.91507-2.25908 20.93424a65.28306 65.28306 0 0 0 4.07022 5.35839c10.58 13.09862 21.22275 26.14676 31.7549 39.28364 8.241 10.2791 8.02365 10.19447-.17234 20.15841q-18.45067 22.43064-36.46725 45.21709c-6.8732 8.6917-6.72266 17.43527-.13086 22.43647 7.0528 5.35094 14.9935 3.783 21.81669-4.89218 11.4508-14.55873 22.5912-29.36118 33.92947-44.009 6.66762-8.61383 6.68372-8.53628 13.3805.21845 11.59531 15.15872 23.13579 30.36175 34.92745 45.3669 5.6149 7.14516 14.09945 8.29275 20.90225 3.42851 6.30507-4.50841 7.29138-12.42337 2.38462-20.231a74.12836 74.12836 0 0 0-4.99429-6.77116c-11.92475-14.89916-23.69257-29.93066-35.93039-44.5689-4.28369-5.124-4.005-8.76713.16317-13.7544 12.05587-14.4252 23.63964-29.24447 35.44758-43.87769 3.217-3.98677 6.05255-8.10617 6.38621-14.63437a25.77542 25.77542 0 0 0-1.77752-5.23349z"/></clipPath><style>.cls-2{fill:#747373}.cls-12{fill:#3b94d1}</style></defs><path d="M127.96958 47.37l-12.028-33.46929a6.88133 6.88133 0 0 1-.41837-1.56887 2.90333 2.90333 0 0 1 2.92857-2.824 3.116 3.116 0 0 1 3.03315 2.4056l9.9362 28.76268 10.04077-28.86727a3.02223 3.02223 0 0 1 2.92855-2.40561h.31378a3.03184 3.03184 0 0 1 3.03315 2.40561l9.9362 28.86727 10.04079-28.86727a2.9201 2.9201 0 0 1 2.824-2.301 2.81863 2.81863 0 0 1 2.92857 2.71938 3.87763 3.87763 0 0 1-.41836 1.56887l-12.028 33.46929a3.45826 3.45826 0 0 1-3.24234 2.61479h-.20924a3.315 3.315 0 0 1-3.24235-2.61479l-9.8316-28.3443L134.55886 47.37a3.2103 3.2103 0 0 1-3.24234 2.61479h-.20918a3.37972 3.37972 0 0 1-3.13775-2.61479m87.33393-34.9336a3.01346 3.01346 0 0 1 2.92857-3.03316 2.97037 2.97037 0 0 1 3.03315 3.03316v6.79845c2.92857-6.58927 9.30864-9.727 13.5969-9.727a2.80006 2.80006 0 0 1 2.92857 2.92856 3.03857 3.03857 0 0 1-2.61479 3.03315c-7.63519.94133-13.91068 6.69386-13.91068 18.09434v13.38771a2.98132 2.98132 0 0 1-5.96172 0V12.4364m41.31367 37.86214c-10.66834 0-19.34944-8.26273-19.34944-20.39535V29.694c0-11.29588 7.84437-20.39535 18.6173-20.39535 11.50507 0 17.98974 9.41324 17.98974 19.8724a2.70044 2.70044 0 0 1-2.71939 2.71938h-28.03053c.83673 8.47191 6.69385 13.28312 13.5969 13.28312a16.0545 16.0545 0 0 0 11.19129-4.49743 2.20817 2.20817 0 0 1 1.67347-.62755 2.47773 2.47773 0 0 1 2.51019 2.5102 2.53291 2.53291 0 0 1-.94132 1.88264 19.22267 19.22267 0 0 1-14.53821 5.85713m11.50507-22.59178c-.62756-7.11222-4.602-13.28312-12.34181-13.28312-6.79845 0-11.81885 5.64794-12.551 13.28312zM173.5715 38.06133v-.10459c0-8.26274 6.90305-12.76017 16.83925-12.76017A44.07377 44.07377 0 0 1 202.54338 26.87v-1.46425c0-7.11222-4.39285-10.77293-11.71425-10.77293a20.66272 20.66272 0 0 0-9.20406 1.77806 4.603 4.603 0 0 1-1.04592.20918 2.63834 2.63834 0 0 1-2.61479-2.5102 2.31046 2.31046 0 0 1 1.56888-2.4056c3.86988-1.67347 6.79845-2.19643 11.81884-2.19643 5.54336 0 9.8316 1.46429 12.76017 4.39285 2.71939 2.71938 4.07906 6.48468 4.07906 11.50507v21.755a2.837 2.837 0 0 1-2.824 2.92856 2.72572 2.72572 0 0 1-2.824-2.71938v-3.76525a17.30112 17.30112 0 0 1-14.22446 6.79845c-7.32141-.10459-14.74742-4.28825-14.74742-12.3418m29.07657-3.03315v-3.7653a41.50608 41.50608 0 0 0-11.60967-1.67347c-7.426 0-11.50507 3.24234-11.50507 8.15815v.10459c0 4.9158 4.602 7.84436 9.9362 7.84436 7.21681 0 13.17854-4.49743 13.17854-10.66834M21.077 12.018a5.51467 5.51467 0 0 0-7.426-2.824 5.4944 5.4944 0 0 0-2.824 7.426l12.551 27.1938c1.98724 4.28825 4.07907 6.48468 7.949 6.48468 4.18366 0 5.96171-2.40561 7.949-6.48468 0 0 10.87751-23.74228 10.98211-24.056a1.59654 1.59654 0 0 1 1.56887-1.04592A1.76287 1.76287 0 0 1 53.605 20.49v23.21927c0 3.55611 1.98724 6.48468 5.85712 6.48468s5.85713-2.92857 5.85713-6.48468V24.7782a5.84765 5.84765 0 0 1 6.1709-6.06631 5.738 5.738 0 0 1 5.96172 6.06631v19.03566c0 3.55611 1.98724 6.48468 5.85712 6.48468s5.85713-2.92857 5.85713-6.48468V24.7782a5.84765 5.84765 0 0 1 6.1709-6.06631 5.738 5.738 0 0 1 5.96171 6.06631v19.03566c0 3.55611 1.98724 6.48468 5.85713 6.48468 3.76529 0 5.85712-2.92857 5.85712-6.48468V22.16341c0-7.94895-6.38007-13.49231-14.01525-13.49231a18.10112 18.10112 0 0 0-12.551 5.33417c-2.51019-3.34693-6.06631-5.33417-12.028-5.33417-6.27549 0-11.81884 5.33417-11.81884 5.33417A14.12778 14.12778 0 0 0 52.03612 8.6711c-5.54335 0-10.04078 2.40561-12.76016 8.6811L31.327 36.17868 21.077 12.018m253.32072 2.301a4.91582 4.91582 0 1 1 4.91581 4.9158 4.84475 4.84475 0 0 1-4.9158-4.9158m8.7857 0a3.90751 3.90751 0 0 0-3.97446-3.97448 3.97271 3.97271 0 0 0-3.97448 3.97448 3.90751 3.90751 0 0 0 3.97448 3.97447 3.97269 3.97269 0 0 0 3.97446-3.97447" class="cls-2"/><path d="M277.32631 12.33181a.49407.49407 0 0 1 .523-.523h1.67346a1.80674 1.80674 0 0 1 1.35967.523 1.21272 1.21272 0 0 1 .41836 1.04591 1.64007 1.64007 0 0 1-.94131 1.46428l.73215.83674a.54337.54337 0 0 1 .2092.41836.49408.49408 0 0 1-.523.523.57518.57518 0 0 1-.523-.31377l-1.04591-1.2551h-.83672v1.04587a.523.523 0 0 1-1.04592 0v-3.76529zm2.09182 1.778c.523 0 .83672-.31377.83672-.62755 0-.41836-.31376-.62755-.83672-.62755h-1.04592v1.3597h1.04592z" class="cls-2"/><g clip-path="url(#clip-path)"><path fill="#57aee2" d="M75.59789 185.74872a.13442.13442 0 0 1 .13725.13725c6.039-1.37249 10.84265-5.0782 15.92086-8.50943-7.27418-1.647-13.86212-.41174-19.21482 5.21545.13725 1.92149 1.78423 2.47049 3.15671 3.15673z"/><path fill="#95c9e3" d="M76.69588 187.39571c0-.27449-.96074-.96074-.96074-1.23524v-.27447a.13442.13442 0 0 1-.13725-.13725c-1.37248-.68624-3.01947-1.23524-3.15672-3.15672-2.745 1.647-2.88222 5.90169-3.56846 8.78392l5.49-.41175c3.15666.96071-.00005-2.47051 2.33317-3.56849zM-15.107 108.8h121.449L63.029 94.287-7.957 51.389l-7.15 57.411z"/><path fill="#7abce6" d="M7.363 51.389H34.43l28.599 42.898L.436 56.461l6.927-5.072z"/><path fill="#245177" d="M-27.364 108.353l117.122.447L-24.3 170.574l-3.064-62.221z"/><path fill="#72838c" d="M45.617 170.574l-32.486-20.345 81.05-43.798v19.519l-4.828 5.387-4.216 66.078-39.52-26.841z"/><path fill="#8dc2de" d="M-15.107 165.578l28.238-15.349 32.486 20.345-3.016 21.702-53.623-.9-4.085-25.798z"/><path fill="#acd3ed" d="M-4.383 224.506H49.24l-6.639-32.23-53.623-.9 6.639 33.13z"/><path fill="#55ade2" d="M102.636 51.389l8.908 42.898 59.991-32.684-68.899-10.214z"/><path d="M112.566 102.113v8.698l51.58-.791-6.123-41.056-46.479 25.323 1.022 7.826z" class="cls-12"/><path fill="#273f31" d="M108.767 123.396l3.799-12.585 51.58-.791-3.794 40.338-51.585-26.962z"/><path fill="#5f6971" d="M89.353 131.337l19.414-7.941 51.585 26.962-68.696 38.822-5.573-6.588 3.27-51.255z"/><path fill="#2d6ea6" d="M158.023 191.376H91.656v-2.196l79.879-45.356-13.512 47.552z"/><path d="M158.023 230.642l-60.267-15.248-6.1-26.214h66.367v41.462z" class="cls-12"/><path fill="#1867a5" d="M158.892 72.695l52.649 32.174 10.969-5.849-5.463-7.313 3.269-47.166-61.424 28.154z"/><path fill="#409fd4" d="M232.382 104.869l13.162-8.774 49.725-30.713-74.953-20.841-3.269 47.166 15.335 13.162z"/><path fill="#2ba3a5" d="M247.007 112.608l-2.272-16.513 50.534-30.713-2.193 29.25-46.069 17.976z"/><path fill="#41a6d9" d="M158.892 72.695l52.649 32.174-2.925 5.85h-55.574l5.85-38.024z"/><path fill="#2a4b38" d="M213.37 115.838h-5.85l-59.597 40.585 5.119-45.704h55.574l4.754 5.119z"/><path fill="#2b5c67" d="M170.957 158.616l-6.691-13.323 44.063-30.669 11.256 1.214v57.769l-48.628-14.991z"/><path fill="#393869" d="M225.801 115.838h-6.216v54.113l30.347 1.462 45.337-26.69-69.468-28.885z"/><path fill="#68a2cf" d="M240.791 178.36l9.141-6.947 45.337-26.69 3.291 46.068h-60.328l2.559-12.431z"/><path fill="#5081bb" d="M225.07 187.866l3.29 5.119 42.047 26.325 14.259-21.206v-7.313l-59.596-2.925z"/><path fill="#409fd5" d="M217.047 190.791h3.47l.531 40.219 47.348-4.388-5.545-12.043-34.491-21.594-6.703-5.728-4.61 3.534z"/><path fill="#7cc3e9" d="M181.926 212.324l34.003-20.841 4.914-.809.205 35.422-39.122-13.772z"/><path fill="#41a7da" d="M165.473 189.572l47.653-2.315 4.017 3.822-36.314 22.381-15.356-23.888z"/><path fill="#2f82b6" d="M167.301 171.413l22.547 2.194 19.977 13.81-44.352 2.155 1.828-18.159z"/><path fill="#25483b" d="M302.547 92.961l49.725-28.519-24.863-8.775H306.69l-4.143 37.294z"/><path fill="#5dae59" d="M302.524 99.751l4.144-9.263 49.725-28.518 18.768 42.899-5.118 4.632h-67.519v-9.75z"/><path fill="#1a995a" d="M300.208 112.608l6.46-3.107h111.15l-5.85 1.553-68.982 35.497-42.778-33.943z"/><path fill="#94c351" d="M406.605 53.195l3.169 57.524 32.419-15.112 6.093-42.412h-41.681z"/><path fill="#538e53" d="M381.986 81.957l25.149-24.862 2.639 53.624-27.788-20.231v-8.531z"/><path fill="#5eae5a" d="M370.043 109.501l11.943-19.013 27.788 20.231-39.731-1.218z"/><path fill="#4d8a51" d="M338.843 148.501l70.931 46.374v-84.156l-70.931 37.782z"/><path fill="#264a4a" d="M433.661 173.607l-23.887 15.965v-45.946l23.887 29.981z"/><path fill="#2aa3a4" d="M305.693 189.572h50.7l13.65-21.815-34.613-21.206-29.737 43.021z"/><path fill="#2fa1a1" d="M376.38 173.607l11.416 3.239 21.978 12.726-13.894 6.947-19.5-22.912z"/><path fill="#365d3d" d="M444.143 189.572h-34.369l23.887-15.965 10.482 15.965z"/><path fill="#637f4a" d="M445.118 209.194l-35.344-19.622h34.369l.975 19.622z"/><path fill="#c2d5a9" d="M409.774 216.507v-26.935l-13.894 6.947 13.894 19.988z"/><path fill="#84c5b9" d="M417.818 225.525l33.15-14.381-5.85-1.95-35.344-19.622v26.935l8.044 9.018z"/><path fill="#299090" d="M294.968 219.31l48.993-2.803 8.044-21.694-3.9-5.241h-42.412l-10.725 29.738z"/></g><path fill="#3586ba" d="M7.607 146.88l5.524 3.349-5.524 3.07v-6.419z"/></svg>