<svg xmlns="http://www.w3.org/2000/svg" role="img" viewBox="34.02 48.02 414.70 106.70"><title>Xamarin logo</title><path d="M201.83034 127.22472l-10.31613-19.79433-10.55162 19.79433h-11.34626l16.08736-25.54678-14.47767-25.3895h11.50329l9.39336 19.28962 10.17875-19.28962h10.52184l-14.8703 25.23222 15.10578 25.70406h-11.2284zm36.78545 0v-5.54373h-.15715c-2.8006 4.35111-6.76582 6.52666-11.89592 6.52666-3.95221 0-7.06686-1.07466-9.34394-3.224-2.27709-2.17556-3.4157-5.08505-3.4157-8.72843 0-7.81104 4.38414-12.25387 13.15227-13.32858l11.7389-1.612c0-5.47818-2.53885-8.21726-7.61652-8.2173-4.84208.00004-9.29165 1.49408-13.34858 4.48217v-8.02073c1.5181-.91736 3.69045-1.74303 6.5172-2.477 2.85301-.73388 5.44415-1.10083 7.77366-1.10088 10.36469.00005 15.54697 5.24235 15.5471 15.72692v25.5169h-8.95144.00012zm-8.5981-18.4398c-2.69586.34077-4.59345 1.00917-5.69277 2.00518-1.07316.96983-1.60968 2.477-1.60968 4.5215 0 1.67753.6151 3.05366 1.84529 4.12832 1.23006 1.04844 2.83975 1.57268 4.82893 1.57268 2.69587 0 4.92065-.93052 6.67435-2.79153 1.75358-1.86102 2.63043-4.18072 2.63043-6.95916v-3.6172l-8.67654 1.14021zm75.43459 18.4398v-22.7254c-.00013-3.7482-.58895-6.52662-1.76672-8.33523-1.15174-1.83478-3.2195-2.7522-6.20314-2.75223-2.38194.00004-4.38413 1.10092-6.00683 3.30265-1.62283 2.1756-2.43424 4.80986-2.43424 7.90278v22.60743h-9.06905V103.713c-.00012-6.8674-2.63055-10.3011-7.8914-10.30114-2.46027.00004-4.48874 1.0354-6.08541 3.10608-1.5704 2.07074-2.35554 4.7705-2.35554 8.09935v22.60743h-9.06918V86.96385h9.06918v6.21213h.15703c2.90532-4.79667 7.14543-7.19503 12.72047-7.19508 2.66959.00005 5.02525.70776 7.06686 2.12315 2.06763 1.38923 3.52029 3.31578 4.35785 5.77962 3.06235-5.26847 7.56422-7.90272 13.5056-7.90277 8.74186.00005 13.11286 5.45205 13.11298 16.35601v24.88781h-9.10846zm39.25884 0v-5.54373h-.15715c-2.80059 4.35111-6.76594 6.52666-11.89592 6.52666-3.9522 0-7.06685-1.07466-9.34394-3.224-2.27708-2.17556-3.41569-5.08505-3.41569-8.72843 0-7.81104 4.38413-12.25387 13.15227-13.32858l11.73889-1.612c0-5.47818-2.53884-8.21726-7.61652-8.2173-4.8422.00004-9.29164 1.49408-13.34858 4.48217v-8.02073c1.5181-.91736 3.69046-1.74303 6.5172-2.477 2.8529-.73388 5.44416-1.10083 7.77355-1.10088 10.3648.00005 15.54709 5.24235 15.54721 15.72692v25.5169H344.711h.00012zm-8.5981-18.4398c-2.69598.34077-4.59345 1.00917-5.69276 2.00518-1.07317.96983-1.60969 2.477-1.60969 4.5215 0 1.67753.6151 3.05366 1.8453 4.12832 1.23006 1.04844 2.83975 1.57268 4.82893 1.57268 2.69587 0 4.92065-.93052 6.67435-2.79153 1.75358-1.86102 2.63043-4.18072 2.63043-6.95916v-3.6172l-8.67655 1.14021zm47.9284-12.9747c-1.49182-.91738-3.24552-1.37606-5.26086-1.37609-2.6174.00003-4.75048 1.12712-6.39946 3.38128-1.6227 2.25422-2.43412 5.18991-2.43412 8.80707v20.60224h-9.06916V86.96385h9.06916v7.82412h.15717c1.93674-5.68785 5.36558-8.5318 10.28622-8.53184 1.59655.00005 2.8136.18349 3.65118.55045v9.00364h-.00013zm9.0284-17.85002c-1.54427.00003-2.8529-.49798-3.92608-1.49408-1.07304-1.02217-1.60956-2.26724-1.60956-3.73513 0-1.52022.53652-2.79148 1.60956-3.81376 1.07317-1.02222 2.38181-1.53333 3.92607-1.5334 1.5704.00007 2.89218.52431 3.96534 1.57271 1.07305 1.02229 1.60969 2.28045 1.60969 3.77445 0 1.46789-.53664 2.71296-1.6097 3.73513-1.07315.9961-2.39493 1.4941-3.96533 1.49408zm-4.63275 49.26452V86.96385h9.06916v40.26087h-9.06916zm43.3453 0v-22.60743c0-7.47024-2.68285-11.2054-8.0483-11.20543-2.696.00004-4.95995 1.0354-6.7921 3.10608-1.806 2.04453-2.709 4.65258-2.709 7.82412v22.88266h-9.06918V86.96385h9.06918v6.448h.15715c2.93148-4.95392 7.27619-7.4309 13.0344-7.43095 8.95143.00005 13.42703 5.50444 13.42716 16.51327v24.73055h-9.06931zM71.43111 56c-2.7548.00586-5.45144 1.5738-6.83822 3.96573l-21.569 37.56853c-1.36519 2.39834-1.36519 5.53314 0 7.93148l21.569 37.56853c1.38693 2.39196 4.08342 3.96031 6.83822 3.96573h43.13784c2.7548-.00586 5.4513-1.57377 6.83822-3.96573l21.569-37.56853c1.36518-2.39834 1.36504-5.53314 0-7.93148l-21.569-37.56853c-1.38693-2.39194-4.08342-3.96031-6.83822-3.96573H71.4311zm.39148 21.97804a.93288.93288 0 0 1 .18086 0h7.44062c.32937.00684.64885.1977.81333.48436l12.62213 22.55324c.06353.1115.10447.23574.12.36326.01555-.12755.05644-.2518.12-.36326l12.59193-22.55324c.1697-.29536.50414-.48727.8434-.48436h7.44062c.65888.00586 1.1523.83797.84354 1.42283L102.5183 101.5l12.32072 22.06886c.33798.58822-.16758 1.4589-.84354 1.45309h-7.44063c-.34518-.00293-.6816-.20812-.8434-.51463l-12.59191-22.55324c-.06354-.11151-.10447-.23576-.12-.36326-.01555.12753-.05645.2518-.12001.36326L80.2574 124.50733c-.15699.29784-.47817.50107-.81333.51463h-7.44062c-.67596.00585-1.18138-.86487-.8434-1.4531l12.32071-22.06885-12.32071-22.09914c-.29535-.53362.06499-1.30893.66254-1.42283z" fill="#3498DB" fill-rule="evenodd"/></svg>