<svg xmlns="http://www.w3.org/2000/svg" role="img" viewBox="-11.37 -11.37 591.24 522.74"><title>XCODE logo</title><defs><style>.cls-2,.cls-8{fill:#00aeef}.cls-2,.cls-3{stroke-miterlimit:10;stroke:#fff}.cls-3{fill:#fff}</style></defs><path fill="#00aeef" stroke="#231f20" stroke-miterlimit="10" d="M486.98 80.12l58 339.24-177.3 27.48h-4.9m-67.97 11.17l-2.24.45L60.85 492.3.58 123.38l408.79-60.37a71.52 71.52 0 0 1 5.41 29.15"/><path d="M471.15 97.76l46.68 275.23.44 2.29 5.72 29.74-156.11 23.12 22.52-84.28 18.97-72.54 25.3-94.75 9.61-30.46 5.8-15.9 5.4-11.84 7.69-12.29 6.36-8.32h1.62" class="cls-2"/><path d="M387.33 209.06l16.21-54.23 9.44-36.45s8.41-42-11.19-33.64-378 55.81-378 55.81l49.74 299.29 240.92-34.71 47.38-127.46-6.43 2.24-117.48-131.9c-10.06-4.9-3.54-16.59-3.54-16.59a176.34 176.34 0 0 0 16.59-11.15c8.16-6.25 14.69 4.9 14.69 4.9l108.57 119.08" class="cls-2"/><path d="M409.73 269.93l45.45-5.64-4.65-31.79-31.94 3.25" class="cls-2"/><path d="M461.54 388.72l-3.11 2.76 3.11 1.11 1.76-1.41z" class="cls-3"/><path d="M479.24 384.67l4.76-.27.27 3.12-1.43.22-3.6-3.07z" class="cls-3"/><path d="M479.8 385.84l2.52 17.75v1.42h7.67s9.65-4.75 5.48-11.86c0 0 1.1-7.54-5.91-8.2s-5.05 0-5.05 0l.22 2.2s10.31 0 8 6l.11 5.94s-6 4.39-7.56 2.74-2.74-13.82-2.74-13.82zm22.69 14.86l.43 2.19 12.3-2.19s1.9-3.43-.77-3.1a61.57 61.57 0 0 1-8.24 0l-.19-3.27 7.86-2.81s2.62-2.14-.76-2.62a67.68 67.68 0 0 0-9.15-.24l-.14-3.14 9.15-.29-.15-5.43-12.77 2.58" class="cls-3"/><path d="M314.45 405.13l-240.92 34.7 4.62 32.64 223.31-32.38 12.99-34.96z" class="cls-2"/><path d="M461.54 388.72s7.86-5.57 11.5.68 3.64 16.68-.7 17.27-12.91 1.47-12.91-3.08a92.78 92.78 0 0 0-1.07-11.35l3.18.35s-1.05 12.5 2.94 11c0 0 11 3.32 7.5-6 0 0 .52-7-5-7.39 0 0-4-.36-3.72.93s-1.72-2.41-1.72-2.41z" class="cls-3"/><path fill="#d1d3d4" stroke="#d1d3d4" stroke-miterlimit="10" d="M387.33 209.06c-.74-1.26-.06-2.69 1.35-6.21 1.77-4.44 2.71-9.22 4.85-13.49 1.24-2.46 2.13-4.81 7.29-24.29 8.33-31.41 12.5-47.12 12.9-50.32 1.74-13.67 6.2-46.86-13.27-66-16.7-16.46-48.81-22.64-71.22-15.74-5.43 1.67-18.74 6.72-21.56 2.71-1.22-1.73-.51-4.66.54-6.47 3.24-5.55 12.87-6.2 12.95-5.93s-11.5 1.67-12.68 1.08a2.64 2.64 0 0 1-.4-.93 5.23 5.23 0 0 1 .13-2.85c.69-2.11 27.11-21.15 73.06-20l5.38.13c8.2.21 12.3.31 16 .37 7.48.13 11.23.19 15.17.09 5.39-.15 9.79-.48 12.7-.74l37.55 9c2.77.71 6.85 1.76 11.79 3.1 6.77 1.84 10.18 2.78 11.49 3.46 7 3.64 6.21 7.64 13.36 14.17 3.17 2.9 7.8 5.63 15.33 7.51 3 .76 14.66 4.19 18-.21.7-.92 1.18-2.37 2.87-3.22a6.82 6.82 0 0 1 4.65-.31c11.08 2.49 16.62 3.73 22.8 6.07 0 0-13.67 55.37-16.34 59.7s-27-4.67-27-4.67-7.34-15.34-19-17-19 2-19 2a138.84 138.84 0 0 0-28.68 33.35c-4.77 7.79-9.47 17.27-20 51.06-4.29 13.82-9.78 32.44-15.51 54.83-5.19-2-9.86-3.7-13.9-5.17s-6-2.17-7-2.43c-8.48-2.05-13.17-.19-14.6-2.65z"/><path d="M97.43 284.56l68.27-10.5-12.12 34.33-51.31 8.08-4.84-31.91zm131.69-18.61l89.28-13.71 25.04 25.63-128.86 22.04 14.54-33.96z" class="cls-2"/><path d="M208.11 199.73l33.53 11.72 10.1-23s2.43-2.83-2.83-8.89-24.23-6.46-24.23-6.46-7.28 2-7.68 5.25-8.89 21.38-8.89 21.38z" class="cls-2"/><path d="M204.97 209.83L144.69 350l34.34 12.12 60.59-142.19-34.65-10.1zM141.06 359.3l-6.87 58.97 40.39-48.07-33.52-10.9z" class="cls-2"/><path fill="#231f20" stroke="#231f20" stroke-miterlimit="10" d="M290.45 472.01s-1.94 15 12.25 20.25 20.4 6.85 20.4 6.85 19.43 4.86 26.45-8.63 73.27-271.16 73.27-271.16l-35.49-10.3-95 255.65z"/><path d="M421.39 409.88l3.22-5.18-7.23-8.19 2.62-1.87 6.44 6.27 5.7-7.75 1.74 2.48-4.52 6.71 7.22 7.27-2.3 2.78-6.45-6.35-3.18 7.96h-3.04l-.22-4.13z" class="cls-3"/><path d="M454.63 395.61c-3.82-10.82-13.15-4.14-14.11-4.51s-2.76 3.66-2.76 3.66v6.1s-.21 9.71 6.79 10.61a12.46 12.46 0 0 0 10.93-4v-5.46l-3.6.21v4.59a44.14 44.14 0 0 0-7.59 0c-3.5.37-3.08-3.61-3.08-3.61v-6.84c6.74-6.74 9.87 0 9.87 0z" class="cls-3"/><path d="M398.69 312.28l12.17-10.2s7.61-5.07 13.53 0 23.9 17.46 22.23 26.48c0 0 11.86 25.92 4.81 34.37 0 0 0 20.85-8.17 2.53 0 0-8.9-14.08-33.89-18.31l-15.32-17.14" class="cls-2"/><path d="M401.79 300.41l13.56-9.94-8.87-8.05" class="cls-2"/><path d="M85.57 447.62l6.86.73s1.61-3.5 2.49-2.63 3.8-.14 3.8-.14a1.67 1.67 0 0 1 .58 2.77c-1.46 1.9-2 9.21 2.63 8.63s0 3.8 0 3.8-.73.29-1 2.33-8.33 1.32-8.33 1.32-1.75 4.09-7 1.31-3.51-5.11-3.51-5.11-5.58-8.77 3.48-13.01z" class="cls-3"/><path d="M90.09 443.67l.74-2.33h3.06v2.92l-1.7 2.19h-3.56v-1.75l1.46-1.03z" class="cls-3"/><path d="M376.87 394.84l141.4-19.56" class="cls-2"/><path d="M361.83 277.67l-6.43 2.24-117.48-131.9s-8.88-4.17-3.54-16.59l16.59-11.15s7-4.4 12 1.47 111.26 122.51 111.26 122.51z" class="cls-2"/><path d="M474.77 116.08l-3.29-20.24s15.08-15.36 15.27-14.8" class="cls-8"/><path d="M470.74 98.55l-.31-1.2-.62.93" class="cls-8"/></svg>